<?xml version="1.0" standalone="no"?>
<!DOCTYPE svg PUBLIC "-//W3C//DTD SVG 1.1//EN" "http://www.w3.org/Graphics/SVG/1.1/DTD/svg11.dtd" >
<svg xmlns="http://www.w3.org/2000/svg">
<metadata></metadata>
<defs>
<font id="omnes_ods_boldregular" horiz-adv-x="1288" >
<font-face units-per-em="2048" ascent="1638" descent="-410" />
<missing-glyph horiz-adv-x="348" />
<glyph unicode="&#xfb01;" horiz-adv-x="1343" d="M16 727v289h191v31q0 213 125.5 320.5t372.5 107.5q202 0 292 -54.5t90 -160.5q0 -46 -19.5 -79.5t-48 -48.5t-61.5 -25t-59 -8.5t-41 1.5q-15 32 -51 50.5t-80 18.5q-73 0 -104 -31.5t-31 -97.5v-24h653v-1016h-391v727h-254v-727h-393v727h-191z" />
<glyph unicode="&#xfb02;" horiz-adv-x="1411" d="M16 727v289h191v26q0 116 28.5 197.5t82 127t121 65.5t155.5 20q145 0 218 -53t73 -133q0 -39 -18 -77.5t-36 -59t-22 -17.5q-49 49 -125 49q-51 0 -75.5 -26t-24.5 -86v-33h235v-289h-219v-727h-393v727h-191zM922 0v1397q0 7 20.5 17.5t57 19t73.5 8.5q46 0 86 -13.5 t76.5 -45t58 -93t21.5 -147.5v-1143h-393z" />
<glyph horiz-adv-x="2048" />
<glyph horiz-adv-x="2048" />
<glyph unicode="&#xd;" horiz-adv-x="2048" />
<glyph unicode=" "  horiz-adv-x="348" />
<glyph unicode="&#x09;" horiz-adv-x="348" />
<glyph unicode="&#xa0;" horiz-adv-x="348" />
<glyph unicode="!" horiz-adv-x="608" d="M47 1325h516l-170 -874h-178zM111 150v32q0 166 168 166h47q88 0 129 -40.5t41 -125.5v-32q0 -85 -41 -125.5t-129 -40.5h-47q-168 0 -168 166z" />
<glyph unicode="&#x22;" horiz-adv-x="980" d="M76 1159q-18 89 27.5 136.5t158.5 47.5q115 0 161 -47.5t28 -136.5l-74 -393q-9 -47 -30.5 -68.5t-61.5 -21.5h-43q-40 0 -61.5 21.5t-30.5 68.5zM528 1159q-18 88 28 136t159 48q114 0 160 -47.5t28 -136.5l-74 -393q-9 -47 -30.5 -68.5t-61.5 -21.5h-43 q-40 0 -61.5 21.5t-30.5 68.5z" />
<glyph unicode="#" horiz-adv-x="1429" d="M31 264v283h282l72 231h-195v283h283l88 280q7 13 39 13q48 0 110 -40.5t62 -101.5q0 -25 -20 -92l-19 -59h211l88 280q3 13 37 13q29 0 68 -15.5t72.5 -50t33.5 -76.5q0 -19 -22 -92l-19 -59h197v-283h-285q-72 -231 -74 -231h197v-283h-283l-88 -278q-1 -6 -13 -10.5 t-24 -4.5q-29 0 -67.5 16t-71.5 51t-33 77q0 22 21 92l18 57h-211l-88 -278q-7 -15 -37 -15q-29 0 -68 16t-72.5 51t-33.5 77q0 22 21 92l18 57h-194zM569 545h215l72 235h-213z" />
<glyph unicode="$" horiz-adv-x="1175" d="M49 266q0 41 30 88.5t60 75.5t35 23q72 -59 179 -101.5t202 -42.5q91 0 131.5 23.5t40.5 75.5q0 25 -14.5 42.5t-42.5 29.5t-61.5 21t-78.5 19q-4 1 -6.5 1.5t-6.5 1t-7 1.5q-45 9 -77 17t-79.5 24.5t-81.5 35t-71.5 48.5t-60.5 66t-38.5 86.5t-15.5 109.5 q0 150 86.5 250.5t245.5 138.5v220h360v-209q154 -22 236 -83.5t82 -154.5q0 -32 -13 -64t-31 -55t-37 -41t-33 -26.5t-17 -5.5q-69 63 -159.5 101t-176.5 38q-166 0 -166 -98q0 -20 10.5 -35.5t26.5 -26t45.5 -19.5t55 -15t67.5 -15q5 -1 7 -1.5t6 -1t7 -1.5q43 -9 79 -18 t83 -25.5t83.5 -36t73.5 -49t61.5 -64.5t40 -83.5t15.5 -104.5q0 -322 -346 -397v-226h-360v215q-171 20 -264.5 85t-104.5 163z" />
<glyph unicode="%" horiz-adv-x="1521" d="M20 0l1180 1325h299l-1180 -1325h-299zM27 1008v14q0 148 95 236t247 88t246 -87t94 -235v-14q0 -148 -94.5 -236t-245.5 -88q-153 0 -247.5 87t-94.5 235zM260 997q0 -62 30 -94.5t79 -32.5q48 0 78 32.5t30 94.5v35q0 63 -30.5 97t-77.5 34q-51 0 -80 -32.5t-29 -98.5 v-35zM813 297v14q0 148 95 236t247 88q153 0 246.5 -87.5t93.5 -236.5v-14q0 -147 -94.5 -234.5t-245.5 -87.5q-153 0 -247.5 87t-94.5 235zM1047 287q0 -62 29.5 -94.5t78.5 -32.5q47 0 77 32t30 95v35q0 63 -30 96t-77 33q-108 0 -108 -129v-35z" />
<glyph unicode="&#x26;" horiz-adv-x="1456" d="M31 371q0 127 73 219.5t209 144.5q-120 114 -120 256q0 165 125 264t335 99q186 0 299 -91.5t113 -242.5q0 -106 -71 -186t-197 -123l180 -154q26 51 67 160q40 91 81.5 126.5t107.5 35.5q32 0 62 -10t50 -24t34.5 -29t21.5 -26t6 -14q-50 -205 -203 -411l242 -203 l-215 -223l-232 196q-175 -164 -446 -164q-249 0 -385.5 103.5t-136.5 296.5zM373 416q0 -81 57.5 -128.5t153.5 -47.5q103 0 198 82l-299 260q-110 -60 -110 -166zM537 981q0 -77 79 -147q77 26 111.5 63t34.5 90q0 51 -31.5 83t-79.5 32q-52 0 -83 -34t-31 -87z" />
<glyph unicode="'" horiz-adv-x="528" d="M76 1159q-18 89 27.5 136.5t158.5 47.5q115 0 161 -47.5t28 -136.5l-74 -393q-9 -47 -30.5 -68.5t-61.5 -21.5h-43q-40 0 -61.5 21.5t-30.5 68.5z" />
<glyph unicode="(" horiz-adv-x="903" d="M63 473q0 176 54.5 339.5t143 280.5t204.5 187t235 70q90 0 139.5 -46t49.5 -126q0 -45 -27 -81.5t-43 -41.5q-178 -46 -271 -201t-93 -381q0 -229 92.5 -383.5t271.5 -200.5q16 -5 43 -41.5t27 -83.5q0 -79 -49.5 -124.5t-139.5 -45.5q-119 0 -235 69.5t-204.5 186 t-143 281t-54.5 342.5z" />
<glyph unicode=")" horiz-adv-x="903" d="M14 -236q0 32 16 62.5t31 45t23 17.5q179 46 272 201t93 383q0 226 -93 381t-272 201q-8 3 -23 17.5t-31 44t-16 61.5q0 80 50 126t139 46q119 0 235 -70t204.5 -187t143 -280.5t54.5 -339.5q0 -178 -54.5 -342.5t-143 -281t-204.5 -186t-235 -69.5q-89 0 -139 45.5 t-50 124.5z" />
<glyph unicode="*" horiz-adv-x="886" d="M34.5 986.5q-10.5 26.5 4.5 70.5l2 8q11 47 38 63.5t85 6.5l155 -27l23 147q10 57 34 77t68 20h9q45 0 70.5 -20.5t33.5 -76.5l21 -147l151 27q59 10 86.5 -7.5t38.5 -62.5l2 -8q15 -43 4 -70t-63 -55l-133 -70l75 -141q19 -35 19 -63t-12 -45t-35 -33l-6 -5 q-27 -23 -63 -22t-77 39l-119 119q0 1 -29 -29l-58 -60l-29 -30q-28 -26 -53 -33.5t-42 -3t-45 19.5l-8 5q-77 44 -28 141l75 143l-131 68q-53 28 -63.5 54.5z" />
<glyph unicode="+" horiz-adv-x="1093" d="M41 377v282h356v363h299v-363h355v-282h-355v-371h-299v371h-356z" />
<glyph unicode="," horiz-adv-x="530" d="M2 -170l86 360q10 45 21 72t30.5 49t50 31.5t76.5 9.5h43q152 0 152 -162v-16q0 -93 -88 -188l-221 -224z" />
<glyph unicode="-" horiz-adv-x="960" d="M72 326v358h817v-358h-817z" />
<glyph unicode="." horiz-adv-x="530" d="M72 150v32q0 85 40.5 125.5t125.5 40.5h47q89 0 129.5 -40.5t40.5 -125.5v-32q0 -85 -41 -125.5t-129 -40.5h-47q-166 0 -166 166z" />
<glyph unicode="/" horiz-adv-x="782" d="M-78 -440l570 1779h329l-569 -1779h-330z" />
<glyph unicode="0" horiz-adv-x="1337" d="M55 600v125q0 289 164 459t451 170t449.5 -169t162.5 -458v-127q0 -290 -163 -459.5t-449 -169.5q-289 0 -452 168.5t-163 460.5zM467 565q0 -264 203 -264q200 0 200 262v201q0 266 -200 266q-103 0 -153 -65.5t-50 -200.5v-199z" />
<glyph unicode="1" horiz-adv-x="1024" d="M38 929q-5 43 7.5 81.5t36.5 58.5q281 102 506 260h299v-1329h-404v860q-139 -104 -250 -104q-62 0 -106.5 26t-64 65t-24.5 82z" />
<glyph unicode="2" horiz-adv-x="1181" d="M57 0v276q0 66 26 127t65 105.5t97 86.5t108 69t112 55q26 12 63 28.5t59 26.5t49.5 23.5t43 24t30 24.5t21 29t6.5 32q0 127 -168 127q-98 0 -161.5 -61t-79.5 -146q0 -1 -14.5 -1.5t-38 1.5t-51.5 7.5t-56.5 19t-52 32.5t-38 51t-14.5 73q0 152 141.5 249t389.5 97 q260 0 400.5 -113.5t140.5 -316.5q0 -73 -21 -132.5t-51.5 -98.5t-83 -74t-96 -55t-111.5 -46q-146 -54 -219.5 -93t-108.5 -99h674v-326l-813 -2h-248z" />
<glyph unicode="3" horiz-adv-x="1198" d="M0 240l240 217q60 -92 138 -135t183 -43q95 0 148 37t53 100q0 121 -156 121h-219v288h246q53 0 84 27t31 72q0 57 -53 90t-146 33q-62 0 -110.5 -16t-78 -43t-46.5 -56t-27 -62q-1 -6 -25 -7.5t-59 6.5t-69.5 26.5t-58.5 60t-24 99.5q0 130 138 214.5t368 84.5 q279 0 425 -95t146 -278q0 -194 -237 -266q126 -41 192 -126t66 -206q0 -199 -148.5 -305.5t-435.5 -106.5q-200 0 -345 75.5t-220 193.5z" />
<glyph unicode="4" horiz-adv-x="1320" d="M29 455v57q0 45 14.5 86t50.5 102l465 625h500v-747h225v-289h-225v-289h-373v289h-440q-101 0 -159 46t-58 120zM371 578h331v491z" />
<glyph unicode="5" horiz-adv-x="1159" d="M29 227q0 50 35.5 98.5t72 72.5t43.5 18q148 -154 359 -154q105 0 164 42.5t59 117.5q0 156 -223 156q-139 0 -232 -68q-119 2 -178 54.5t-59 174.5v586h993v-324h-660v-196q101 33 205 33q234 0 371 -112t137 -310q0 -204 -152 -324.5t-415 -120.5q-241 0 -380.5 75.5 t-139.5 180.5z" />
<glyph unicode="6" horiz-adv-x="1273" d="M55 608v99q0 300 171 473.5t470 173.5q229 0 357.5 -77.5t128.5 -207.5q0 -45 -20 -79.5t-48 -51.5t-56.5 -27t-48.5 -12t-22 0q-80 135 -256 135q-137 0 -201.5 -71t-70.5 -222q131 111 336 111q202 0 320 -101t118 -292v-10q0 -214 -156.5 -346t-408.5 -132 q-285 0 -449 172t-164 465zM467 506q6 -112 57.5 -173t139.5 -61q77 0 127.5 41.5t50.5 110.5v6q0 72 -47.5 111t-132.5 39q-105 0 -195 -74z" />
<glyph unicode="7" horiz-adv-x="1150" d="M33 993v332h1085v-233q0 -22 -5 -46.5t-15.5 -51t-19.5 -48t-25 -50.5t-24.5 -43.5t-25.5 -42t-20 -32.5l-369 -653q-84 -143 -208 -143q-38 0 -76.5 12t-67 30.5t-50.5 38t-32 36t-6 24.5l502 870h-643z" />
<glyph unicode="8" horiz-adv-x="1271" d="M45 367q0 231 256 313q-217 78 -217 293q0 173 153.5 280t401.5 107q249 0 394 -104t145 -283q0 -211 -211 -289q258 -81 258 -317q0 -182 -158 -287t-434 -105q-280 0 -434 103t-154 289zM444 408q0 -67 52.5 -108.5t140.5 -41.5q87 0 138.5 41.5t51.5 108.5 q0 68 -52 110.5t-140 42.5q-87 0 -139 -42t-52 -111zM461 932q0 -62 49 -100.5t127 -38.5q75 0 123.5 39t48.5 100q0 62 -48 101.5t-126 39.5t-126 -39t-48 -102z" />
<glyph unicode="9" horiz-adv-x="1273" d="M41 866v4q0 216 156 350t409 134q281 0 447 -170t166 -465v-113q0 -308 -169.5 -472.5t-482.5 -164.5q-232 0 -354.5 65.5t-122.5 178.5q0 45 12 81.5t28.5 57.5t34.5 34.5t31 17.5t17 2q135 -117 319 -117q145 0 213.5 71t69.5 226q-57 -51 -143.5 -83t-192.5 -32 q-202 0 -320 101.5t-118 293.5zM430 895q0 -72 47.5 -111t134.5 -39q101 0 193 72q-6 114 -57.5 175t-139.5 61q-76 0 -127 -44t-51 -114z" />
<glyph unicode=":" horiz-adv-x="544" d="M78 150v32q0 166 168 166h47q88 0 129 -40.5t41 -125.5v-32q0 -85 -41 -125.5t-129 -40.5h-47q-168 0 -168 166zM78 727v33q0 168 168 168h47q87 0 128.5 -41.5t41.5 -126.5v-33q0 -85 -41 -125.5t-129 -40.5h-47q-168 0 -168 166z" />
<glyph unicode=";" horiz-adv-x="544" d="M10 -170l86 360q9 45 19.5 72t30 49t50.5 31.5t78 9.5h41q154 0 154 -162v-16q0 -90 -88 -188l-221 -224zM78 727v33q0 168 168 168h47q87 0 128.5 -41.5t41.5 -126.5v-33q0 -85 -41 -125.5t-129 -40.5h-47q-168 0 -168 166z" />
<glyph unicode="&#x3c;" horiz-adv-x="927" d="M86 391v258l684 375q9 3 30.5 -21t41.5 -69t20 -90q4 -128 -145 -197l-256 -125l256 -127q147 -70 147 -194q-1 -46 -21.5 -91.5t-42 -69.5t-30.5 -20z" />
<glyph unicode="=" horiz-adv-x="1093" d="M80 98v330h934v-330h-934zM80 612v330h934v-330h-934z" />
<glyph unicode="&#x3e;" horiz-adv-x="927" d="M63 201q0 123 148 194l256 127l-256 125q-149 69 -145 197q0 45 20 90t41.5 69t30.5 21l682 -375v-258l-682 -371q-9 -4 -31.5 20t-43 69.5t-20.5 91.5z" />
<glyph unicode="?" horiz-adv-x="1069" d="M29 1016q0 140 135 239t366 99q238 0 373 -104t135 -285q0 -80 -26.5 -140.5t-66.5 -94t-88 -63t-90.5 -50t-74.5 -52.5t-39 -71l-18 -66h-299q-4 86 -4 135q1 60 20 106.5t48.5 75t65 50t70.5 36t64.5 29t47.5 34t18 44.5q0 46 -37 73t-103 27q-102 0 -164 -59.5 t-73 -144.5q0 -2 -27 -3t-65 6t-76 23.5t-65 57t-27 98.5zM303 150v32q0 166 168 166h47q88 0 129 -40.5t41 -125.5v-32q0 -85 -42 -125.5t-128 -40.5h-47q-168 0 -168 166z" />
<glyph unicode="@" horiz-adv-x="1507" d="M66 664q0 198 88.5 355.5t248 246t361.5 88.5q131 0 241.5 -31t190.5 -86.5t136.5 -131t84 -165t27.5 -188.5q0 -198 -95 -303t-272 -105q-82 0 -141 33t-86 90q-20 -57 -72.5 -92t-118.5 -35q-125 0 -195.5 87t-70.5 218q0 138 75 224.5t191 86.5q113 0 181 -98 q31 92 137 92q22 0 42.5 -5.5t32 -12t11.5 -10.5v-299q0 -70 23.5 -96.5t70.5 -26.5q59 0 101 59t42 189q0 76 -19 144t-61 128.5t-103.5 105t-152 70t-200.5 25.5q-162 0 -288.5 -72t-196.5 -198.5t-70 -286.5q0 -161 69 -288.5t195.5 -199.5t288.5 -72q222 0 368 136 q34 30 68 30q26 0 47.5 -21t31 -41.5t5.5 -23.5q-92 -100 -225.5 -156.5t-294.5 -56.5q-205 0 -364 88t-245.5 245.5t-86.5 359.5zM621 645q0 -53 30 -86t76 -33q45 0 72.5 25t27.5 67v95q-33 57 -98 57q-49 0 -78.5 -34.5t-29.5 -90.5z" />
<glyph unicode="A" horiz-adv-x="1460" d="M-10 0l512 1325h432l536 -1325h-428l-108 274h-428l-107 -274h-409zM582 569h268l-133 361z" />
<glyph unicode="B" horiz-adv-x="1351" d="M92 0v1325h686q233 0 356 -86t123 -246q0 -219 -241 -276q146 -34 217.5 -120.5t71.5 -213.5q0 -200 -136.5 -291.5t-439.5 -91.5h-637zM498 293h182q108 0 155.5 31.5t47.5 103.5q0 66 -49 95.5t-158 29.5h-178v-260zM498 791h157q181 0 181 127q0 116 -174 116h-164 v-243z" />
<glyph unicode="C" horiz-adv-x="1345" d="M59 664q0 149 50.5 277t140.5 219t219.5 142.5t282.5 51.5q232 0 384 -91.5t152 -232.5q0 -37 -13.5 -69t-35 -54t-48 -40t-53 -27.5t-49 -16.5t-37 -6t-16.5 2q-80 160 -264 160q-129 0 -210 -86t-81 -229q0 -142 82.5 -230t210.5 -88q93 0 160 39t125 107l260 -218 q-37 -63 -86 -114t-117.5 -95.5t-162 -69t-203.5 -24.5q-152 0 -281.5 51.5t-219 142.5t-140 219.5t-50.5 279.5z" />
<glyph unicode="D" horiz-adv-x="1413" d="M92 0v1325h565q327 0 516 -176t189 -479q0 -307 -193 -488.5t-520 -181.5h-557zM500 348h139q145 0 231 85t86 235q0 147 -83.5 228t-227.5 81h-145v-629z" />
<glyph unicode="E" horiz-adv-x="1261" d="M92 0v1325h1098v-184q0 -170 -191 -170h-495v-133h516v-332h-516v-154h694v-352h-1106z" />
<glyph unicode="F" horiz-adv-x="1169" d="M92 0v1325h1038v-176q0 -170 -188 -170h-444v-215h489v-330h-475v-434h-420z" />
<glyph unicode="G" horiz-adv-x="1490" d="M59 664q0 149 52.5 276.5t146 219t229.5 143t297 51.5q244 0 384.5 -86t140.5 -221q0 -41 -20.5 -77t-49 -56t-59 -35.5t-51 -17t-25.5 0.5q-54 68 -131 105t-164 37q-143 0 -239.5 -101t-96.5 -260q0 -161 89 -259.5t229 -98.5q108 0 176.5 47t83.5 127h-314v301h678 v-729q0 -6 -18 -15.5t-51.5 -17.5t-67.5 -8q-162 0 -203 157q-118 -167 -385 -167q-188 0 -332.5 88t-221.5 243t-77 353z" />
<glyph unicode="H" horiz-adv-x="1433" d="M92 0v1325h414v-487h424v487h411v-1325h-411v494h-424v-494h-414z" />
<glyph unicode="I" horiz-adv-x="626" d="M106 0v1325h412v-1325h-412z" />
<glyph unicode="J" horiz-adv-x="1101" d="M31 236q0 43 13.5 80t32.5 60t39 39t34 22t16 3q98 -121 242 -121q95 0 136.5 48t41.5 165v793h411v-799q0 -283 -132.5 -419t-395.5 -136q-211 0 -324.5 70t-113.5 195z" />
<glyph unicode="K" horiz-adv-x="1396" d="M92 0v1325h412v-563l399 563h481l-469 -635l474 -565q0 -12 -16.5 -36t-46 -51t-79.5 -47t-106 -20q-76 0 -146.5 33.5t-120.5 104.5l-370 462v-571h-412z" />
<glyph unicode="L" horiz-adv-x="1130" d="M92 0v1325h412v-983h583v-342h-995z" />
<glyph unicode="M" horiz-adv-x="1581" d="M92 0v1325h440l259 -631l258 631h438v-1325h-387v748l-137 -390q-1 -2 -5.5 -16.5t-6 -17t-7.5 -14.5t-11 -15t-14.5 -11.5t-21 -11t-27.5 -7t-36.5 -6t-45.5 -1.5q-32 0 -56.5 2.5t-41 8.5t-27 11t-18.5 16.5t-11.5 18t-9 21.5t-8.5 22l-137 373v-731h-387z" />
<glyph unicode="N" horiz-adv-x="1439" d="M92 0v1325h326l543 -704v704h385v-1325h-312l-555 709v-709h-387z" />
<glyph unicode="O" horiz-adv-x="1501" d="M51 664q0 198 89.5 355.5t250 246t361.5 88.5t360.5 -88.5t248.5 -246t89 -355.5q0 -199 -89 -357.5t-249 -247t-362 -88.5q-151 0 -281 51.5t-222 142.5t-144 220t-52 279zM457 664q0 -148 80.5 -237t214.5 -89q132 0 212 89t80 237q0 147 -80.5 237t-213.5 90 q-134 0 -213.5 -88.5t-79.5 -238.5z" />
<glyph unicode="P" horiz-adv-x="1257" d="M92 0v1325h561q286 0 436 -122t150 -359q0 -235 -145.5 -354t-427.5 -119h-160v-371h-414zM500 672h149q93 0 142 44t49 126q0 85 -50 129.5t-147 44.5h-143v-344z" />
<glyph unicode="Q" horiz-adv-x="1507" d="M51 664q0 198 90 355.5t251 246t362 88.5q202 0 362.5 -88t250 -245.5t89.5 -356.5q0 -204 -121 -381l162 -177q1 -1 1 -2q0 -5 -7 -16q-9 -14 -29 -34t-47 -38.5t-66.5 -31.5t-80.5 -13q-95 0 -193 80q-151 -80 -321 -80q-152 0 -282.5 51.5t-223 142.5t-145 220 t-52.5 279zM457 659q0 -141 83.5 -232t213.5 -91q55 0 108 16l-209 236h406q6 38 6 76q0 143 -84 235t-219 92q-139 0 -222 -92.5t-83 -239.5z" />
<glyph unicode="R" horiz-adv-x="1331" d="M92 0v1325h621q273 0 413 -117.5t140 -333.5q0 -142 -71 -244.5t-204 -146.5l299 -366q2 -2 2 -5q0 -6 -4 -16q-6 -16 -25 -36t-45.5 -39.5t-69.5 -32.5t-93 -13q-91 0 -149.5 40t-127.5 135l-209 278h-65v-428h-412zM498 705h172q91 0 137.5 39.5t46.5 113.5 q0 156 -188 156h-168v-309z" />
<glyph unicode="S" horiz-adv-x="1204" d="M18 170l160 272q107 -77 199 -117t196 -40q185 0 185 104q0 13 -3.5 24.5t-12.5 21t-17.5 17t-25.5 14t-29 11t-35 10.5t-36.5 9t-42 9t-42.5 9q-74 15 -132 33t-119 50.5t-101 74t-66 105.5t-26 143q0 208 146 321t419 113q246 0 373 -72.5t127 -179.5 q0 -32 -14.5 -65.5t-35 -58.5t-41.5 -45t-36.5 -29.5t-18.5 -6.5q-70 65 -161 104t-189 39q-178 0 -178 -104q0 -12 3.5 -22.5t12 -19t17 -15.5t24.5 -13t28.5 -10t35 -9t38 -8.5t43 -8.5t44.5 -9q105 -23 183.5 -54.5t144.5 -80.5t101 -121t35 -166q0 -206 -148.5 -317 t-438.5 -111q-92 0 -176 17t-156 48.5t-123.5 61.5t-110.5 72z" />
<glyph unicode="T" horiz-adv-x="1267" d="M35 985v340h1206v-123q0 -128 -45.5 -172.5t-169.5 -44.5h-182v-985h-412v985h-397z" />
<glyph unicode="U" horiz-adv-x="1390" d="M88 582v743h412v-745q0 -246 196 -246q100 0 147.5 60.5t47.5 187.5v743h412v-743q0 -299 -154 -450.5t-455 -151.5t-453.5 151.5t-152.5 450.5z" />
<glyph unicode="V" horiz-adv-x="1390" d="M-16 1325h479l244 -752l239 752h461l-537 -1325h-340z" />
<glyph unicode="W" horiz-adv-x="2013" d="M29 1325h477l147 -784l140 516q17 76 78 118t147 42q79 0 140.5 -44.5t78.5 -115.5l139 -516l146 784h460l-383 -1325h-393l-196 692l-191 -692h-397z" />
<glyph unicode="X" horiz-adv-x="1404" d="M-12 0l452 672l-434 653h492l209 -369l213 369h479l-430 -663l448 -662h-491l-230 393l-229 -393h-479z" />
<glyph unicode="Y" horiz-adv-x="1339" d="M-31 1325h461l244 -446l248 446h450l-493 -803v-522h-412v522z" />
<glyph unicode="Z" horiz-adv-x="1271" d="M53 0v268l133 148l488 569h-586v340h1131v-270q-120 -130 -132 -144l-499 -571h626v-340h-1161z" />
<glyph unicode="[" horiz-adv-x="831" d="M94 -408v1756h705v-314h-342v-1130h342v-312h-705z" />
<glyph unicode="\" horiz-adv-x="782" d="M-39 1339h328l569 -1779h-330z" />
<glyph unicode="]" horiz-adv-x="831" d="M31 -96h346v1130h-346v314h706v-1756h-706v312z" />
<glyph unicode="^" horiz-adv-x="1024" d="M168 1022q0 55 60 123.5t139.5 119.5t144.5 68q65 -17 144.5 -68t139.5 -119.5t60 -123.5q0 -46 -42.5 -86.5t-94.5 -40.5q-55 0 -112 52t-95 140q-39 -88 -95.5 -140t-111.5 -52q-52 0 -94.5 40.5t-42.5 86.5z" />
<glyph unicode="_" horiz-adv-x="1056" d="M33 0h991v-285h-991v285z" />
<glyph unicode="`" horiz-adv-x="1024" d="M170 1372q0 64 51.5 108t126.5 44q51 0 109 -33q63 -37 120.5 -111.5t85 -137.5t17.5 -81q-8 -14 -46 -25t-91 -14.5t-123 11.5t-131 49q-55 30 -87 82.5t-32 107.5z" />
<glyph unicode="a" d="M45 506q0 244 127 387t340 143q106 0 190 -47t123 -123q50 160 224 160q37 0 73 -8.5t56 -19t20 -17.5v-981h-393v154q-41 -85 -118.5 -134t-178.5 -49q-208 0 -335.5 148.5t-127.5 386.5zM418 504q0 -101 55.5 -164.5t144.5 -63.5q82 0 135.5 49t53.5 130v157 q-53 119 -184 119q-93 0 -149 -61t-56 -166z" />
<glyph unicode="b" d="M90 0v1397q0 7 20.5 17.5t57.5 19t74 8.5q36 0 68.5 -8t65 -28.5t55.5 -53t37.5 -86.5t14.5 -123v-252q46 68 124 106.5t171 38.5q212 0 338.5 -142.5t126.5 -387.5q0 -237 -128 -386t-337 -149q-102 0 -181.5 49.5t-115.5 129.5v-150h-391zM481 457q0 -83 53 -132 t136 -49q91 0 145.5 62.5t54.5 165.5q0 104 -53.5 165.5t-144.5 61.5q-66 0 -116 -32t-75 -87v-155z" />
<glyph unicode="c" horiz-adv-x="1048" d="M45 506q0 231 152 379.5t389 148.5q115 0 203.5 -25.5t137.5 -67t73 -88.5t24 -97q0 -36 -11.5 -65t-30 -47.5t-41 -32t-45.5 -19.5t-42.5 -8.5t-32 -1.5t-14.5 4q-21 66 -71.5 104.5t-127.5 38.5q-92 0 -151.5 -63.5t-59.5 -159.5q0 -100 59 -165t152 -65q73 0 124 36 t77 96l246 -170q-153 -267 -469 -267q-242 0 -391.5 148.5t-149.5 386.5z" />
<glyph unicode="d" d="M45 506q0 244 127 387t340 143q93 0 170.5 -37t122.5 -100v498q0 7 20.5 17.5t57 19t73.5 8.5q46 0 86 -13.5t76.5 -45t58 -93t21.5 -147.5v-1143h-391v158q-41 -87 -119 -137t-180 -50q-208 0 -335.5 148.5t-127.5 386.5zM418 504q0 -101 55.5 -164.5t144.5 -63.5 q82 0 135.5 49t53.5 130v159q-54 117 -184 117q-93 0 -149 -61t-56 -166z" />
<glyph unicode="e" horiz-adv-x="1153" d="M45 496q0 154 69 277t193 193t279 70q232 0 380 -142.5t148 -363.5v-24q-3 -103 -80 -103h-641q18 -78 79.5 -118.5t156.5 -40.5q158 0 237 114l228 -161q-149 -226 -480 -226q-262 0 -415.5 141.5t-153.5 383.5zM387 606h373q-3 79 -50 126.5t-128 47.5 q-77 0 -131.5 -49t-63.5 -125z" />
<glyph unicode="f" horiz-adv-x="851" d="M16 727v289h191v26q0 201 98.5 305.5t288.5 104.5q143 0 217 -60.5t74 -142.5q0 -38 -18 -76.5t-36 -58.5t-22 -16q-53 49 -125 49q-51 0 -75.5 -27t-24.5 -88v-16h235v-289h-219v-727h-393v727h-191z" />
<glyph unicode="g" d="M45 549q0 217 128 352t335 135q106 0 191 -39.5t132 -105.5q31 71 90.5 102t125.5 31q34 0 71 -8t58.5 -17.5t21.5 -15.5v-848q0 -275 -145 -404.5t-453 -129.5q-233 0 -358 82.5t-125 201.5q0 51 34 94t68.5 61.5t40.5 12.5q53 -67 126.5 -102t184.5 -35 q119 0 176.5 50.5t57.5 154.5v88q-113 -152 -305 -152q-210 0 -332.5 131t-122.5 361zM418 545q0 -88 53.5 -140.5t142.5 -52.5q84 0 138.5 46t54.5 122v123q-30 44 -79.5 69t-109.5 25q-90 0 -145 -53.5t-55 -138.5z" />
<glyph unicode="h" horiz-adv-x="1241" d="M90 0v1397q0 7 20.5 17.5t57.5 19t74 8.5q36 0 68.5 -8t65 -28.5t55.5 -53t37.5 -86.5t14.5 -123v-289q107 182 318 182q77 0 138.5 -22.5t102.5 -61t68 -92t39 -113t12 -126.5v-621h-393v557q0 75 -34.5 117.5t-94.5 42.5q-75 0 -115.5 -44t-40.5 -122v-551h-393z" />
<glyph unicode="i" horiz-adv-x="585" d="M84 1309q0 87 57 143.5t150 56.5q97 0 155 -56t58 -144t-56.5 -145.5t-150.5 -57.5q-96 0 -154.5 57.5t-58.5 145.5zM96 0v1016h393v-1016h-393z" />
<glyph unicode="j" horiz-adv-x="585" d="M-160 -209q0 38 18.5 74.5t36.5 55.5t21 16q34 -43 98 -43q82 0 82 92v1030h393v-1051q0 -180 -96 -277.5t-274 -97.5q-134 0 -206.5 50.5t-72.5 150.5zM84 1309q0 87 57 143.5t150 56.5q97 0 155 -56t58 -144t-56.5 -145.5t-150.5 -57.5q-96 0 -154.5 57.5t-58.5 145.5z " />
<glyph unicode="k" horiz-adv-x="1163" d="M90 0v1397q0 7 20.5 17.5t57.5 19t74 8.5q36 0 68.5 -8t65 -28.5t55.5 -53t37.5 -86.5t14.5 -123v-527l240 400h438l-332 -492l361 -524h-453l-254 410v-410h-393z" />
<glyph unicode="l" horiz-adv-x="585" d="M96 0v1397q0 7 20.5 17.5t57.5 19t74 8.5q36 0 68.5 -8t65 -28.5t55.5 -53t37.5 -86.5t14.5 -123v-1143h-393z" />
<glyph unicode="m" horiz-adv-x="1861" d="M90 0v981q0 7 20.5 17.5t57.5 19t74 8.5q178 0 225 -174q58 88 133 136t184 48q244 0 316 -202q39 63 81 104.5t107 69.5t146 28q94 0 163.5 -30t108.5 -84.5t57.5 -122.5t18.5 -152v-647h-393v575q0 142 -121 142q-85 0 -135 -74v-643h-394v573q0 144 -121 144 q-85 0 -135 -74v-643h-393z" />
<glyph unicode="n" horiz-adv-x="1241" d="M90 0v981q0 7 20.5 17.5t57.5 19t74 8.5q77 0 138 -40.5t87 -135.5q59 89 138.5 137.5t195.5 48.5q77 0 138.5 -21.5t102.5 -58.5t68 -89t39 -109.5t12 -122.5v-635h-393v567q0 69 -35 109.5t-96 40.5q-100 0 -154 -82v-635h-393z" />
<glyph unicode="o" horiz-adv-x="1200" d="M45 506q0 238 153.5 384t405.5 146q249 0 400 -146t151 -386q0 -243 -152.5 -388t-404.5 -145q-253 0 -403 145t-150 390zM379 506q0 -103 61.5 -168.5t159.5 -65.5q95 0 158 66t63 166q0 103 -62 168t-159 65t-159 -65t-62 -166z" />
<glyph unicode="p" d="M90 -385v1366q0 7 20.5 17.5t57.5 19t74 8.5q80 0 142 -42t85 -142q36 89 118 141.5t191 52.5q212 0 338.5 -142.5t126.5 -387.5q0 -237 -128 -386t-337 -149q-100 0 -178.5 48.5t-116.5 127.5v-532h-393zM481 457q0 -83 53 -132t136 -49q91 0 145.5 62.5t54.5 165.5 q0 104 -53.5 165.5t-144.5 61.5q-66 0 -116 -32t-75 -87v-155z" />
<glyph unicode="q" d="M45 506q0 244 127 387t340 143q105 0 189.5 -47.5t123.5 -124.5q50 162 224 162q37 0 73 -8.5t56 -19t20 -17.5v-1366h-393v539q-41 -85 -118.5 -134t-178.5 -49q-208 0 -335.5 148.5t-127.5 386.5zM418 504q0 -101 55.5 -164.5t144.5 -63.5q81 0 135 49.5t54 131.5v157 q-54 117 -184 117q-93 0 -149 -61t-56 -166z" />
<glyph unicode="r" horiz-adv-x="956" d="M90 0v981q0 7 20.5 17.5t57.5 19t74 8.5q78 0 139.5 -41.5t87.5 -138.5q28 88 91.5 139t152.5 51q98 0 156.5 -57.5t58.5 -153.5q0 -44 -13 -82t-31.5 -60.5t-37.5 -38.5t-32 -22t-15 -4q-61 54 -142 54q-174 0 -174 -250v-422h-393z" />
<glyph unicode="s" horiz-adv-x="1007" d="M18 115l148 231q48 -34 78.5 -52t86.5 -35t120 -17q65 0 94.5 11t29.5 40q0 8 -2 14.5t-7.5 12t-11 10t-15.5 8t-18.5 6.5t-23 6t-25 5t-29.5 5.5t-31 6.5q-135 31 -197 62q-163 84 -164 261q0 158 118.5 251t330.5 93q215 0 324.5 -60.5t109.5 -170.5q0 -26 -10.5 -52 t-25.5 -45t-31 -34t-27.5 -22t-14.5 -5q-56 56 -136 90.5t-159 34.5q-61 0 -90.5 -12t-29.5 -43q0 -14 7.5 -23t25.5 -15.5t35 -10.5t51 -10.5t57 -12.5q34 -8 47.5 -11t51 -13.5t56.5 -18t52.5 -23.5t52.5 -31.5t43.5 -39t37 -49.5t22 -61t9.5 -74q0 -163 -122.5 -252.5 t-354.5 -89.5q-171 0 -277 35.5t-186 99.5z" />
<glyph unicode="t" horiz-adv-x="899" d="M29 727v289h172v278h385v-278h262v-289h-270v-342q0 -102 86 -102q65 0 112 61q4 6 24.5 -13t41 -60t20.5 -85q0 -98 -83 -156.5t-222 -58.5q-356 0 -356 365v391h-172z" />
<glyph unicode="u" horiz-adv-x="1241" d="M80 373v643h393v-574q0 -69 35 -109t98 -40q48 0 88 22t64 58v643h393v-981q0 -6 -20.5 -16.5t-57.5 -19.5t-74 -9q-49 0 -90 14t-79.5 54t-55.5 104q-60 -90 -139.5 -140.5t-194.5 -50.5q-95 0 -167 33t-113 90.5t-60.5 127t-19.5 151.5z" />
<glyph unicode="v" horiz-adv-x="1200" d="M4 1016h397l201 -606l205 606h393l-424 -1016h-348z" />
<glyph unicode="w" horiz-adv-x="1656" d="M0 1016h418l106 -619l129 426q41 144 189 144q154 0 190 -144l113 -405l110 598h402l-307 -1016h-353l-168 512l-159 -512h-359z" />
<glyph unicode="x" horiz-adv-x="1169" d="M6 0l334 508l-334 508h408l170 -309l172 309h405l-334 -508l332 -508h-407l-170 309l-170 -309h-406z" />
<glyph unicode="y" horiz-adv-x="1167" d="M0 1016h403l205 -608l168 608h393l-471 -1247q-39 -97 -97.5 -137t-147.5 -40q-37 0 -69.5 9.5t-53.5 24t-36 30t-21 28.5t-3 19l152 332z" />
<glyph unicode="z" horiz-adv-x="1040" d="M47 0v236q0 3 15.5 20t33.5 36.5t21 22.5l366 406h-415v295h909v-230q0 -9 -72 -84l-379 -405h461v-297h-940z" />
<glyph unicode="{" horiz-adv-x="1017" d="M43 309v324l242 133q14 126 50 227t84.5 166.5t110 109.5t125 62.5t131.5 18.5q91 0 150 -47t59 -125q0 -36 -15 -66.5t-30 -43.5t-22 -13q-154 -10 -218 -112t-75 -333l-242 -139l242 -141q11 -231 74 -332t217 -111q5 0 16 -8.5t23 -23t21 -39t9 -52.5q0 -78 -59 -126 t-150 -48q-87 0 -165.5 31.5t-149 97.5t-120.5 182.5t-68 272.5z" />
<glyph unicode="|" horiz-adv-x="593" d="M100 -399v1740h394v-1740h-394z" />
<glyph unicode="}" horiz-adv-x="1017" d="M20 1178q0 78 60 125t151 47q68 0 131.5 -18.5t125.5 -62.5t110.5 -109.5t84.5 -166.5t50 -227l240 -133v-324l-238 -135q-15 -126 -51 -226.5t-84.5 -166t-110.5 -109.5t-125.5 -63t-132.5 -19q-91 0 -149.5 48t-58.5 126q0 28 9 52.5t21 39t23 23t16 8.5 q153 10 216.5 111.5t74.5 331.5l242 141l-242 139q-12 231 -75.5 333t-217.5 112q-7 0 -22.5 13t-31.5 43.5t-16 66.5z" />
<glyph unicode="~" horiz-adv-x="1021" d="M139 446q0 102 62 165t147 63q150 0 275 -125q20 55 54 88t79 33q56 0 91.5 -37.5t35.5 -91.5q0 -102 -62 -165t-149 -63q-148 0 -275 127q-18 -56 -52 -89.5t-81 -33.5q-56 0 -90.5 37.5t-34.5 91.5z" />
<glyph unicode="&#xa1;" horiz-adv-x="608" d="M45 0l168 874h178l170 -874h-516zM111 1143v35q0 165 172 165h47q166 0 166 -165v-35q0 -85 -40.5 -125.5t-125.5 -40.5h-47q-89 0 -130.5 40.5t-41.5 125.5z" />
<glyph unicode="&#xa2;" horiz-adv-x="1069" d="M25 580q0 195 104.5 331.5t282.5 188.5v254h358v-242q139 -24 210 -88t71 -158q0 -30 -11 -56t-28.5 -43.5t-39 -32t-42.5 -22t-40 -13t-30.5 -4.5t-13.5 3q-43 65 -92.5 94t-128.5 29q-101 0 -165.5 -66.5t-64.5 -172.5q0 -109 66 -176.5t170 -67.5q140 0 215 123 q4 1 25 0t52.5 -15t61.5 -31.5t51 -49t21 -68.5q-3 -93 -76.5 -158.5t-210.5 -91.5v-246h-358v254q-182 48 -284.5 185t-102.5 340z" />
<glyph unicode="&#xa3;" horiz-adv-x="1273" d="M39 0v309h178l33 180h-150v277h199l29 162q38 212 163.5 319t323.5 107q193 0 305.5 -77t112.5 -208q0 -41 -12 -74t-31 -52t-42.5 -32.5t-46.5 -19t-42 -7.5t-31 -1t-12 2q-14 77 -57 117t-125 40q-73 0 -114 -38.5t-58 -126.5l-21 -111h309v-277h-358l-31 -180h662 v-309h-1184z" />
<glyph unicode="&#xa4;" horiz-adv-x="1298" d="M33 408v223h160v61h-160v223h180q49 207 205.5 323t384.5 116q212 0 335.5 -77.5t123.5 -201.5q0 -37 -18 -70.5t-44 -55.5t-52.5 -37.5t-46.5 -21t-24 -1.5q-59 70 -116.5 100.5t-149.5 30.5q-143 0 -203 -105h359v-223h-394v-61h291v-223h-254q62 -105 203 -105 q93 0 150.5 32t115.5 105q4 4 24 -2t46.5 -21.5t52.5 -37.5t44 -56t18 -71q0 -51 -26 -99t-78.5 -89.5t-143.5 -67t-209 -25.5q-231 0 -388 114.5t-206 322.5h-180z" />
<glyph unicode="&#xa5;" horiz-adv-x="1318" d="M2 1325h461l201 -430l206 430h449l-348 -557h250v-244h-377v-75h377v-244h-377v-205h-363v205h-383v244h383v75h-383v244h252q1 0 -86 139t-174 279z" />
<glyph unicode="&#xa7;" horiz-adv-x="1230" d="M45 426q0 97 55 169.5t160 113.5q-154 84 -154 252q0 180 138.5 286.5t380.5 106.5q106 0 190 -15.5t135 -39.5t84.5 -57t46.5 -65t13 -65q0 -29 -12 -57.5t-29.5 -48.5t-36 -35t-31.5 -21.5t-16 -3.5q-69 63 -153 99t-167 36q-153 0 -153 -84q0 -14 7.5 -26t26.5 -22.5 t36 -18t52.5 -17t58.5 -15t70 -16.5q4 -1 7 -1.5t6 -1.5q49 -12 85 -22.5t83.5 -28t81 -36t69 -45.5t57.5 -58t36 -72t14 -89q0 -195 -209 -282q151 -81 151 -254q0 -179 -147.5 -286t-407.5 -107q-248 0 -373.5 69t-125.5 187q0 25 11 51t26.5 45t32.5 33.5t29.5 20.5 t16.5 3q61 -57 178.5 -96t211.5 -39q84 0 121.5 20.5t37.5 63.5q0 21 -12.5 36.5t-48 29t-59.5 20t-87 21.5q-3 1 -5 1.5t-5 1t-6 1.5q-56 13 -90 21.5t-89.5 26t-90.5 34.5t-77 45t-66.5 59.5t-41 76t-16.5 95.5zM381 487q0 -17 5 -31.5t18 -26.5t24.5 -21t35.5 -18 t40 -14.5t49 -12.5t51 -11t57 -11t58 -11q63 15 97 49.5t34 79.5q0 36 -19.5 62t-72 45t-87 27t-118.5 25q-9 2 -14 3q-73 -15 -115.5 -52t-42.5 -82z" />
<glyph unicode="&#xa8;" horiz-adv-x="1024" d="M100 1288q0 84 48.5 132t127.5 48q87 0 137 -47.5t50 -132.5t-48.5 -132.5t-129.5 -47.5q-86 0 -135.5 47t-49.5 133zM563 1288q0 84 48 132t130 48q84 0 133.5 -47.5t49.5 -132.5t-48 -132.5t-128 -47.5q-87 0 -136 46.5t-49 133.5z" />
<glyph unicode="&#xa9;" horiz-adv-x="1513" d="M68 664q0 148 51 276t141 219t218.5 143t279.5 52q201 0 358 -88t243.5 -245t86.5 -357q0 -199 -86 -356.5t-243.5 -247t-358.5 -89.5q-203 0 -360.5 88t-243.5 246t-86 359zM211 664q0 -243 152 -399t395 -156t394 155.5t151 399.5q0 158 -68.5 284t-194 197.5 t-284.5 71.5q-243 0 -394 -155t-151 -398zM393 662q0 163 108 268.5t275 105.5q160 0 242 -82q19 -21 27.5 -40t7.5 -48q0 -38 -28 -69t-56 -44t-33 -8q-33 40 -66.5 57t-83.5 17q-62 0 -104.5 -44.5t-42.5 -112.5q0 -70 42.5 -115t106.5 -45q94 0 152 80l160 -127 q-107 -172 -324 -172q-168 0 -275.5 106.5t-107.5 272.5z" />
<glyph unicode="&#xaa;" horiz-adv-x="933" d="M33 745q0 67 23 113t81 80.5t160.5 52t257.5 19.5q-6 116 -127 116q-34 0 -61.5 -10t-46 -29t-29 -35t-21.5 -38q0 -2 -21.5 -3t-52 4t-60.5 16.5t-51.5 39t-21.5 66.5q0 101 96 159t290 58q217 0 316 -86t99 -267v-483h-319q2 69 2 94q-89 -106 -242 -106 q-124 0 -198 66t-74 173zM287 131v31q0 76 37 112.5t114 36.5h41q79 0 116.5 -36t37.5 -113v-31q0 -149 -154 -149h-41q-151 0 -151 149zM330 776q0 -35 27 -54.5t71 -19.5q57 0 92 37t35 92v35q-123 -5 -174 -24.5t-51 -65.5z" />
<glyph unicode="&#xab;" horiz-adv-x="1128" d="M51 506q0 15 36 71t88 119.5t120.5 113.5t122.5 50h4q63 0 96 -35t33 -94v-6q0 -40 -40.5 -86t-88 -77.5t-96.5 -55.5q37 -20 71.5 -42.5t71.5 -52t59.5 -63t22.5 -63.5v-6q0 -57 -33 -92t-96 -35h-4q-44 0 -97.5 33t-99.5 81t-85.5 98.5t-62 90t-22.5 51.5zM535 506 q0 17 37.5 79t92 132.5t128 126t133.5 55.5h4q69 0 106 -39t37 -102v-8q0 -34 -25.5 -71.5t-66.5 -70t-81 -58t-79 -44.5q32 -17 62 -35t66 -44.5t62 -51.5t44 -55.5t18 -57.5v-10q0 -62 -37.5 -100.5t-105.5 -38.5h-4q-60 0 -133.5 55.5t-128 126t-92 132.5t-37.5 79z" />
<glyph unicode="&#xad;" horiz-adv-x="960" d="M72 326v358h817v-358h-817z" />
<glyph unicode="&#xae;" horiz-adv-x="1513" d="M68 664q0 148 51 276t141 219t218.5 143t279.5 52q201 0 358 -88t243.5 -245t86.5 -357q0 -199 -86 -356.5t-243.5 -247t-358.5 -89.5q-203 0 -360.5 88t-243.5 246t-86 359zM211 664q0 -243 152 -399t395 -156t394 155.5t151 399.5q0 158 -68.5 284t-194 197.5 t-284.5 71.5q-243 0 -394 -155t-151 -398zM442 301v727h342q318 0 318 -242q0 -74 -36 -127.5t-103 -78.5l143 -209q5 -7 -13.5 -27t-54.5 -37.5t-71 -17.5q-86 0 -136 90l-94 147h-55v-225h-240zM678 692h90q94 0 94 78t-98 78h-86v-156z" />
<glyph unicode="&#xaf;" horiz-adv-x="1024" d="M113 1251v17q0 61 43.5 97t115.5 36h480q74 0 116.5 -36t42.5 -97v-17q0 -63 -42 -98t-117 -35h-480q-74 0 -116.5 35t-42.5 98z" />
<glyph unicode="&#xb0;" horiz-adv-x="768" d="M41 1010v14q0 149 96 236.5t250 87.5q153 0 246.5 -87t93.5 -237v-14q0 -149 -94.5 -236.5t-247.5 -87.5q-155 0 -249.5 87t-94.5 237zM272 1001q0 -63 31.5 -97t81.5 -34t81.5 33t31.5 96v33q0 63 -32 97t-81 34q-52 0 -82.5 -32.5t-30.5 -98.5v-31z" />
<glyph unicode="&#xb1;" horiz-adv-x="1228" d="M88 195v18q0 58 40.5 94.5t115.5 36.5h739q76 0 116 -36.5t40 -94.5v-18q0 -61 -39.5 -97.5t-116.5 -36.5h-739q-76 0 -116 36.5t-40 97.5zM109 856v16q0 58 40 95t115 37h199v178q0 75 37 115t98 40h31q59 0 96 -40t37 -115v-178h201q76 0 115.5 -36.5t39.5 -95.5v-16 q0 -61 -39 -97t-116 -36h-201v-139q0 -77 -36.5 -116.5t-96.5 -39.5h-31q-61 0 -98 39.5t-37 116.5v139h-199q-76 0 -115.5 36t-39.5 97z" />
<glyph unicode="&#xb2;" horiz-adv-x="688" d="M43 707v49q0 41 11.5 73.5t27.5 54t48.5 43.5t60 35.5t77.5 34.5q20 9 48.5 20t43 17.5t30 15t22 17.5t6.5 20q0 30 -21.5 49t-58.5 19q-51 0 -84 -36.5t-41 -84.5q0 -1 -9 -1.5t-24 1t-32.5 5t-35 12.5t-32.5 21t-24 32t-9 45q0 89 80.5 141.5t224.5 52.5 q141 0 222 -65.5t81 -179.5q0 -51 -15.5 -89t-47 -63.5t-60.5 -40t-75 -31.5q-22 -8 -60.5 -20.5t-60.5 -20t-46 -20.5t-36 -29h283q62 0 91 -23t29 -71v-4q0 -52 -28.5 -76t-91.5 -24h-340q-93 0 -123.5 24t-30.5 97z" />
<glyph unicode="&#xb3;" horiz-adv-x="688" d="M20 741q0 36 15.5 62t38 37.5t45.5 16.5t39.5 4.5t17.5 -3.5q25 -102 143 -102q46 0 74.5 18.5t28.5 46.5q0 51 -66 51h-16q-62 0 -88.5 20t-26.5 62v15q0 84 113 84h33q21 0 34 11.5t13 29.5q0 27 -28 44t-75 17q-109 0 -133 -100q-5 -1 -38 -4t-71 28t-38 90 q0 79 78.5 126.5t212.5 47.5q323 0 323 -210q0 -113 -127 -152q135 -48 135 -182q0 -112 -83.5 -172t-245.5 -60q-138 0 -223 49t-85 125z" />
<glyph unicode="&#xb4;" horiz-adv-x="1024" d="M342 1161q-10 18 17.5 81t85 137.5t120.5 111.5q58 33 109 33q74 0 125 -44t51 -108q0 -55 -31.5 -107.5t-85.5 -82.5q-62 -34 -132 -49t-123 -11.5t-90.5 14.5t-45.5 25z" />
<glyph unicode="&#xb6;" horiz-adv-x="1282" d="M27 928q0 196 120.5 296.5t360.5 100.5h352v-1239q0 -51 -24.5 -77.5t-69.5 -26.5h-31q-47 0 -71.5 27t-24.5 77v455h-127q-236 0 -360.5 98.5t-124.5 288.5zM967 0v1325h223v-1325h-223z" />
<glyph unicode="&#xb7;" horiz-adv-x="536" d="M76 489v33q0 85 40.5 125.5t125.5 40.5h47q89 0 129.5 -40.5t40.5 -125.5v-33q0 -85 -41 -125t-129 -40h-47q-166 0 -166 165z" />
<glyph unicode="&#xb8;" horiz-adv-x="1024" d="M281 -395l69 198q20 61 55 85t123 24h41q156 0 156 -107v-10q0 -60 -94 -127l-154 -121q-41 -22 -89.5 -23t-83.5 23t-23 58z" />
<glyph unicode="&#xb9;" horiz-adv-x="688" d="M47 1155q0 24 7 45.5t17 35.5t20.5 24t18.5 13.5t11 2.5q41 -23 72 -23q38 0 66.5 22.5t37.5 61.5h80q115 0 115 -120v-420h47q118 0 118 -109v-2q0 -53 -28.5 -77.5t-89.5 -24.5h-365q-61 0 -90 24.5t-29 77.5v2q0 109 119 109h82v254q-44 -21 -78 -21q-54 0 -92.5 35.5 t-38.5 89.5z" />
<glyph unicode="&#xba;" horiz-adv-x="974" d="M43 926q0 183 125.5 305.5t320.5 122.5t319 -122t124 -304q0 -184 -126 -306t-321 -122q-197 0 -319.5 120.5t-122.5 305.5zM313 131v31q0 76 36.5 112.5t113.5 36.5h43q78 0 114.5 -36t36.5 -113v-31q0 -75 -36.5 -112t-114.5 -37h-43q-150 0 -150 149zM322 928 q0 -74 47.5 -125t117.5 -51t119 51t49 125q0 75 -48.5 126.5t-119.5 51.5q-70 0 -117.5 -51.5t-47.5 -126.5z" />
<glyph unicode="&#xbb;" horiz-adv-x="1128" d="M55 254v8q0 27 18 57.5t44 55.5t62 51.5t66 44.5t62 35q-91 44 -171.5 112t-80.5 132v8q0 65 37 103t107 38h4q60 0 132.5 -55.5t127 -126t92 -132.5t37.5 -79t-37.5 -79t-92 -132.5t-127 -126t-132.5 -55.5h-4q-70 0 -107 38.5t-37 102.5zM578 279v8q0 97 223 219 q-82 41 -152.5 101.5t-70.5 117.5v6q0 59 33 94t94 35h6q54 0 122 -50t119.5 -113.5t87 -119.5t35.5 -71t-35.5 -71t-87 -119.5t-119.5 -113.5t-122 -50h-6q-61 0 -94 35t-33 92z" />
<glyph unicode="&#xbc;" horiz-adv-x="1662" d="M19.5 1062q-4.5 35 3.5 69t26 53q194 51 297 151h186v-753h-251v469q-52 -76 -138 -76q-55 0 -87 26t-36.5 61zM195 0l968 1325h281l-969 -1325h-280zM915 256v33q0 62 37 112l248 340h316v-409h122v-180h-122v-152h-232v152h-233q-62 0 -99 29.5t-37 74.5zM1126 330h166 v256z" />
<glyph unicode="&#xbd;" horiz-adv-x="1681" d="M19.5 1062q-4.5 35 3.5 69t26 53q194 51 297 151h186v-753h-251v469q-52 -76 -138 -76q-55 0 -87 26t-36.5 61zM195 0l968 1325h281l-969 -1325h-280zM1032 0v172q0 138 228 240q17 8 46 19.5t41.5 17.5t28 15t21.5 18t6 20q0 29 -19 42t-61 13q-49 0 -83 -32t-40 -76 q0 1 -9 0t-24 1t-32.5 5t-35.5 11.5t-32.5 20t-23.5 31.5t-9 45q0 90 80 142.5t225 52.5q154 0 235 -63t81 -181q0 -41 -12 -74.5t-28.5 -55.5t-46 -41t-53 -30t-59.5 -24q-22 -7 -61 -19t-60.5 -19t-46 -20t-37.5 -28h391v-203h-610z" />
<glyph unicode="&#xbe;" horiz-adv-x="1712" d="M4 715l148 137q67 -94 172 -94q98 0 98 63q0 49 -66 49h-129v181h146q20 0 31.5 11.5t11.5 29.5q0 26 -26.5 41.5t-72.5 15.5q-66 0 -98.5 -29t-38.5 -67q0 -3 -15.5 -5t-37.5 2.5t-43.5 15.5t-37 37.5t-15.5 63.5q0 79 79 126.5t214 47.5q161 0 246 -54t85 -157 q0 -109 -135 -147q144 -49 144 -184q0 -113 -87 -173.5t-255 -60.5q-112 0 -193 40t-125 110zM244 0l968 1325h281l-969 -1325h-280zM965 256v33q0 63 36 112l248 340h316v-409h123v-180h-123v-152h-232v152h-233q-62 0 -98.5 29.5t-36.5 74.5zM1176 330h165v256z" />
<glyph unicode="&#xbf;" horiz-adv-x="1069" d="M33 362q0 80 26.5 140.5t66 94t87.5 63t90 49.5t74 51.5t39 70.5l20 68h297q1 -10 2 -26t2 -52.5t0 -58.5q0 -60 -19 -106t-48.5 -74.5t-65 -50t-71 -36t-64.5 -28.5t-47.5 -33.5t-18.5 -44.5q0 -48 37.5 -75t104.5 -27q101 0 162.5 61t72.5 146q0 2 27 2.5t65 -7t76 -24 t65 -57t27 -97.5q0 -140 -135 -239t-366 -99q-237 0 -371.5 104t-134.5 285zM381 1143v35q0 165 172 165h45q168 0 168 -165v-35q0 -166 -168 -166h-45q-88 0 -130 40.5t-42 125.5z" />
<glyph unicode="&#xc0;" horiz-adv-x="1460" d="M-10 0l512 1325h432l536 -1325h-428l-108 274h-428l-107 -274h-409zM346 1690q0 64 51.5 107.5t126.5 43.5q51 0 109 -33q63 -37 120.5 -111t85 -137t17.5 -81q-11 -20 -69 -33t-150.5 -2.5t-173.5 55.5q-53 30 -85 83t-32 108zM582 569h268l-133 361z" />
<glyph unicode="&#xc1;" horiz-adv-x="1460" d="M-10 0l512 1325h432l536 -1325h-428l-108 274h-428l-107 -274h-409zM545 1479q-10 19 17 81.5t84 136.5t120 111q61 33 111 33q74 0 125 -43.5t51 -107.5q0 -55 -31.5 -108t-85.5 -83q-81 -45 -173.5 -55.5t-150 2.5t-67.5 33zM582 569h268l-133 361z" />
<glyph unicode="&#xc2;" horiz-adv-x="1460" d="M-10 0l512 1325h432l536 -1325h-428l-108 274h-428l-107 -274h-409zM360 1550q0 55 60 124t140 120t145 68q104 -27 224 -128.5t120 -183.5q0 -46 -43 -86.5t-95 -40.5q-55 0 -111.5 52.5t-94.5 140.5q-39 -89 -96 -141t-111 -52q-52 0 -95 40.5t-43 86.5zM582 569h268 l-133 361z" />
<glyph unicode="&#xc3;" horiz-adv-x="1460" d="M-10 0l512 1325h432l536 -1325h-428l-108 274h-428l-107 -274h-409zM336 1556q0 102 62 165t147 63q149 0 274 -125q20 55 54 88t79 33q56 0 91.5 -37.5t35.5 -91.5q0 -102 -62 -165t-149 -63q-147 0 -274 127q-18 -56 -52 -89.5t-81 -33.5q-56 0 -90.5 37.5t-34.5 91.5z M582 569h268l-133 361z" />
<glyph unicode="&#xc4;" horiz-adv-x="1460" d="M-10 0l512 1325h432l536 -1325h-428l-108 274h-428l-107 -274h-409zM293 1606q0 84 48.5 132t127.5 48q87 0 136.5 -47t49.5 -133t-48.5 -134.5t-131.5 -48.5q-84 0 -133 48t-49 135zM582 569h268l-133 361zM754 1606q0 84 49 132t131 48q84 0 133 -47.5t49 -132.5 t-48.5 -134t-127.5 -49q-87 0 -136.5 48t-49.5 135z" />
<glyph unicode="&#xc5;" horiz-adv-x="1460" d="M-10 0l497 1288q-38 56 -38 137q0 111 76.5 184.5t193.5 73.5t191.5 -72.5t74.5 -185.5q0 -73 -37 -133l522 -1292h-428l-108 274h-428l-107 -274h-409zM573 569h285l-141 385zM623 1425q0 -41 27 -69.5t67 -28.5q39 0 66.5 28.5t27.5 69.5t-28 71t-66 30t-66 -30 t-28 -71z" />
<glyph unicode="&#xc6;" horiz-adv-x="1832" d="M-10 0l461 1192q22 68 80 100.5t186 32.5h1048v-168q0 -85 -38.5 -120.5t-127.5 -35.5h-548l69 -180h477v-299h-352l78 -200h451v-322h-529q-115 0 -176 36t-102 146l-35 92h-426l-107 -274h-409zM573 569h285l-141 385z" />
<glyph unicode="&#xc7;" horiz-adv-x="1329" d="M59 664q0 149 50.5 277t140.5 219t219.5 142.5t282.5 51.5q232 0 384 -91.5t152 -232.5q0 -37 -13.5 -69t-35 -54t-48 -40t-53 -27.5t-49 -16.5t-37 -6t-16.5 2q-80 160 -264 160q-129 0 -210 -86t-81 -229q0 -142 82.5 -230t210.5 -88q93 0 160 39t125 107l260 -218 q-37 -63 -86 -114t-117.5 -95.5t-162 -69t-203.5 -24.5q-152 0 -281.5 51.5t-219 142.5t-140 219.5t-50.5 279.5zM485 -393l72 196q19 61 53.5 86t122.5 25h43q156 0 156 -109v-10q0 -60 -94 -127l-154 -121q-41 -22 -89.5 -22.5t-84.5 24t-25 58.5z" />
<glyph unicode="&#xc8;" horiz-adv-x="1261" d="M92 0v1325h1098v-184q0 -170 -191 -170h-495v-133h516v-332h-516v-154h694v-352h-1106zM348 1690q0 64 51.5 107.5t126.5 43.5q51 0 109 -33q63 -37 120.5 -111t85 -137t17.5 -81q-11 -20 -69 -33t-150.5 -2.5t-173.5 55.5q-53 30 -85 83t-32 108z" />
<glyph unicode="&#xc9;" horiz-adv-x="1261" d="M92 0v1325h1098v-184q0 -170 -191 -170h-495v-133h516v-332h-516v-154h694v-352h-1106zM455 1479q-10 19 17 81.5t84 136.5t120 111q61 33 110 33q74 0 125.5 -43.5t51.5 -107.5q0 -55 -31.5 -108t-85.5 -83q-81 -45 -173.5 -55.5t-150 2.5t-67.5 33z" />
<glyph unicode="&#xca;" horiz-adv-x="1261" d="M92 0v1325h1098v-184q0 -170 -191 -170h-495v-133h516v-332h-516v-154h694v-352h-1106zM315 1550q0 82 120 183.5t224 128.5q65 -17 145 -68t140 -120t60 -124q0 -46 -43 -86.5t-95 -40.5q-55 0 -112 52.5t-95 140.5q-39 -89 -95.5 -141t-110.5 -52q-52 0 -95 40.5 t-43 86.5z" />
<glyph unicode="&#xcb;" horiz-adv-x="1261" d="M92 0v1325h1098v-184q0 -170 -191 -170h-495v-133h516v-332h-516v-154h694v-352h-1106zM248 1606q0 84 48.5 132t127.5 48q87 0 136.5 -47t49.5 -133t-49 -134.5t-131 -48.5q-84 0 -133 48t-49 135zM709 1606q0 84 49 132t131 48q84 0 133 -47.5t49 -132.5t-48.5 -134 t-127.5 -49q-87 0 -136.5 48t-49.5 135z" />
<glyph unicode="&#xcc;" horiz-adv-x="626" d="M-16 1690q0 64 51.5 107.5t126.5 43.5q50 0 108 -33q63 -37 121 -111t85 -137t18 -81q-11 -20 -69.5 -33t-151 -2.5t-173.5 55.5q-53 30 -84.5 83t-31.5 108zM106 0v1325h412v-1325h-412z" />
<glyph unicode="&#xcd;" horiz-adv-x="626" d="M106 0v1325h412v-1325h-412zM115 1479q-10 19 17 81.5t84 136.5t120 111q61 33 110 33q74 0 125.5 -43.5t51.5 -107.5q0 -55 -31.5 -108t-85.5 -83q-81 -45 -173.5 -55.5t-150 2.5t-67.5 33z" />
<glyph unicode="&#xce;" horiz-adv-x="626" d="M-39 1550q0 82 120 183.5t224 128.5q104 -27 224 -128.5t120 -183.5q0 -46 -42.5 -86.5t-94.5 -40.5q-55 0 -112 52.5t-95 140.5q-39 -89 -96 -141t-111 -52q-52 0 -94.5 40.5t-42.5 86.5zM106 0v1325h412v-1325h-412z" />
<glyph unicode="&#xcf;" horiz-adv-x="626" d="M-106 1606q0 84 48.5 132t127.5 48q87 0 136.5 -47t49.5 -133t-49 -134.5t-131 -48.5q-84 0 -133 48t-49 135zM106 0v1325h412v-1325h-412zM354 1606q0 84 49 132t132 48q84 0 133 -47.5t49 -132.5t-48.5 -134t-127.5 -49q-87 0 -137 48t-50 135z" />
<glyph unicode="&#xd0;" horiz-adv-x="1497" d="M6 649v33q0 51 34 86t97 35h35v522h567q326 0 516.5 -176.5t190.5 -478.5q0 -306 -194 -488t-521 -182h-559v526h-35q-63 0 -97 35t-34 88zM580 350h143q146 0 232.5 84.5t86.5 233.5q0 146 -83.5 226.5t-229.5 80.5h-149v-172h135q62 0 95.5 -35t33.5 -86v-33 q0 -53 -33 -88t-96 -35h-135v-176z" />
<glyph unicode="&#xd1;" horiz-adv-x="1439" d="M92 0v1325h326l543 -704v704h385v-1325h-312l-555 709v-709h-387zM348 1556q0 102 62 165t147 63q149 0 274 -125q20 54 54.5 87.5t79.5 33.5q56 0 91.5 -37.5t35.5 -91.5q0 -102 -62 -165t-149 -63q-148 0 -275 127q-18 -56 -52 -89.5t-81 -33.5q-56 0 -90.5 37.5 t-34.5 91.5z" />
<glyph unicode="&#xd2;" horiz-adv-x="1501" d="M51 664q0 198 89.5 355.5t250 246t361.5 88.5t360.5 -88.5t248.5 -246t89 -355.5q0 -199 -89 -357.5t-249 -247t-362 -88.5q-151 0 -281 51.5t-222 142.5t-144 220t-52 279zM401 1690q0 64 52 107.5t127 43.5q50 0 108 -33q63 -37 120.5 -111t85 -137t17.5 -81 q-11 -20 -69 -33t-150.5 -2.5t-173.5 55.5q-53 30 -85 83t-32 108zM457 664q0 -148 80.5 -237t214.5 -89q132 0 212 89t80 237q0 147 -80.5 237t-213.5 90q-134 0 -213.5 -88.5t-79.5 -238.5z" />
<glyph unicode="&#xd3;" horiz-adv-x="1501" d="M51 664q0 198 89.5 355.5t250 246t361.5 88.5t360.5 -88.5t248.5 -246t89 -355.5q0 -199 -89 -357.5t-249 -247t-362 -88.5q-151 0 -281 51.5t-222 142.5t-144 220t-52 279zM457 664q0 -148 80.5 -237t214.5 -89q132 0 212 89t80 237q0 147 -80.5 237t-213.5 90 q-134 0 -213.5 -88.5t-79.5 -238.5zM563 1479q-10 19 17 81.5t84 136.5t120 111q61 33 111 33q74 0 125 -43.5t51 -107.5q0 -55 -31.5 -108t-85.5 -83q-81 -45 -173.5 -55.5t-150 2.5t-67.5 33z" />
<glyph unicode="&#xd4;" horiz-adv-x="1501" d="M51 664q0 198 89.5 355.5t250 246t361.5 88.5t360.5 -88.5t248.5 -246t89 -355.5q0 -199 -89 -357.5t-249 -247t-362 -88.5q-151 0 -281 51.5t-222 142.5t-144 220t-52 279zM410 1550q0 82 120 183.5t224 128.5q104 -27 224 -128.5t120 -183.5q0 -46 -42.5 -86.5 t-94.5 -40.5q-55 0 -112 52.5t-95 140.5q-39 -89 -96 -141t-111 -52q-52 0 -94.5 40.5t-42.5 86.5zM457 664q0 -148 80.5 -237t214.5 -89q132 0 212 89t80 237q0 147 -80.5 237t-213.5 90q-134 0 -213.5 -88.5t-79.5 -238.5z" />
<glyph unicode="&#xd5;" horiz-adv-x="1501" d="M51 664q0 198 89.5 355.5t250 246t361.5 88.5t360.5 -88.5t248.5 -246t89 -355.5q0 -199 -89 -357.5t-249 -247t-362 -88.5q-151 0 -281 51.5t-222 142.5t-144 220t-52 279zM383 1556q0 102 62 165t147 63q149 0 274 -125q20 55 54 88t79 33q56 0 91.5 -37.5t35.5 -91.5 q0 -102 -62 -165t-149 -63q-147 0 -274 127q-18 -56 -52 -89.5t-81 -33.5q-56 0 -90.5 37.5t-34.5 91.5zM457 664q0 -148 80.5 -237t214.5 -89q132 0 212 89t80 237q0 147 -80.5 237t-213.5 90q-134 0 -213.5 -88.5t-79.5 -238.5z" />
<glyph unicode="&#xd6;" horiz-adv-x="1501" d="M51 664q0 198 89.5 355.5t250 246t361.5 88.5t360.5 -88.5t248.5 -246t89 -355.5q0 -199 -89 -357.5t-249 -247t-362 -88.5q-151 0 -281 51.5t-222 142.5t-144 220t-52 279zM342 1606q0 84 48.5 132t127.5 48q87 0 137 -47.5t50 -132.5t-49 -134t-132 -49q-84 0 -133 48 t-49 135zM457 664q0 -148 80.5 -237t214.5 -89q132 0 212 89t80 237q0 147 -80.5 237t-213.5 90q-134 0 -213.5 -88.5t-79.5 -238.5zM803 1606q0 84 49 132t131 48q84 0 133 -47.5t49 -132.5t-48.5 -134t-127.5 -49q-87 0 -136.5 48t-49.5 135z" />
<glyph unicode="&#xd7;" horiz-adv-x="1157" d="M114 168.5q-10 32.5 3 70.5t51 74l209 203l-209 201q-37 36 -49.5 74t-3 70t36.5 61l20 24q38 45 96 42.5t111 -60.5l201 -211l198 211q53 58 111 60.5t96 -42.5l21 -24q27 -29 36 -61t-3 -70t-50 -74l-209 -201l209 -203q38 -36 51 -74t3.5 -70.5t-37.5 -59.5l-25 -25 q-25 -27 -57.5 -36.5t-71.5 3.5t-74 51l-198 211l-201 -211q-35 -38 -74 -51t-71.5 -3.5t-57.5 36.5l-24 25q-28 27 -38 59.5z" />
<glyph unicode="&#xd8;" horiz-adv-x="1501" d="M55 664q0 147 52 275t143.5 219t222 143.5t281.5 52.5q211 0 381 -101l135 152q8 9 46 -2t74.5 -43t36.5 -74q0 -46 -45 -96l-77 -86q147 -183 147 -440q0 -198 -88.5 -356t-248 -247.5t-361.5 -89.5q-208 0 -383 101q0 1 -36.5 -39.5t-72.5 -81.5l-37 -41 q-8 -9 -46.5 2.5t-75.5 43.5t-37 73t49 96l88 96q-148 184 -148 443zM412 664q0 -97 34 -172l457 505q-70 31 -149 31q-157 0 -249.5 -100t-92.5 -264zM606 332q67 -31 148 -31q153 0 247.5 100.5t94.5 262.5q0 94 -35 172z" />
<glyph unicode="&#xd9;" horiz-adv-x="1390" d="M88 582v743h412v-745q0 -246 196 -246q100 0 147.5 60.5t47.5 187.5v743h412v-743q0 -299 -154 -450.5t-455 -151.5t-453.5 151.5t-152.5 450.5zM348 1686q0 64 51.5 107.5t126.5 43.5q51 0 109 -33q63 -37 120.5 -111t85 -137t17.5 -81q-11 -20 -69 -33t-150.5 -2.5 t-173.5 55.5q-53 30 -85 83t-32 108z" />
<glyph unicode="&#xda;" horiz-adv-x="1390" d="M88 582v743h412v-745q0 -246 196 -246q100 0 147.5 60.5t47.5 187.5v743h412v-743q0 -299 -154 -450.5t-455 -151.5t-453.5 151.5t-152.5 450.5zM535 1475q-10 19 17 81.5t84 136.5t120 111q61 33 110 33q74 0 125 -43.5t51 -107.5q0 -56 -31 -108.5t-85 -82.5 q-81 -45 -173.5 -55.5t-150 2.5t-67.5 33z" />
<glyph unicode="&#xdb;" horiz-adv-x="1390" d="M88 582v743h412v-745q0 -246 196 -246q100 0 147.5 60.5t47.5 187.5v743h412v-743q0 -299 -154 -450.5t-455 -151.5t-453.5 151.5t-152.5 450.5zM350 1550q0 82 120 183.5t224 128.5q104 -27 224 -128.5t120 -183.5q0 -46 -42.5 -86.5t-94.5 -40.5q-55 0 -112 52.5 t-95 140.5q-39 -89 -96 -141t-111 -52q-52 0 -94.5 40.5t-42.5 86.5z" />
<glyph unicode="&#xdc;" horiz-adv-x="1390" d="M88 582v743h412v-745q0 -246 196 -246q100 0 147.5 60.5t47.5 187.5v743h412v-743q0 -299 -154 -450.5t-455 -151.5t-453.5 151.5t-152.5 450.5zM283 1606q0 84 48.5 132t127.5 48q87 0 136.5 -47t49.5 -133t-48.5 -134.5t-131.5 -48.5q-84 0 -133 48t-49 135zM743 1606 q0 84 49 132t132 48q84 0 133 -47.5t49 -132.5t-48.5 -134t-127.5 -49q-87 0 -137 48t-50 135z" />
<glyph unicode="&#xdd;" horiz-adv-x="1339" d="M-31 1325h461l244 -446l248 446h450l-493 -803v-522h-412v522zM489 1475q-10 19 17 81.5t84.5 136.5t120.5 111q61 33 110 33q74 0 125 -43.5t51 -107.5q0 -56 -31 -108.5t-85 -82.5q-81 -45 -173.5 -55.5t-150.5 2.5t-68 33z" />
<glyph unicode="&#xde;" horiz-adv-x="1275" d="M92 0v1325h412v-197h141q289 0 437.5 -118t148.5 -348q0 -226 -144.5 -341.5t-429.5 -115.5h-153v-205h-412zM504 506h145q191 0 191 156q0 81 -46 119t-145 38h-145v-313z" />
<glyph unicode="&#xdf;" horiz-adv-x="1280" d="M90 0v915q0 282 134 408.5t431 126.5q245 0 382 -97t137 -263q0 -115 -51.5 -182t-159.5 -95q142 -57 218 -165.5t76 -250.5q0 -190 -111.5 -308t-291.5 -118q-153 0 -232 53t-79 150q0 36 19.5 73.5t39 57.5t23.5 17q28 -25 56.5 -37.5t76.5 -12.5q54 0 92.5 35.5 t38.5 87.5q0 63 -42 103t-136 71q-66 24 -102 63.5t-36 119.5q0 39 16.5 76t31.5 54t18 17q77 0 118.5 33.5t41.5 97.5q0 61 -41 97t-109 36q-166 0 -166 -211v-952h-393z" />
<glyph unicode="&#xe0;" d="M45 506q0 244 127 387t340 143q106 0 190 -47t123 -123q50 160 224 160q37 0 73 -8.5t56 -19t20 -17.5v-981h-393v154q-41 -85 -118.5 -134t-178.5 -49q-208 0 -335.5 148.5t-127.5 386.5zM387 1372q0 64 51.5 108t126.5 44q51 0 109 -33q63 -37 120.5 -111.5t85 -137.5 t17.5 -81q-8 -14 -46 -25t-91 -14.5t-123 11.5t-131 49q-55 30 -87 82.5t-32 107.5zM418 504q0 -101 55.5 -164.5t144.5 -63.5q82 0 135.5 49t53.5 130v157q-53 119 -184 119q-93 0 -149 -61t-56 -166z" />
<glyph unicode="&#xe1;" d="M45 506q0 244 127 387t340 143q106 0 190 -47t123 -123q50 160 224 160q37 0 73 -8.5t56 -19t20 -17.5v-981h-393v154q-41 -85 -118.5 -134t-178.5 -49q-208 0 -335.5 148.5t-127.5 386.5zM418 504q0 -101 55.5 -164.5t144.5 -63.5q82 0 135.5 49t53.5 130v157 q-53 119 -184 119q-93 0 -149 -61t-56 -166zM461 1161q-10 18 17.5 81t85 137.5t120.5 111.5q58 33 109 33q74 0 125 -44t51 -108q0 -55 -31.5 -107.5t-85.5 -82.5q-62 -34 -132 -49t-123 -11.5t-90.5 14.5t-45.5 25z" />
<glyph unicode="&#xe2;" d="M45 506q0 244 127 387t340 143q106 0 190 -47t123 -123q50 160 224 160q37 0 73 -8.5t56 -19t20 -17.5v-981h-393v154q-41 -85 -118.5 -134t-178.5 -49q-208 0 -335.5 148.5t-127.5 386.5zM307 1227q0 66 59 136t135.5 117t143.5 64q67 -17 143.5 -64t135.5 -117t59 -136 q0 -52 -34.5 -85.5t-90.5 -33.5q-63 0 -118.5 50t-94.5 138q-40 -88 -96 -138t-117 -50q-56 0 -90.5 33.5t-34.5 85.5zM418 504q0 -101 55.5 -164.5t144.5 -63.5q82 0 135.5 49t53.5 130v157q-53 119 -184 119q-93 0 -149 -61t-56 -166z" />
<glyph unicode="&#xe3;" d="M45 506q0 244 127 387t340 143q106 0 190 -47t123 -123q50 160 224 160q37 0 73 -8.5t56 -19t20 -17.5v-981h-393v154q-41 -85 -118.5 -134t-178.5 -49q-208 0 -335.5 148.5t-127.5 386.5zM297 1239q0 102 62 164.5t149 62.5q147 0 272 -125q20 55 54 88t79 33 q56 0 91.5 -37.5t35.5 -91.5q0 -102 -62 -163.5t-149 -61.5q-149 0 -274 125q-18 -55 -52 -89t-79 -34q-56 0 -91.5 37.5t-35.5 91.5zM418 504q0 -101 55.5 -164.5t144.5 -63.5q82 0 135.5 49t53.5 130v157q-53 119 -184 119q-93 0 -149 -61t-56 -166z" />
<glyph unicode="&#xe4;" d="M45 506q0 244 127 387t340 143q106 0 190 -47t123 -123q50 160 224 160q37 0 73 -8.5t56 -19t20 -17.5v-981h-393v154q-41 -85 -118.5 -134t-178.5 -49q-208 0 -335.5 148.5t-127.5 386.5zM254 1288q0 84 48.5 132t127.5 48q87 0 136.5 -47t49.5 -133q0 -85 -48.5 -132.5 t-129.5 -47.5q-86 0 -135 46.5t-49 133.5zM418 504q0 -101 55.5 -164.5t144.5 -63.5q82 0 135.5 49t53.5 130v157q-53 119 -184 119q-93 0 -149 -61t-56 -166zM717 1288q0 84 48 132t130 48q84 0 133 -47.5t49 -132.5t-48 -132.5t-128 -47.5q-87 0 -135.5 46.5t-48.5 133.5z " />
<glyph unicode="&#xe5;" d="M45 506q0 244 127 387t340 143q106 0 190 -47t123 -123q50 160 224 160q37 0 73 -8.5t56 -19t20 -17.5v-981h-393v154q-41 -85 -118.5 -134t-178.5 -49q-208 0 -335.5 148.5t-127.5 386.5zM401 1366q0 110 76 184t195 74q118 0 192 -73.5t74 -184.5q0 -112 -75 -185 t-195 -73t-193.5 72t-73.5 186zM418 504q0 -101 55.5 -164.5t144.5 -63.5q82 0 135.5 49t53.5 130v157q-53 119 -184 119q-93 0 -149 -61t-56 -166zM575 1366q0 -42 27.5 -70t67.5 -28t67 28.5t27 69.5t-27 70.5t-67 29.5t-67.5 -29.5t-27.5 -70.5z" />
<glyph unicode="&#xe6;" horiz-adv-x="1785" d="M43 268q0 162 160.5 246t460.5 86h43v6q0 152 -160 152q-152 0 -205 -119q-1 -3 -27.5 -5.5t-65 1t-76.5 15t-64.5 44.5t-26.5 82q0 123 113 191.5t337 68.5q246 0 357 -114q129 114 330 114q231 0 378.5 -142.5t147.5 -363.5v-18q-2 -46 -19 -70t-59 -24h-657 q17 -86 83.5 -133t163.5 -47q161 0 240 120l229 -161q-147 -226 -483 -226q-323 0 -446 211q-54 -91 -162.5 -146.5t-245.5 -55.5q-156 0 -251 79t-95 209zM401 309q0 -45 32.5 -71.5t86.5 -26.5q83 0 135 46t52 120v59h-56q-250 -3 -250 -127zM1018 600h377 q-4 88 -52.5 137t-130.5 49q-77 0 -131.5 -53t-62.5 -133z" />
<glyph unicode="&#xe7;" horiz-adv-x="1048" d="M45 506q0 231 152 379.5t389 148.5q115 0 203.5 -25.5t137.5 -67t73 -88.5t24 -97q0 -36 -11.5 -65t-30 -47.5t-41 -32t-45.5 -19.5t-42.5 -8.5t-32 -1.5t-14.5 4q-21 66 -71.5 104.5t-127.5 38.5q-92 0 -151.5 -63.5t-59.5 -159.5q0 -100 59 -165t152 -65q73 0 124 36 t77 96l246 -170q-153 -267 -469 -267q-242 0 -391.5 148.5t-149.5 386.5zM330 -393l71 196q19 61 54 86t123 25h43q155 0 155 -109v-10q0 -60 -94 -127l-154 -121q-41 -22 -89.5 -22.5t-84 24t-24.5 58.5z" />
<glyph unicode="&#xe8;" horiz-adv-x="1153" d="M45 496q0 154 69 277t193 193t279 70q232 0 380 -142.5t148 -363.5v-24q-3 -103 -80 -103h-641q18 -78 79.5 -118.5t156.5 -40.5q158 0 237 114l228 -161q-149 -226 -480 -226q-262 0 -415.5 141.5t-153.5 383.5zM236 1372q0 64 51.5 108t126.5 44q50 0 108 -33 q63 -37 120.5 -111.5t85 -137.5t17.5 -81q-8 -14 -46 -25t-91.5 -14.5t-123.5 11.5t-132 49q-53 30 -84.5 82.5t-31.5 107.5zM387 606h373q-3 79 -50 126.5t-128 47.5q-77 0 -131.5 -49t-63.5 -125z" />
<glyph unicode="&#xe9;" horiz-adv-x="1153" d="M45 496q0 154 69 277t193 193t279 70q232 0 380 -142.5t148 -363.5v-24q-3 -103 -80 -103h-641q18 -78 79.5 -118.5t156.5 -40.5q158 0 237 114l228 -161q-149 -226 -480 -226q-262 0 -415.5 141.5t-153.5 383.5zM387 606h373q-3 79 -50 126.5t-128 47.5 q-77 0 -131.5 -49t-63.5 -125zM399 1161q-10 19 17 81.5t84.5 137t120.5 111.5q61 33 110 33q74 0 125 -44t51 -108q0 -56 -31 -108t-85 -82q-62 -34 -132.5 -49t-123.5 -11.5t-91 14.5t-45 25z" />
<glyph unicode="&#xea;" horiz-adv-x="1153" d="M45 496q0 154 69 277t193 193t279 70q232 0 380 -142.5t148 -363.5v-24q-3 -103 -80 -103h-641q18 -78 79.5 -118.5t156.5 -40.5q158 0 237 114l228 -161q-149 -226 -480 -226q-262 0 -415.5 141.5t-153.5 383.5zM242 1233q0 55 60 123.5t139.5 119.5t144.5 68 q65 -17 144.5 -68t139.5 -119.5t60 -123.5q0 -46 -42.5 -86.5t-94.5 -40.5q-55 0 -112 52t-95 140q-39 -88 -95.5 -140t-111.5 -52q-52 0 -94.5 40.5t-42.5 86.5zM387 606h373q-3 79 -50 126.5t-128 47.5q-77 0 -131.5 -49t-63.5 -125z" />
<glyph unicode="&#xeb;" horiz-adv-x="1153" d="M45 496q0 154 69 277t193 193t279 70q232 0 380 -142.5t148 -363.5v-24q-3 -103 -80 -103h-641q18 -78 79.5 -118.5t156.5 -40.5q158 0 237 114l228 -161q-149 -226 -480 -226q-262 0 -415.5 141.5t-153.5 383.5zM174 1288q0 84 48.5 132t127.5 48q87 0 137 -47.5 t50 -132.5t-49 -133.5t-132 -48.5q-84 0 -133 47.5t-49 134.5zM387 606h373q-3 79 -50 126.5t-128 47.5q-77 0 -131.5 -49t-63.5 -125zM635 1288q0 84 49 132t131 48q84 0 133 -47.5t49 -132.5t-48.5 -133.5t-127.5 -48.5q-87 0 -136.5 47.5t-49.5 134.5z" />
<glyph unicode="&#xec;" horiz-adv-x="585" d="M-31 1372q0 64 51.5 108t126.5 44q51 0 109 -33q63 -37 120.5 -111.5t85 -137.5t17.5 -81q-8 -14 -46 -25t-91.5 -14.5t-123.5 11.5t-132 49q-53 30 -85 82.5t-32 107.5zM96 0v1016h393v-1016h-393z" />
<glyph unicode="&#xed;" horiz-adv-x="585" d="M96 0v1016h393v-1016h-393zM100 1161q-10 19 17 81.5t84.5 137t120.5 111.5q61 33 110 33q74 0 125 -44t51 -108q0 -56 -31 -108t-85 -82q-62 -34 -132.5 -49t-123.5 -11.5t-91 14.5t-45 25z" />
<glyph unicode="&#xee;" horiz-adv-x="585" d="M-53 1233q0 55 60 123.5t139.5 119.5t144.5 68q65 -17 144.5 -68t139.5 -119.5t60 -123.5q0 -46 -42.5 -86.5t-94.5 -40.5q-55 0 -112 52t-95 140q-39 -88 -95.5 -140t-111.5 -52q-52 0 -94.5 40.5t-42.5 86.5zM96 0v1016h393v-1016h-393z" />
<glyph unicode="&#xef;" horiz-adv-x="585" d="M-121 1288q0 84 48.5 132t127.5 48q87 0 137 -47.5t50 -132.5t-49 -133.5t-132 -48.5q-84 0 -133 47.5t-49 134.5zM96 0v1016h393v-1016h-393zM340 1288q0 84 49 132t131 48q84 0 133 -47.5t49 -132.5t-48.5 -133.5t-127.5 -48.5q-87 0 -136.5 47.5t-49.5 134.5z" />
<glyph unicode="&#xf0;" horiz-adv-x="1273" d="M47 479q0 215 133 351.5t344 136.5q100 0 178.5 -42.5t124.5 -109.5q-55 180 -206 305l-168 -86q-63 -31 -112.5 -17t-68.5 68l-4 11q-22 51 -4.5 95t80.5 75h2q-82 28 -151 43q-2 3 -2.5 22.5t21 49.5t50.5 58.5t87 49t130 20.5q132 0 250 -53l203 100q30 15 56.5 17 t48 -7.5t38 -24t33.5 -36.5l8 -10q32 -40 10 -89t-86 -81l-75 -37q121 -126 190.5 -297.5t69.5 -359.5q0 -300 -169 -480t-442 -180q-260 0 -414.5 134t-154.5 374zM420 487q0 -93 56 -154t145 -61q93 0 148.5 57.5t55.5 153.5v105q-27 49 -80.5 81.5t-115.5 32.5 q-94 0 -151.5 -60.5t-57.5 -154.5z" />
<glyph unicode="&#xf1;" horiz-adv-x="1241" d="M90 0v981q0 7 20.5 17.5t57.5 19t74 8.5q77 0 138 -40.5t87 -135.5q59 89 138.5 137.5t195.5 48.5q77 0 138.5 -21.5t102.5 -58.5t68 -89t39 -109.5t12 -122.5v-635h-393v567q0 69 -35 109.5t-96 40.5q-100 0 -154 -82v-635h-393zM262 1239q0 102 61.5 164.5t147.5 62.5 q149 0 274 -125q20 54 54.5 87.5t79.5 33.5q56 0 91.5 -37.5t35.5 -91.5q0 -102 -62 -164.5t-149 -62.5q-148 0 -275 127q-18 -56 -52 -89.5t-81 -33.5q-56 0 -90.5 37.5t-34.5 91.5z" />
<glyph unicode="&#xf2;" horiz-adv-x="1200" d="M45 506q0 238 153.5 384t405.5 146q249 0 400 -146t151 -386q0 -243 -152.5 -388t-404.5 -145q-253 0 -403 145t-150 390zM250 1372q0 64 51.5 108t126.5 44q51 0 109 -33q63 -37 120.5 -111.5t85 -137.5t17.5 -81q-8 -14 -46 -25t-91.5 -14.5t-123.5 11.5t-132 49 q-53 30 -85 82.5t-32 107.5zM379 506q0 -103 61.5 -168.5t159.5 -65.5q95 0 158 66t63 166q0 103 -62 168t-159 65t-159 -65t-62 -166z" />
<glyph unicode="&#xf3;" horiz-adv-x="1200" d="M45 506q0 238 153.5 384t405.5 146q249 0 400 -146t151 -386q0 -243 -152.5 -388t-404.5 -145q-253 0 -403 145t-150 390zM379 506q0 -103 61.5 -168.5t159.5 -65.5q95 0 158 66t63 166q0 103 -62 168t-159 65t-159 -65t-62 -166zM442 1161q-10 19 17 81.5t84.5 137 t120.5 111.5q61 33 110 33q74 0 125 -44t51 -108q0 -56 -31 -108t-85 -82q-62 -34 -132.5 -49t-123.5 -11.5t-91 14.5t-45 25z" />
<glyph unicode="&#xf4;" horiz-adv-x="1200" d="M45 506q0 238 153.5 384t405.5 146q249 0 400 -146t151 -386q0 -243 -152.5 -388t-404.5 -145q-253 0 -403 145t-150 390zM258 1233q0 55 60 123.5t139.5 119.5t144.5 68q65 -17 144.5 -68t139.5 -119.5t60 -123.5q0 -46 -42.5 -86.5t-94.5 -40.5q-55 0 -112 52t-95 140 q-39 -88 -95.5 -140t-111.5 -52q-52 0 -94.5 40.5t-42.5 86.5zM379 506q0 -103 61.5 -168.5t159.5 -65.5q95 0 158 66t63 166q0 103 -62 168t-159 65t-159 -65t-62 -166z" />
<glyph unicode="&#xf5;" horiz-adv-x="1200" d="M45 506q0 238 153.5 384t405.5 146q249 0 400 -146t151 -386q0 -243 -152.5 -388t-404.5 -145q-253 0 -403 145t-150 390zM231 1239q0 102 61.5 164.5t147.5 62.5q150 0 275 -125q20 55 54 88t79 33q56 0 91.5 -37.5t35.5 -91.5q0 -102 -62 -164.5t-149 -62.5 q-148 0 -275 127q-18 -56 -52 -89.5t-81 -33.5q-56 0 -90.5 37.5t-34.5 91.5zM379 506q0 -103 61.5 -168.5t159.5 -65.5q95 0 158 66t63 166q0 103 -62 168t-159 65t-159 -65t-62 -166z" />
<glyph unicode="&#xf6;" horiz-adv-x="1200" d="M45 506q0 238 153.5 384t405.5 146q249 0 400 -146t151 -386q0 -243 -152.5 -388t-404.5 -145q-253 0 -403 145t-150 390zM190 1288q0 83 49 131.5t128 48.5q87 0 136.5 -47t49.5 -133q0 -85 -48.5 -133.5t-131.5 -48.5q-84 0 -133.5 47.5t-49.5 134.5zM379 506 q0 -103 61.5 -168.5t159.5 -65.5q95 0 158 66t63 166q0 103 -62 168t-159 65t-159 -65t-62 -166zM651 1288q0 84 49 132t131 48q84 0 133.5 -47.5t49.5 -132.5t-48.5 -133.5t-127.5 -48.5q-87 0 -137 47.5t-50 134.5z" />
<glyph unicode="&#xf7;" horiz-adv-x="1228" d="M88 510v18q0 63 40 100.5t116 37.5h739q77 0 116.5 -37t39.5 -101v-18q0 -65 -39 -101t-117 -36h-739q-76 0 -116 36.5t-40 100.5zM455 102v29q0 139 137 139h41q141 0 141 -139v-29q0 -139 -141 -139h-41q-137 0 -137 139zM455 911v29q0 139 137 139h41q141 0 141 -139 v-29q0 -139 -141 -139h-41q-137 0 -137 139z" />
<glyph unicode="&#xf8;" horiz-adv-x="1200" d="M10 -33q0 44 47 94l101 111q-109 140 -109 332q0 149 70 270.5t198 191.5t289 70q149 0 273 -65l174 192q8 9 45.5 -1.5t73.5 -41t36 -69.5q0 -47 -45 -97l-112 -127q104 -135 104 -321q0 -231 -156 -383t-401 -152q-151 0 -266 62l-164 -183q-8 -8 -46 3t-75 42.5 t-37 71.5zM369 504q0 -57 22 -109l303 332q-52 25 -92 25q-102 0 -167.5 -70t-65.5 -178zM516 283q41 -23 86 -23q101 0 167.5 69.5t66.5 174.5q0 56 -25 104q1 0 -73 -81t-148 -163z" />
<glyph unicode="&#xf9;" horiz-adv-x="1241" d="M80 373v643h393v-574q0 -69 35 -109t98 -40q48 0 88 22t64 58v643h393v-981q0 -6 -20.5 -16.5t-57.5 -19.5t-74 -9q-49 0 -90 14t-79.5 54t-55.5 104q-60 -90 -139.5 -140.5t-194.5 -50.5q-95 0 -167 33t-113 90.5t-60.5 127t-19.5 151.5zM268 1372q0 64 51.5 108 t126.5 44q51 0 109 -33q63 -37 120.5 -111.5t85 -137.5t17.5 -81q-8 -14 -46 -25t-91.5 -14.5t-123.5 11.5t-132 49q-53 30 -85 82.5t-32 107.5z" />
<glyph unicode="&#xfa;" horiz-adv-x="1241" d="M80 373v643h393v-574q0 -69 35 -109t98 -40q48 0 88 22t64 58v643h393v-981q0 -6 -20.5 -16.5t-57.5 -19.5t-74 -9q-49 0 -90 14t-79.5 54t-55.5 104q-60 -90 -139.5 -140.5t-194.5 -50.5q-95 0 -167 33t-113 90.5t-60.5 127t-19.5 151.5zM465 1161q-10 19 17 81.5 t84 137t120 111.5q61 33 111 33q74 0 125 -44t51 -108q0 -55 -31.5 -107.5t-85.5 -82.5q-62 -34 -132 -49t-123.5 -11.5t-91 14.5t-44.5 25z" />
<glyph unicode="&#xfb;" horiz-adv-x="1241" d="M80 373v643h393v-574q0 -69 35 -109t98 -40q48 0 88 22t64 58v643h393v-981q0 -6 -20.5 -16.5t-57.5 -19.5t-74 -9q-49 0 -90 14t-79.5 54t-55.5 104q-60 -90 -139.5 -140.5t-194.5 -50.5q-95 0 -167 33t-113 90.5t-60.5 127t-19.5 151.5zM276 1233q0 55 60 123.5 t140 119.5t145 68q65 -17 144.5 -68t139.5 -119.5t60 -123.5q0 -46 -43 -86.5t-95 -40.5q-55 0 -111.5 52t-94.5 140q-39 -88 -95.5 -140t-111.5 -52q-52 0 -95 40.5t-43 86.5z" />
<glyph unicode="&#xfc;" horiz-adv-x="1241" d="M80 373v643h393v-574q0 -69 35 -109t98 -40q48 0 88 22t64 58v643h393v-981q0 -6 -20.5 -16.5t-57.5 -19.5t-74 -9q-49 0 -90 14t-79.5 54t-55.5 104q-60 -90 -139.5 -140.5t-194.5 -50.5q-95 0 -167 33t-113 90.5t-60.5 127t-19.5 151.5zM211 1288q0 84 48.5 132 t127.5 48q87 0 136.5 -47t49.5 -133q0 -85 -48.5 -133.5t-131.5 -48.5q-84 0 -133 47.5t-49 134.5zM672 1288q0 84 49 132t131 48q84 0 133 -47.5t49 -132.5t-48.5 -133.5t-127.5 -48.5q-87 0 -136.5 47.5t-49.5 134.5z" />
<glyph unicode="&#xfd;" horiz-adv-x="1167" d="M0 1016h403l205 -608l168 608h393l-471 -1247q-39 -97 -97.5 -137t-147.5 -40q-37 0 -69.5 9.5t-53.5 24t-36 30t-21 28.5t-3 19l152 332zM430 1155q-10 19 17 81.5t84 137t120 111.5q61 33 111 33q74 0 125 -44t51 -108q0 -55 -31.5 -107.5t-85.5 -82.5 q-62 -34 -132 -49t-123.5 -11.5t-91 14.5t-44.5 25z" />
<glyph unicode="&#xfe;" horiz-adv-x="1294" d="M90 -387v1784q0 7 20.5 17.5t57.5 19t74 8.5q36 0 68.5 -8t65 -28.5t55.5 -53t37.5 -86.5t14.5 -123v-262q57 73 133 114t164 41q210 0 336.5 -145t126.5 -389t-126 -387.5t-339 -143.5q-88 0 -166 36.5t-129 96.5v-491h-393zM483 426q9 -69 60.5 -109.5t126.5 -40.5 q91 0 145.5 62.5t54.5 165.5q0 104 -53.5 165.5t-144.5 61.5q-65 0 -113.5 -30.5t-75.5 -84.5v-190z" />
<glyph unicode="&#xff;" horiz-adv-x="1167" d="M0 1016h403l205 -608l168 608h393l-471 -1247q-39 -97 -97.5 -137t-147.5 -40q-37 0 -69.5 9.5t-53.5 24t-36 30t-21 28.5t-3 19l152 332zM180 1288q0 84 48.5 132t127.5 48q87 0 137 -47.5t50 -132.5t-49 -133.5t-132 -48.5q-84 0 -133 47.5t-49 134.5zM641 1288 q0 84 49 132t131 48q84 0 133.5 -47.5t49.5 -132.5t-49 -133.5t-128 -48.5q-87 0 -136.5 47.5t-49.5 134.5z" />
<glyph unicode="&#x152;" horiz-adv-x="2107" d="M51 664q0 198 90 355.5t251 246t362 88.5q119 0 215 -29h1067v-168q0 -85 -38.5 -120.5t-127.5 -35.5h-535q60 -76 72 -180h459v-299h-455q-11 -114 -78 -200h711v-322h-1075q-96 -29 -215 -29q-152 0 -282.5 51.5t-223 142.5t-145 220t-52.5 279zM457 664 q0 -147 81 -236.5t216 -89.5t216 89t81 237q0 146 -82 236.5t-215 90.5q-136 0 -216.5 -89t-80.5 -238z" />
<glyph unicode="&#x153;" horiz-adv-x="1929" d="M45 506q0 238 153.5 384t405.5 146q236 0 375 -155q136 155 383 155q231 0 379.5 -143t148.5 -363v-18q-3 -94 -80 -94h-655q17 -86 83 -133t163 -47q158 0 241 120l228 -161q-147 -226 -479 -226q-276 0 -418 154q-138 -154 -375 -154q-253 0 -403 145t-150 390z M379 506q0 -103 61.5 -168.5t159.5 -65.5q95 0 158 66t63 166q0 103 -62 168t-159 65t-159 -65t-62 -166zM1163 600h375q-5 88 -52 137t-128 49q-77 0 -132 -53t-63 -133z" />
<glyph unicode="&#x178;" horiz-adv-x="1339" d="M-31 1325h461l244 -446l248 446h450l-493 -803v-522h-412v522zM242 1606q0 84 48.5 132t127.5 48q87 0 136.5 -47t49.5 -133t-49 -134.5t-131 -48.5q-84 0 -133 48t-49 135zM702 1606q0 84 49 132t132 48q84 0 133 -47.5t49 -132.5t-48.5 -134t-127.5 -49q-87 0 -137 48 t-50 135z" />
<glyph unicode="&#x2c6;" horiz-adv-x="1024" d="M174 1227q0 66 59 136t135.5 117t143.5 64q67 -17 143.5 -64t135.5 -117t59 -136q0 -52 -34.5 -85.5t-90.5 -33.5q-63 0 -118.5 50t-94.5 138q-40 -88 -96 -138t-117 -50q-56 0 -90.5 33.5t-34.5 85.5z" />
<glyph unicode="&#x2dc;" horiz-adv-x="1021" d="M139 1239q0 102 62 164.5t149 62.5q148 0 273 -125q20 55 54 88t79 33q56 0 91.5 -37.5t35.5 -91.5q0 -102 -62 -163.5t-149 -61.5q-150 0 -275 125q-18 -55 -52 -89t-79 -34q-56 0 -91.5 37.5t-35.5 91.5z" />
<glyph unicode="&#x2000;" horiz-adv-x="931" />
<glyph unicode="&#x2001;" horiz-adv-x="1862" />
<glyph unicode="&#x2002;" horiz-adv-x="931" />
<glyph unicode="&#x2003;" horiz-adv-x="1862" />
<glyph unicode="&#x2004;" horiz-adv-x="620" />
<glyph unicode="&#x2005;" horiz-adv-x="465" />
<glyph unicode="&#x2006;" horiz-adv-x="310" />
<glyph unicode="&#x2007;" horiz-adv-x="310" />
<glyph unicode="&#x2008;" horiz-adv-x="232" />
<glyph unicode="&#x2009;" horiz-adv-x="372" />
<glyph unicode="&#x200a;" horiz-adv-x="103" />
<glyph unicode="&#x2010;" horiz-adv-x="960" d="M72 326v358h817v-358h-817z" />
<glyph unicode="&#x2011;" horiz-adv-x="960" d="M72 326v358h817v-358h-817z" />
<glyph unicode="&#x2012;" horiz-adv-x="960" d="M72 326v358h817v-358h-817z" />
<glyph unicode="&#x2013;" horiz-adv-x="1179" d="M72 340v330h1020v-330h-1020z" />
<glyph unicode="&#x2014;" horiz-adv-x="1511" d="M72 340v330h1366v-330h-1366z" />
<glyph unicode="&#x2018;" horiz-adv-x="524" d="M43 909v15q0 103 90 190l229 238l148 -68l-92 -375q-22 -90 -57 -125.5t-123 -35.5h-43q-152 0 -152 161z" />
<glyph unicode="&#x2019;" horiz-adv-x="524" d="M14 797l92 374q20 90 56 126t125 36h43q151 0 151 -162v-14q0 -94 -90 -190l-227 -238z" />
<glyph unicode="&#x201a;" horiz-adv-x="524" d="M10 -199l92 375q20 90 56 126t125 36h43q151 0 151 -162v-14q0 -95 -90 -191l-227 -237z" />
<glyph unicode="&#x201c;" horiz-adv-x="1001" d="M43 909v15q0 103 90 190l229 238l148 -68l-92 -375q-22 -90 -57 -125.5t-123 -35.5h-43q-152 0 -152 161zM520 909v15q0 103 90 190l228 238l149 -68l-94 -375q-20 -89 -55 -125t-123 -36h-43q-152 0 -152 161z" />
<glyph unicode="&#x201d;" horiz-adv-x="1001" d="M12 795l94 376q22 90 57 125t124 35h43q151 0 151 -160v-16q0 -98 -90 -188l-229 -240zM489 795l95 376q22 90 56.5 125t123.5 35h41q153 0 153 -160v-16q0 -99 -92 -188l-227 -240z" />
<glyph unicode="&#x201e;" horiz-adv-x="1001" d="M8 -201l94 377q22 90 57 125t124 35h43q151 0 151 -160v-16q0 -99 -90 -189l-229 -239zM485 -201l95 377q22 90 56.5 125t123.5 35h41q153 0 153 -160v-16q0 -100 -92 -189l-227 -239z" />
<glyph unicode="&#x2022;" horiz-adv-x="743" d="M74 506q0 129 86 217t213 88q126 0 211.5 -88t85.5 -217q0 -124 -87 -211.5t-210 -87.5q-129 0 -214 85t-85 214z" />
<glyph unicode="&#x2026;" horiz-adv-x="1589" d="M72 150v32q0 85 40.5 125.5t125.5 40.5h47q89 0 129.5 -40.5t40.5 -125.5v-32q0 -85 -41 -125.5t-129 -40.5h-47q-166 0 -166 166zM600 150v32q0 166 168 166h47q88 0 129 -40.5t41 -125.5v-32q0 -85 -42 -125.5t-128 -40.5h-47q-168 0 -168 166zM1130 150v32 q0 85 40.5 125.5t125.5 40.5h47q89 0 129.5 -40.5t40.5 -125.5v-32q0 -85 -41 -125.5t-129 -40.5h-47q-166 0 -166 166z" />
<glyph unicode="&#x202f;" horiz-adv-x="372" />
<glyph unicode="&#x2039;" horiz-adv-x="661" d="M51 506q0 13 25 56.5t68.5 100t94.5 110t110.5 90t107.5 36.5h6q69 0 106 -39t37 -102v-8q0 -34 -26 -71.5t-67 -70.5t-80.5 -58t-78.5 -44q252 -137 252 -244v-10q0 -62 -37.5 -100.5t-105.5 -38.5h-6q-48 0 -107.5 36.5t-110.5 90t-94.5 110t-68.5 100t-25 56.5z" />
<glyph unicode="&#x203a;" horiz-adv-x="661" d="M55 252v10q0 27 18 57.5t44 55.5t62 51.5t66 44.5t62 35q-39 19 -79 44.5t-81 58t-66.5 70t-25.5 71.5v8q0 64 37 102.5t107 38.5h4q60 0 135 -55.5t132.5 -126t97.5 -132.5t40 -79t-40 -79t-97.5 -132.5t-132.5 -126t-135 -55.5h-4q-70 0 -107 38.5t-37 100.5z" />
<glyph unicode="&#x205f;" horiz-adv-x="465" />
<glyph unicode="&#x20ac;" horiz-adv-x="1298" d="M33 408v223h160v61h-160v223h180q49 207 205.5 323t384.5 116q212 0 335.5 -77.5t123.5 -201.5q0 -37 -18 -70.5t-44 -55.5t-52.5 -37.5t-46.5 -21t-24 -1.5q-59 70 -116.5 100.5t-149.5 30.5q-143 0 -203 -105h359v-223h-394v-61h291v-223h-254q62 -105 203 -105 q93 0 150.5 32t115.5 105q4 4 24 -2t46.5 -21.5t52.5 -37.5t44 -56t18 -71q0 -51 -26 -99t-78.5 -89.5t-143.5 -67t-209 -25.5q-231 0 -388 114.5t-206 322.5h-180z" />
<glyph unicode="&#x2122;" horiz-adv-x="1433" d="M20 1139v186h601v-186h-191v-469h-215v469h-195zM684 670v655h223l125 -293l123 293h223v-655h-202v350l-58 -182q-4 -17 -8 -23.5t-23 -13t-57 -6.5q-15 0 -26.5 1t-19.5 1.5t-14 4t-9 4.5t-6 6.5t-3.5 7l-3 9t-2.5 9.5l-59 174v-342h-203z" />
<glyph unicode="&#xe000;" horiz-adv-x="1013" d="M0 0v1014h1014v-1014h-1014z" />
</font>
</defs>
</svg>
