<?xml version="1.0" standalone="no"?>
<!DOCTYPE svg PUBLIC "-//W3C//DTD SVG 1.1//EN" "http://www.w3.org/Graphics/SVG/1.1/DTD/svg11.dtd" >
<svg xmlns="http://www.w3.org/2000/svg">
<metadata></metadata>
<defs>
<font id="omnesods_semibolditalic" horiz-adv-x="1253" >
<font-face units-per-em="2048" ascent="1434" descent="-614" />
<missing-glyph horiz-adv-x="348" />
<glyph unicode="&#xfb01;" horiz-adv-x="1210" d="M68 778l47 221h196l19 82q40 185 151.5 276t309.5 91q149 0 228 -45t79 -129q0 -71 -58 -103.5t-122 -23.5q-15 34 -54 54t-86 20q-134 0 -166 -152l-16 -70h604l-213 -999h-289l166 778h-311l-164 -778h-289l166 778h-198z" />
<glyph unicode="&#xfb02;" horiz-adv-x="1286" d="M68 778l47 221h196l17 68q77 369 391 369q141 0 209 -68q39 -36 39 -88q0 -34 -18.5 -66.5t-37 -48.5t-22.5 -12q-21 27 -58.5 44t-80.5 17q-58 0 -94 -35.5t-54 -117.5l-14 -62h239l-47 -221h-227l-164 -778h-289l166 778h-198zM815 256l246 1149q0 3 12.5 7t32.5 7.5 t37 3.5q207 -8 157 -252l-194 -905q-18 -83 -0.5 -120t80.5 -46q1 -1 -2 -13t-13.5 -30t-28.5 -35.5t-51.5 -29.5t-76.5 -12q-132 0 -178.5 73.5t-20.5 202.5z" />
<glyph horiz-adv-x="2048" />
<glyph horiz-adv-x="2048" />
<glyph unicode="&#xd;" horiz-adv-x="2048" />
<glyph unicode=" "  horiz-adv-x="348" />
<glyph unicode="&#x09;" horiz-adv-x="348" />
<glyph unicode="&#xa0;" horiz-adv-x="348" />
<glyph unicode="!" horiz-adv-x="567" d="M45 90q0 105 53 158q21 21 48.5 30t80.5 9q140 0 140 -107q0 -106 -54 -157q-21 -21 -47.5 -29t-81.5 -8q-139 0 -139 104zM199 420l71 905h383l-319 -905h-135z" />
<glyph unicode="&#x22;" horiz-adv-x="886" d="M221 811l19 387q3 143 143 143q106 0 143 -44t6 -128l-139 -376q-14 -38 -31 -53t-51 -15q-50 0 -70.5 17.5t-19.5 68.5zM610 811l29 387q9 143 147 143q211 0 144 -172l-148 -376q-16 -38 -33 -53t-51 -15q-50 0 -70.5 17.5t-17.5 68.5z" />
<glyph unicode="#" horiz-adv-x="1343" d="M8 303l43 215h268q6 18 15.5 48t29 93.5t32.5 105.5t12 42h-242l45 215h264l96 313q4 13 33 13q43 0 85 -36t42 -98q0 -32 -14 -75l-35 -117h270l97 313q4 13 32 13q43 0 85 -36t42 -98q0 -32 -14 -75l-35 -117h244l-45 -215h-266l-91 -289h244l-45 -215h-264l-96 -313 q-3 -10 -33 -10q-44 0 -85.5 34.5t-41.5 98.5q0 32 14 73l35 117h-270l-99 -313q0 -10 -30 -10q-44 0 -86.5 34.5t-42.5 98.5q0 27 16 73l35 117h-244zM522 516h277l90 293h-277z" />
<glyph unicode="$" horiz-adv-x="1138" d="M-35 291l168 164q55 -99 156 -165.5t213 -70.5q117 -4 175 39.5t58 122.5q0 27 -13 51t-29.5 40t-53 35.5t-60 30t-75.5 31.5q-40 17 -65.5 29.5t-62.5 33.5t-61.5 40.5t-51.5 48.5t-42.5 60t-26 72.5t-10.5 88.5q0 160 115.5 268.5t329.5 118.5l45 199h246l-50 -219 q143 -34 226 -117q67 -64 67 -148q0 -31 -12 -58.5t-28.5 -43.5t-35 -29t-31 -14.5t-16.5 0.5q-57 95 -151 151.5t-209 57.5q-95 1 -151 -43t-56 -111q0 -30 13.5 -55.5t30 -42.5t55.5 -38t62.5 -32t78.5 -34q50 -21 82.5 -36t77 -40t72.5 -51t55 -60.5t40 -77.5t13 -94 q0 -174 -118.5 -280t-348.5 -115l-47 -205h-248l53 230q-123 31 -221.5 102.5t-157.5 165.5z" />
<glyph unicode="%" horiz-adv-x="1538" d="M-59 0l1464 1325h258l-1464 -1325h-258zM143 983q0 153 94.5 258t251.5 105q132 0 213.5 -79.5t81.5 -203.5q0 -153 -95 -258t-253 -105q-131 0 -212 79.5t-81 203.5zM313 991q0 -60 39.5 -100.5t96.5 -40.5q71 0 117 59.5t46 145.5q0 60 -38 100.5t-95 40.5 q-72 0 -119 -60t-47 -145zM823 268q0 153 95 258t253 105q132 0 212.5 -79.5t80.5 -203.5q0 -153 -94.5 -257.5t-251.5 -104.5q-132 0 -213.5 79t-81.5 203zM995 276q0 -60 38.5 -100.5t94.5 -40.5q72 0 118 59.5t46 145.5q0 60 -38 100.5t-95 40.5q-72 0 -118 -59.5 t-46 -145.5z" />
<glyph unicode="&#x26;" horiz-adv-x="1425" d="M16 336q0 171 101.5 269.5t285.5 148.5q-69 99 -69 213q0 76 29.5 145t83 122.5t134.5 85.5t177 32q159 0 262.5 -86t103.5 -224q0 -140 -92.5 -222.5t-267.5 -121.5l225 -268q132 146 178 340l230 -61q-79 -267 -256 -433l10 -10q41 -55 85 -80.5t112 -29.5 q3 0 4.5 -17.5t-4 -43t-20 -51t-49.5 -43t-87 -17.5q-78 0 -126 29.5t-112 101.5l-10 12q-199 -152 -459 -152q-222 0 -345.5 100.5t-123.5 260.5zM281 375q0 -83 59.5 -137t175.5 -54q161 0 283 101l-285 338q-117 -35 -175 -95t-58 -153zM592 983q0 -49 14.5 -86.5 t48.5 -79.5q123 32 178.5 77t55.5 134q0 56 -37.5 91.5t-99.5 35.5q-71 0 -115.5 -51.5t-44.5 -120.5z" />
<glyph unicode="'" horiz-adv-x="487" d="M219 811l23 387q6 143 143 143q106 0 143 -44t4 -128l-141 -376q-14 -38 -31.5 -53t-50.5 -15q-51 0 -72 17.5t-18 68.5z" />
<glyph unicode="(" horiz-adv-x="829" d="M57 287q0 234 91 458t253 388q211 208 433 208q65 0 102 -31t37 -89q0 -24 -10 -50t-21 -40.5t-16 -14.5q-93 -8 -170.5 -44.5t-153.5 -110.5q-125 -125 -190.5 -308.5t-65.5 -371.5q0 -257 141 -398q59 -56 144 -86q2 -1 7.5 -12.5t11 -31t5.5 -36.5q0 -55 -38.5 -91 t-104.5 -36q-131 0 -250 119q-96 94 -150.5 244.5t-54.5 333.5z" />
<glyph unicode=")" horiz-adv-x="829" d="M-156 -287q0 24 10 50t21 40.5t16 14.5q184 15 324 155q126 126 192 309.5t66 370.5q0 255 -143 398q-59 56 -144 86q-2 1 -7.5 12.5t-11 31t-5.5 36.5q0 55 39 90.5t104 35.5q134 0 252 -118q95 -95 150 -245.5t55 -332.5q0 -233 -91.5 -457.5t-254.5 -388.5 q-209 -209 -432 -209q-65 0 -102.5 31.5t-37.5 89.5z" />
<glyph unicode="*" horiz-adv-x="841" d="M144.5 1018.5q-9.5 20.5 2.5 58.5l3 8q9 35 30.5 47t67.5 5l180 -41l18 176q6 46 24 62t54 16h8q36 0 55 -16t25 -62l15 -178l178 43q47 7 68.5 -5.5t31.5 -46.5l2 -8q12 -36 2.5 -57.5t-51.5 -42.5l-166 -72l99 -162q39 -71 -21 -110l-6 -4q-18 -11 -32.5 -15t-35.5 3 t-43 28l-127 146l-127 -146q-31 -31 -56 -32.5t-52 16.5l-8 4q-31 18 -36 42t17 68l96 164l-163 70q-43 21 -52.5 41.5z" />
<glyph unicode="+" horiz-adv-x="1097" d="M51 422l47 217h367l78 371h229l-78 -371h365l-45 -217h-365l-84 -387h-227l82 387h-369z" />
<glyph unicode="," horiz-adv-x="497" d="M-113 -188l213 481q1 3 26 4t60 -4.5t69.5 -17.5t58.5 -39.5t24 -65.5q0 -39 -17.5 -73t-62.5 -83l-258 -272z" />
<glyph unicode="-" horiz-adv-x="876" d="M57 369l54 264h710l-55 -264h-709z" />
<glyph unicode="." horiz-adv-x="489" d="M6 90q0 108 53 158q22 22 48.5 30.5t80.5 8.5q140 0 140 -107q0 -103 -54 -157q-21 -21 -48 -29t-81 -8q-71 0 -105 25t-34 79z" />
<glyph unicode="/" horiz-adv-x="735" d="M-240 -422l924 1755h274l-923 -1755h-275z" />
<glyph unicode="0" horiz-adv-x="1316" d="M90 457q0 129 49 329q64 278 218 422t421 144q245 0 381.5 -134t136.5 -350q0 -119 -49 -329q-42 -185 -120.5 -308t-208.5 -190.5t-310 -67.5q-246 0 -382 133.5t-136 350.5zM389 463q0 -112 66 -180t184 -68q69 0 121 23t86.5 69t57 99.5t40.5 128.5q53 223 53 327 q0 111 -66 179.5t-183 68.5q-69 0 -121 -23t-87 -69t-57.5 -100t-40.5 -130q-53 -220 -53 -325z" />
<glyph unicode="1" horiz-adv-x="882" d="M109 978.5q-1 37.5 13.5 73t37.5 48.5q257 70 497 231h232l-283 -1331h-299l209 977q-166 -109 -283 -103q-60 4 -91.5 35.5t-32.5 69z" />
<glyph unicode="2" horiz-adv-x="1134" d="M-37 0q35 172 37 197q30 189 160 301q92 79 178.5 124t222.5 85q74 24 118.5 40.5t89.5 39t68 45t37.5 54t14.5 70.5q0 74 -56.5 118t-158.5 44q-114 0 -191.5 -56t-132.5 -159q-2 0 -17.5 -0.5t-39.5 8.5t-46 22t-38 39.5t-16 61.5q0 95 81 176q67 65 169.5 103.5 t234.5 38.5q231 0 363.5 -105.5t132.5 -277.5q0 -72 -14 -129t-45.5 -102t-71 -79.5t-101.5 -65t-125 -54t-153 -50.5q-157 -44 -219 -70.5t-113 -70.5q-49 -43 -70 -110h760l-51 -238h-1008z" />
<glyph unicode="3" horiz-adv-x="1153" d="M-51 319l229 115q87 -227 322 -227q130 0 201 60t71 153q0 74 -53 116t-156 42h-63q-109 0 -109 84q0 25 10 56t27 48q20 20 47 26.5t80 6.5h80q237 0 237 168q1 68 -61.5 110.5t-163.5 42.5q-113 0 -189.5 -49.5t-117.5 -126.5q-2 -2 -18 -4t-40 6t-46.5 20t-39 39.5 t-16.5 63.5q0 72 64 139q68 68 176 106t244 38q232 0 365.5 -89.5t133.5 -250.5q0 -125 -76.5 -216.5t-228.5 -117.5q102 -37 153.5 -110t51.5 -167q0 -64 -16 -122t-56.5 -114.5t-102.5 -97.5t-161.5 -66.5t-226.5 -25.5q-222 0 -358 92t-193 252z" />
<glyph unicode="4" horiz-adv-x="1239" d="M47 500q0 50 21.5 91.5t81.5 110.5l598 623h403l-164 -768h211l-47 -227h-203l-67 -330h-277l68 330h-479q-60 0 -103 49t-43 121zM309 551h422l119 569z" />
<glyph unicode="5" horiz-adv-x="1126" d="M2 252q0 29 12 56t29.5 44.5t35.5 30t31 17t15 1.5q59 -99 148 -150.5t229 -51.5q125 0 201.5 67t76.5 172q0 187 -241 187q-140 0 -258 -66q-87 20 -121.5 66.5t-14.5 134.5l121 565h903l-53 -246h-649l-61 -280q92 30 204 30q218 0 334.5 -98t116.5 -266 q0 -221 -152.5 -355.5t-408.5 -134.5q-308 0 -434 129q-64 64 -64 148z" />
<glyph unicode="6" horiz-adv-x="1234" d="M94 481q0 68 13.5 155.5t41 187.5t78 198t115.5 164q82 82 185 124t259 42q126 0 228.5 -35.5t159.5 -91.5q61 -64 61 -135q0 -38 -16.5 -67.5t-39.5 -43.5t-47.5 -24.5t-40.5 -9.5t-18 1q-33 75 -107.5 120.5t-172.5 45.5q-145 0 -237 -99.5t-140 -303.5 q135 122 348 122q178 0 289.5 -93t111.5 -255q0 -102 -38.5 -194t-108 -162t-176 -111t-234.5 -41q-237 0 -375.5 137t-138.5 369zM385 471q-9 -127 54 -199.5t182 -72.5q118 0 188 73t70 183q0 90 -59 141t-171 51q-80 0 -139.5 -25t-118.5 -73q-6 -37 -6 -78z" />
<glyph unicode="7" horiz-adv-x="1118" d="M150 115q0 41 18.5 72.5t71.5 95.5l637 788h-715l55 254h875q7 0 22.5 -14.5t32 -37.5t29 -58t12.5 -70q0 -53 -22 -100.5t-79 -114.5l-747 -944q-3 1 -21.5 -1t-47 5.5t-55.5 19t-46.5 39.5t-19.5 66z" />
<glyph unicode="8" horiz-adv-x="1228" d="M35 338q0 126 90.5 221.5t259.5 132.5q-180 75 -180 254q0 175 150.5 290.5t377.5 115.5q228 0 362 -96.5t134 -249.5q0 -127 -77.5 -217t-225.5 -125q213 -81 213 -279q0 -182 -152.5 -296t-408.5 -114q-254 0 -398.5 96.5t-144.5 266.5zM336 377q0 -84 68 -135.5 t184 -51.5q118 0 190 63t72 161q0 81 -68.5 131.5t-187.5 50.5q-108 0 -183 -61.5t-75 -157.5zM481 924q0 -75 61.5 -121.5t162.5 -46.5q107 0 174 58t67 149q0 76 -62.5 123t-162.5 47q-105 0 -172.5 -59t-67.5 -150z" />
<glyph unicode="9" horiz-adv-x="1234" d="M70 231q0 35 15 63.5t36 43t43.5 25t37.5 10.5h17q39 -73 115 -115.5t170 -42.5q149 0 239.5 93t135.5 284q-137 -117 -338 -117q-184 0 -295 93t-111 263q0 108 39 202.5t110 165.5t177 112t233 41q243 0 380.5 -136.5t137.5 -369.5q0 -68 -13.5 -155.5t-40.5 -188 t-77.5 -198t-115.5 -163.5q-82 -82 -185.5 -124t-259.5 -42q-150 0 -240.5 30.5t-150.5 90.5q-59 62 -59 135zM424 862q0 -96 56 -149.5t169 -53.5q140 0 258 99q13 67 13 96q7 130 -55.5 202t-178.5 72q-119 0 -190.5 -75t-71.5 -191z" />
<glyph unicode=":" horiz-adv-x="522" d="M23 90q0 105 53 158q21 21 48.5 30t80.5 9q139 0 139 -107q0 -104 -53 -157q-21 -21 -48 -29t-81 -8q-71 0 -105 25t-34 79zM154 715q0 104 53 157q21 21 48.5 30t80.5 9q139 0 139 -106q0 -107 -51 -158q-21 -21 -48 -29t-81 -8q-141 0 -141 105z" />
<glyph unicode=";" horiz-adv-x="532" d="M-96 -188l215 481q1 3 26 4t59.5 -4.5t69 -17.5t58.5 -39.5t24 -65.5t-18 -72t-64 -84l-258 -272zM164 715q0 104 53 157q21 21 48.5 30t80.5 9q139 0 139 -106q0 -105 -53 -158q-21 -21 -48 -29t-81 -8q-139 0 -139 105z" />
<glyph unicode="&#x3c;" horiz-adv-x="940" d="M76 440l45 207l753 365q7 2 23 -16t31 -52.5t14 -69.5q0 -95 -127 -151l-438 -201l307 -176q122 -69 115 -164q-3 -36 -20.5 -69t-35.5 -48.5t-26 -11.5z" />
<glyph unicode="=" horiz-adv-x="1097" d="M20 156l54 247h911l-51 -247h-914zM125 651l53 248h912l-52 -248h-913z" />
<glyph unicode="&#x3e;" horiz-adv-x="940" d="M10 190q0 95 129 152l436 201l-307 176q-122 66 -114 164q3 35 21 68t36 49t25 12l641 -387l-46 -209l-753 -363q-7 -2 -23 16t-31 52t-14 69z" />
<glyph unicode="?" horiz-adv-x="1021" d="M154 1049q0 91 79 170q133 133 373 133q210 0 339.5 -103t129.5 -264q0 -52 -12 -96.5t-29.5 -76.5t-47 -60t-55 -45.5t-64 -35t-63.5 -26t-63 -20.5q-94 -28 -127.5 -48.5t-46.5 -64.5l-28 -106h-226l6 88q2 69 16.5 116.5t46.5 81t73 55t108 44.5q119 39 165 75.5 t46 104.5q0 67 -51 109t-135 42q-100 0 -172 -53t-107 -145q-1 -2 -17 0t-38.5 9t-45 20t-38.5 38t-16 58zM229 90q0 104 54 158q21 21 48.5 30t80.5 9q139 0 139 -107q0 -104 -53 -157q-21 -21 -47.5 -29t-81.5 -8q-140 0 -140 104z" />
<glyph unicode="@" horiz-adv-x="1515" d="M111 575q0 217 99 395t273.5 280t388.5 102q278 0 450.5 -150.5t172.5 -396.5q0 -215 -104.5 -343t-276.5 -128q-199 0 -231 145q-67 -135 -226 -135q-98 0 -160.5 64.5t-62.5 173.5q0 96 40 182.5t115 142.5t167 56q62 0 112 -28t74 -79q20 52 52.5 74t84.5 22 q18 0 34.5 -4.5t25 -9.5t8.5 -8l-70 -322q-29 -131 82 -131q96 0 152.5 84t56.5 238q0 193 -142.5 314.5t-365.5 121.5q-174 0 -316 -85t-223 -234t-81 -332q0 -220 145 -356t389 -136q91 0 177.5 29t146.5 76q41 26 71 26q23 0 42 -18.5t27 -37.5t3 -22 q-77 -79 -200 -125.5t-277 -46.5q-303 0 -478 162.5t-175 439.5zM623 612q0 -53 30.5 -84.5t77.5 -31.5q57 0 103 41.5t59 105.5l14 76q-30 92 -121 92q-72 0 -117.5 -60.5t-45.5 -138.5z" />
<glyph unicode="A" horiz-adv-x="1347" d="M-127 0l801 1325h319l252 -1325h-307l-57 338h-484l-190 -338h-334zM502 563h362l-86 479z" />
<glyph unicode="B" horiz-adv-x="1304" d="M12 0l281 1325h561q209 0 317.5 -76t108.5 -221q0 -129 -66.5 -215t-216.5 -127q116 -32 176 -102.5t60 -167.5q0 -93 -30.5 -166.5t-96.5 -131t-179.5 -88t-269.5 -30.5h-645zM354 215h295q147 0 213 53t66 166q0 72 -56.5 112t-164.5 40h-273zM469 758h248 q118 0 185 56t67 153q-3 143 -205 143h-219z" />
<glyph unicode="C" horiz-adv-x="1327" d="M98 559q0 157 57 302.5t155.5 253.5t239.5 172.5t300 64.5q276 0 422 -146q40 -40 62 -86.5t22 -81.5q0 -32 -10.5 -59.5t-27.5 -45t-37.5 -31t-41 -20t-38.5 -10t-30 -3.5t-14 3q-80 209 -305 209q-122 0 -224 -66.5t-159 -178t-57 -242.5q0 -156 93 -252t243 -96 q214 0 329 170l195 -142q-33 -61 -80.5 -111.5t-114 -94.5t-157.5 -68.5t-197 -24.5q-285 0 -455 158t-170 426z" />
<glyph unicode="D" horiz-adv-x="1378" d="M10 0l283 1325h412q301 0 472 -148t171 -403q0 -159 -52.5 -297t-152.5 -245.5t-260.5 -169.5t-362.5 -62h-510zM367 256h194q119 0 212.5 38.5t152 105t88.5 152t30 183.5q0 157 -97 245.5t-271 88.5h-137z" />
<glyph unicode="E" horiz-adv-x="1228" d="M12 0l283 1325h1032l-31 -147q-12 -60 -50 -87.5t-111 -27.5h-594l-58 -264h568l-54 -248h-567l-61 -289h737l-55 -262h-1039z" />
<glyph unicode="F" horiz-adv-x="1138" d="M12 0l283 1325h969l-31 -143q-12 -60 -50.5 -87.5t-111.5 -27.5h-534l-70 -330h522l-53 -245h-514l-105 -492h-305z" />
<glyph unicode="G" horiz-adv-x="1468" d="M98 547q0 159 57.5 305.5t157 257t244.5 176.5t311 66q150 0 266.5 -43t184.5 -111q76 -76 76 -158q0 -43 -19 -74t-46 -45t-55 -20.5t-48 -6t-23 4.5q-42 86 -129 140.5t-201 54.5q-130 0 -237.5 -70t-168 -190t-60.5 -267q0 -166 92 -263q94 -97 252 -97q142 0 235 80 q45 41 67.5 80.5t45.5 130.5h-346l49 227h620l-151 -709q-1 -4 -12 -9.5t-31.5 -10t-44.5 -4.5q-69 0 -106 39q-34 35 -34 107v16q-60 -83 -161 -131t-228 -48q-252 0 -404.5 154t-152.5 418z" />
<glyph unicode="H" horiz-adv-x="1402" d="M12 0l285 1325h301l-113 -532h559l115 532h301l-282 -1325h-304l115 537h-559l-115 -537h-303z" />
<glyph unicode="I" horiz-adv-x="571" d="M29 0l282 1325h303l-282 -1325h-303z" />
<glyph unicode="J" horiz-adv-x="1005" d="M-4 207q0 39 14 71t33.5 49.5t40 29t35 14.5t16.5 0q35 -65 93 -102.5t130 -37.5q100 0 155.5 60t84.5 198l178 836h301l-186 -887q-50 -233 -175.5 -348t-344.5 -115q-205 0 -316 107q-59 59 -59 125z" />
<glyph unicode="K" horiz-adv-x="1245" d="M12 0l285 1325h301l-121 -569l580 569h379l-691 -659l230 -359q57 -87 94.5 -114.5t99.5 -32.5q2 0 2.5 -10t-2.5 -26t-9.5 -35t-21.5 -38t-34.5 -35t-52 -26t-72.5 -10q-99 0 -170.5 59.5t-134.5 185.5l-228 387l-131 -612h-303z" />
<glyph unicode="L" horiz-adv-x="1081" d="M12 0l285 1325h301l-227 -1061h628l-57 -264h-930z" />
<glyph unicode="M" horiz-adv-x="1554" d="M12 0l283 1325h336l155 -727l467 727h359l-283 -1325h-285l195 918l-334 -521q-22 -37 -38.5 -57.5t-50 -38.5t-77.5 -18q-75 0 -104.5 33t-36.5 90l-109 501l-192 -907h-285z" />
<glyph unicode="N" horiz-adv-x="1417" d="M12 0l283 1325h264l447 -870l184 870h283l-283 -1325h-246l-459 899l-190 -899h-283z" />
<glyph unicode="O" horiz-adv-x="1492" d="M100 561q0 215 95.5 395.5t268 288t384.5 107.5q146 0 264 -46t193.5 -126.5t116 -185.5t40.5 -226q0 -160 -56.5 -305.5t-154 -253t-237.5 -171t-299 -63.5q-146 0 -264.5 46.5t-194 127t-116 186t-40.5 226.5zM403 582q0 -148 88.5 -245t241.5 -97q110 0 207.5 65 t158 183t60.5 260q0 146 -88.5 242.5t-241.5 96.5q-83 0 -160.5 -38.5t-136 -104.5t-94 -161t-35.5 -201z" />
<glyph unicode="P" horiz-adv-x="1206" d="M12 0l283 1325h459q239 0 366 -97t127 -284q0 -239 -149 -376.5t-439 -137.5h-251l-93 -430h-303zM453 657h231q124 0 195 67t71 189q0 177 -227 177h-180z" />
<glyph unicode="Q" horiz-adv-x="1509" d="M100 561q0 161 56.5 306t154.5 252t239.5 170t303.5 63q147 0 264.5 -45.5t192 -125.5t114 -185.5t39.5 -227.5q0 -152 -54.5 -291t-152.5 -246l7 -10q71 -95 129 -119q2 -1 0 -14.5t-11 -32.5t-24.5 -38t-45 -32.5t-67.5 -13.5q-60 0 -102 21t-90 80q-166 -88 -353 -88 q-147 0 -262.5 44.5t-188.5 123t-111 182.5t-38 227zM403 582q0 -148 88.5 -245t241.5 -97q97 0 182 45l-202 284h295q84 -114 84 -116q79 127 79 295q0 147 -88 243t-243 96q-180 0 -308.5 -145t-128.5 -360z" />
<glyph unicode="R" horiz-adv-x="1255" d="M12 0l283 1325h487q246 0 370 -92.5t124 -271.5q0 -191 -116 -313.5t-324 -141.5l114 -195q52 -87 90.5 -118t106.5 -37q2 0 3.5 -9.5t-1 -24.5t-8.5 -33t-20.5 -35.5t-34.5 -32.5t-53.5 -24t-74.5 -9q-91 0 -150.5 47.5t-131.5 183.5l-139 252h-123l-101 -471h-301z M457 692h245q130 0 198.5 62.5t68.5 171.5q0 80 -57.5 122t-166.5 42h-204z" />
<glyph unicode="S" horiz-adv-x="1153" d="M-35 244l162 182q67 -98 171 -157.5t232 -59.5q108 0 163 43t55 121q0 26 -12.5 48t-26.5 36t-50.5 32.5t-56.5 26.5t-72 28q-12 5 -18 7q-57 22 -97.5 41.5t-89 53t-78.5 70.5t-50.5 92.5t-20.5 121.5q0 85 32.5 160t95 134t163.5 93.5t227 34.5q290 0 428 -138 q68 -65 68 -145q0 -51 -32.5 -91.5t-64.5 -57t-36 -9.5q-57 94 -154 149.5t-215 55.5q-96 0 -154.5 -44t-58.5 -111q0 -17 3.5 -32t12.5 -28t16.5 -23t25 -21t29 -18t36 -18t38.5 -16.5t45 -18t46 -18.5q61 -23 103.5 -42.5t92.5 -52t80 -68t51 -88t21 -114.5 q0 -195 -137.5 -312.5t-405.5 -117.5q-201 0 -347.5 77.5t-219.5 193.5z" />
<glyph unicode="T" horiz-adv-x="1239" d="M160 1061l57 264h1159l-30 -149q-13 -61 -51.5 -88t-110.5 -27h-291l-227 -1061h-301l225 1061h-430z" />
<glyph unicode="U" horiz-adv-x="1347" d="M127 610l154 715h303l-158 -737q-13 -63 -13 -115q0 -89 38 -146q60 -89 213 -89q227 0 290 301l170 786h297l-174 -811q-113 -539 -614 -539q-309 0 -441 162q-88 107 -88 280q0 88 23 193z" />
<glyph unicode="V" horiz-adv-x="1314" d="M170 1325h322l145 -958l537 958h350l-830 -1325h-268z" />
<glyph unicode="W" horiz-adv-x="1943" d="M240 1325h317l2 -960l359 710q57 111 184 111q162 0 168 -133l47 -693l420 965h325l-632 -1325h-328l-58 821l-428 -821h-321z" />
<glyph unicode="X" horiz-adv-x="1355" d="M-135 0l663 690l-305 635h324l205 -485l428 485h376l-665 -696l309 -629h-326l-204 483l-428 -483h-377z" />
<glyph unicode="Y" horiz-adv-x="1290" d="M152 1325h305l223 -555l463 555h360l-712 -815l-109 -510h-301l113 537z" />
<glyph unicode="Z" horiz-adv-x="1206" d="M-72 0l45 219l906 852h-682l53 254h1089l-45 -219l-905 -852h713l-55 -254h-1119z" />
<glyph unicode="[" horiz-adv-x="763" d="M-70 -403l369 1742h610l-51 -237h-340l-270 -1272h340l-49 -236z" />
<glyph unicode="\" horiz-adv-x="735" d="M160 1333h243l181 -1755h-244z" />
<glyph unicode="]" horiz-adv-x="763" d="M-158 -406l49 236h340l271 1272h-340l49 237h608l-368 -1745h-609z" />
<glyph unicode="^" horiz-adv-x="1024" d="M309 987q0 85 135 189q61 48 128 84t110 45q25 -8 72 -45t86 -82q88 -98 88 -168q0 -47 -27.5 -77t-71.5 -30q-78 0 -143 121q-6 14 -19.5 41.5t-19.5 40.5l-72 -82q-97 -121 -180 -121q-39 0 -62.5 24.5t-23.5 59.5z" />
<glyph unicode="_" horiz-adv-x="1015" d="M-127 -221l47 221h965l-45 -221h-967z" />
<glyph unicode="`" horiz-adv-x="1024" d="M360 1368q0 53 35.5 89t89.5 36q60 0 111 -39q87 -59 157 -171t56 -136q-5 -8 -28 -11.5t-60.5 -0.5t-80.5 12t-93.5 29.5t-93.5 48.5q-93 59 -93 143z" />
<glyph unicode="a" d="M51 385q0 95 26 188.5t75 174.5t115 143t152.5 97.5t180.5 35.5q106 0 192 -47.5t130 -132.5q29 87 79.5 125.5t131.5 38.5q26 0 51 -6.5t37.5 -15t11.5 -13.5l-207 -973h-278q16 84 34 174q-58 -93 -150 -146t-202 -53q-166 0 -272.5 110.5t-106.5 299.5zM332 426 q0 -101 57.5 -161t145.5 -60q110 0 196 78.5t111 197.5l28 142q-58 176 -231 176q-91 0 -163 -56t-108 -140t-36 -177z" />
<glyph unicode="b" horiz-adv-x="1234" d="M0 0l299 1405q0 3 11 7t30.5 7.5t40.5 3.5q83 -1 133 -61q33 -40 33 -111q0 -36 -8 -80l-66 -311q121 164 315 164q168 0 281 -115t113 -315q0 -94 -24 -184.5t-70 -168.5t-108.5 -138t-145.5 -94t-175 -34q-114 0 -205.5 53.5t-136.5 149.5l-36 -178h-281zM393 496 q-7 -35 -7 -67q0 -81 44 -141q62 -84 186 -85q131 0 208 106t77 250q0 107 -60 171.5t-153 64.5q-77 0 -148 -43t-116 -113z" />
<glyph unicode="c" horiz-adv-x="1062" d="M47 434q0 116 44.5 224t120 188.5t182 129t224.5 48.5q232 0 357 -125q76 -76 76 -162q0 -42 -18.5 -73t-45.5 -45t-54 -20.5t-46.5 -5t-20.5 6.5q-16 87 -77.5 140t-163.5 53q-135 0 -223.5 -101.5t-88.5 -234.5q0 -111 68 -180.5t184 -69.5q150 0 240 141l176 -125 q-52 -100 -168.5 -174t-271.5 -74q-221 0 -357.5 122.5t-136.5 336.5z" />
<glyph unicode="d" d="M57 406q0 94 24 184.5t70 168.5t108.5 137.5t145.5 93.5t175 34q109 0 198.5 -46.5t139.5 -133.5l71 340q28 130 81.5 184.5t150.5 54.5q26 0 50.5 -6.5t37.5 -14.5t12 -13l-293 -1389h-278l32 162q-120 -187 -331 -187q-168 0 -281 116t-113 315zM338 438 q0 -106 60 -169.5t151 -63.5q103 0 183.5 73.5t105.5 192.5l32 150q-35 88 -90.5 133t-152.5 45q-90 0 -157.5 -53.5t-99.5 -134t-32 -173.5z" />
<glyph unicode="e" horiz-adv-x="1081" d="M45 399q0 179 84 322.5t227.5 223t317.5 79.5q187 0 291 -79.5t104 -211.5q0 -63 -15.5 -111t-55 -90.5t-103.5 -70t-165 -43t-236 -15.5q-34 0 -205 9v-6q0 -106 63 -166t180 -60q184 0 295 148l164 -138q-157 -215 -463 -215q-237 0 -360 116.5t-123 307.5zM328 588 q77 -6 139 -6q196 0 277 36t81 103q0 44 -43 76t-120 32q-110 0 -199 -67t-135 -174z" />
<glyph unicode="f" horiz-adv-x="780" d="M68 778l47 221h196l17 68q77 369 391 369q141 0 209 -68q39 -36 39 -88q0 -34 -18.5 -66.5t-37 -48.5t-22.5 -12q-21 27 -58.5 44t-80.5 17q-58 0 -94 -35.5t-54 -117.5l-14 -62h239l-47 -221h-227l-164 -778h-289l166 778h-198z" />
<glyph unicode="g" horiz-adv-x="1239" d="M-6 -145q0 33 13.5 60.5t33 44t39.5 27t34.5 13.5t16.5 0q42 -89 117.5 -134.5t204.5 -45.5q246 0 301 254l24 121q-124 -160 -327 -160q-168 0 -279 114t-111 306q0 143 65 272t190 213t282 84q105 0 193 -46t133 -128q29 84 79.5 121t129.5 37q26 0 51 -6.5t37.5 -15 t11.5 -13.5l-191 -897q-52 -244 -198 -365t-400 -121q-260 0 -381 121q-69 69 -69 144zM338 479q0 -104 61 -167.5t150 -63.5q106 0 189 68.5t106 175.5l28 141q-27 82 -85 128t-146 46q-128 0 -215.5 -100t-87.5 -228z" />
<glyph unicode="h" horiz-adv-x="1191" d="M0 0l299 1405q0 3 11 7t30.5 7.5t40.5 3.5q83 -1 133 -61q33 -40 33 -111q0 -36 -8 -80l-74 -340q57 90 144.5 141.5t189.5 51.5q148 0 233.5 -89.5t85.5 -234.5q0 -25 -5.5 -63t-10.5 -63t-19 -85.5t-18 -80.5l-86 -408h-289l86 403q39 164 39 215q0 77 -42.5 120.5 t-119.5 43.5q-73 0 -127 -35t-102 -110l-135 -637h-289z" />
<glyph unicode="i" horiz-adv-x="522" d="M12 0l213 999h289l-213 -999h-289zM272 1296q0 70 44 118t118 48q75 0 119.5 -40.5t44.5 -104.5q0 -69 -44 -116.5t-118 -47.5q-75 0 -119.5 40t-44.5 103z" />
<glyph unicode="j" horiz-adv-x="540" d="M-289 -258q0 20 6 41t15 36.5t18 27.5t15.5 17.5t7.5 4.5q21 -24 56 -39.5t71 -15.5q48 0 76 29.5t42 103.5l226 1052h288l-231 -1085q-35 -169 -119 -248.5t-227 -79.5q-139 0 -205 66q-39 39 -39 90zM291 1296q0 70 44 118t118 48q75 0 119 -40.5t44 -104.5 q0 -69 -43.5 -116.5t-117.5 -47.5q-75 0 -119.5 40t-44.5 103z" />
<glyph unicode="k" horiz-adv-x="1062" d="M0 0l299 1405q0 3 11 7t30.5 7.5t40.5 3.5q83 -1 133 -61q33 -40 33 -111q0 -36 -8 -80l-123 -575l434 403h342l-530 -491l120 -201q55 -95 93.5 -125t107.5 -35q9 0 1 -44t-53.5 -88t-125.5 -44q-89 0 -147 51.5t-130 186.5l-141 256l-98 -465h-289z" />
<glyph unicode="l" horiz-adv-x="536" d="M66 256l245 1149q0 3 11 7t30.5 7.5t40.5 3.5q83 -1 133 -61q33 -40 33 -111q0 -36 -8 -80l-195 -905q-9 -42 -10 -72q0 -29 10 -48q18 -37 80 -46q1 -1 -2 -13t-13.5 -30t-28.5 -35.5t-51.5 -29.5t-76.5 -12q-134 0 -180 74q-29 46 -29 113q0 41 11 89z" />
<glyph unicode="m" horiz-adv-x="1826" d="M0 0l211 989q1 3 11 7.5t29 8t40 3.5q69 0 114.5 -40.5t45.5 -127.5q127 184 333 184q109 0 187.5 -58t103.5 -159q144 217 369 217q139 0 224 -92t85 -232q0 -25 -5 -61.5t-11 -66t-17.5 -82.5t-17.5 -82l-88 -408h-289l88 403q37 173 37 215q0 76 -40 120t-107 44 q-66 0 -116 -31t-100 -102l-137 -649h-288l116 555q8 37 8 68q0 55 -24 96q-38 63 -119 63q-67 0 -116 -30.5t-99 -100.5l-139 -651h-289z" />
<glyph unicode="n" horiz-adv-x="1191" d="M0 0l211 989q1 3 11 7.5t29 8t40 3.5q70 0 115.5 -42.5t44.5 -136.5q129 195 344 195q151 0 237 -89.5t86 -234.5q0 -25 -5.5 -63t-10.5 -63t-19 -85.5t-18 -80.5l-86 -408h-289l86 403q39 164 39 215q0 77 -42.5 120.5t-119.5 43.5q-73 0 -127 -35t-102 -110l-135 -637 h-289z" />
<glyph unicode="o" horiz-adv-x="1144" d="M51 434q0 115 39.5 221t111 188.5t179.5 131.5t235 49q219 0 349.5 -130t130.5 -329q0 -91 -25 -178t-74 -161.5t-116.5 -130.5t-158 -88t-192.5 -32q-219 0 -349 129.5t-130 329.5zM303 444q0 -107 67.5 -178t168.5 -71q130 0 217.5 107t87.5 251q0 109 -67.5 180.5 t-168.5 71.5q-130 0 -217.5 -108t-87.5 -253z" />
<glyph unicode="p" horiz-adv-x="1234" d="M-80 -389l291 1378q1 3 11 7.5t29 8t40 3.5q71 0 117 -44q43 -40 43 -126v-11q124 197 337 197q168 0 281 -115t113 -315q0 -94 -24 -184.5t-70 -168.5t-108.5 -138t-145.5 -94t-175 -34q-115 0 -202 52t-131 139l-117 -555h-289zM393 496q-7 -35 -7 -67q0 -81 44 -141 q62 -85 186 -85q131 0 208 106t77 250q0 107 -60 171.5t-153 64.5q-77 0 -147 -42t-115 -112z" />
<glyph unicode="q" horiz-adv-x="1239" d="M57 406q0 94 24 184.5t70 168.5t108.5 137.5t145.5 93.5t175 34q110 0 200.5 -49t139.5 -137q29 91 79.5 130.5t133.5 39.5q26 0 51 -6.5t37.5 -15t11.5 -13.5l-289 -1362h-289l111 524q-125 -160 -315 -160q-168 0 -281 116t-113 315zM338 438q0 -106 60 -169.5 t151 -63.5q103 0 183.5 73.5t105.5 192.5l32 150q-35 88 -90.5 133t-152.5 45q-90 0 -157.5 -53.5t-99.5 -134t-32 -173.5z" />
<glyph unicode="r" horiz-adv-x="847" d="M0 0l211 989q1 3 11 7.5t29 8t40 3.5q70 0 115.5 -42.5t44.5 -134.5q100 193 270 193q76 0 127 -39.5t51 -101.5q0 -40 -13 -73.5t-31.5 -53.5t-37.5 -33.5t-32 -19t-15 -3.5q-56 60 -139 60q-93 0 -157 -94t-99 -260l-86 -406h-289z" />
<glyph unicode="s" horiz-adv-x="956" d="M-41 193l143 157q57 -77 138 -126.5t180 -49.5q74 0 113.5 28.5t39.5 78.5q0 39 -37 63t-124 57q-53 20 -85 34.5t-76 41.5t-69 55.5t-43 72.5t-18 97q0 138 109.5 229t297.5 91q117 0 213.5 -34.5t155.5 -92.5q49 -49 49 -111q0 -27 -10.5 -50.5t-25.5 -38t-30.5 -24.5 t-27 -13.5t-14.5 -0.5q-48 72 -129 119t-170 47q-70 0 -110 -30t-40 -74q0 -41 42.5 -68.5t137.5 -62.5q55 -21 90.5 -37t79.5 -43t69 -54.5t42.5 -68.5t17.5 -90q0 -144 -111 -231t-311 -87q-315 0 -487 216z" />
<glyph unicode="t" horiz-adv-x="811" d="M82 778l47 221h162l55 256h285l-56 -256h267l-47 -221h-271l-88 -413q-8 -38 -9 -68q0 -104 103 -104q68 0 123 51q5 3 16 -6t21 -31.5t10 -50.5q0 -64 -49 -113q-70 -70 -213 -70q-172 0 -246 99q-49 65 -49 167q0 52 13 113l88 426h-162z" />
<glyph unicode="u" horiz-adv-x="1196" d="M66 297q0 25 5 62.5t11 66.5t17.5 83.5t17.5 82.5l86 407h289l-86 -405q-37 -169 -37 -213q0 -78 41 -122t118 -44q73 0 127 35.5t103 111.5l135 637h289l-211 -991q0 -2 -10 -6t-29 -7t-39 -3q-71 0 -117 42t-45 136q-127 -195 -344 -195q-149 0 -235 89t-86 233z" />
<glyph unicode="v" horiz-adv-x="1077" d="M47 868q-1 0 -1 2q0 4 2 13q3 15 13.5 37t29 44t54.5 37t82 15q89 0 144 -55q75 -75 90 -283l37 -373l397 694h305l-620 -999h-289l-94 666q-14 111 -49 154t-101 48z" />
<glyph unicode="w" horiz-adv-x="1558" d="M67 889q0 13 11 34q12 22 28.5 42.5t52.5 35.5t83 15q90 0 141 -51q72 -72 72 -267v-16l-4 -377l243 500q28 56 63.5 76t94.5 20q76 0 116.5 -30t43.5 -97l32 -473l324 698h289l-524 -999h-267l-65 567l-307 -567h-265l-22 676q-4 104 -38 147t-101 49z" />
<glyph unicode="x" horiz-adv-x="1081" d="M-96 0l452 498l-225 501h301l129 -346l299 346h322l-473 -514l73 -151q46 -100 94.5 -135.5t118.5 -38.5q2 0 3 -10.5t-1 -26.5t-8 -35.5t-19 -39t-31.5 -35.5t-48.5 -26t-67 -10q-93 0 -157 56.5t-121 197.5l-43 95q0 1 -69 -80.5t-139 -163.5l-69 -82h-321z" />
<glyph unicode="y" horiz-adv-x="1083" d="M-121 -252q0 27 13.5 54.5t27 42t17.5 12.5q18 -18 51 -30.5t61 -12.5q60 0 117 45.5t143 169.5l25 39q-68 15 -80 106l-59 492q-12 105 -48 151t-100 51q-3 0 -0.5 15t13 37t29.5 44t56 37t86 15q202 0 228 -338l30 -373l412 694h309l-663 -1065q-83 -128 -145 -199 t-133 -110t-156 -39q-135 0 -195 60q-39 39 -39 102z" />
<glyph unicode="z" horiz-adv-x="1021" d="M-29 0l43 203l635 575h-493l47 221h839l-45 -198l-637 -578h527l-49 -223h-867z" />
<glyph unicode="{" horiz-adv-x="946" d="M12 367l56 254l262 104q73 294 237 461q155 155 353 155q147 0 147 -118q0 -25 -11.5 -51.5t-22.5 -40t-13 -13.5q-166 -3 -272 -112q-62 -61 -104 -160t-77 -256l-268 -119l211 -152q-25 -165 -9 -274t77 -168q49 -49 149 -72q2 0 7.5 -8t10.5 -25t5 -36 q0 -70 -39.5 -108t-116.5 -38q-130 0 -227 97q-81 83 -119.5 218.5t-26.5 307.5z" />
<glyph unicode="|" horiz-adv-x="555" d="M-57 -399l368 1732h289l-369 -1732h-288z" />
<glyph unicode="}" horiz-adv-x="946" d="M-137 -291q0 26 11.5 52.5t23 39.5t14.5 13q163 6 272 112q60 62 102 161t79 255l268 121l-213 149q49 328 -66 443q-48 48 -149 71q-3 1 -8 9.5t-10 26t-5 36.5q0 69 39 106t117 37q68 0 121 -22.5t104 -73.5q82 -82 120 -217t26 -309l211 -154l-56 -252l-262 -104 q-78 -302 -240 -461q-158 -158 -352 -158q-72 0 -109.5 31t-37.5 88z" />
<glyph unicode="~" horiz-adv-x="1024" d="M160 412q0 91 64.5 158t142.5 67q138 0 270 -141q26 58 60 95.5t71 37.5q40 0 64 -24t24 -58q0 -92 -64.5 -160t-142.5 -68q-134 0 -270 142q-26 -58 -60 -95.5t-71 -37.5q-40 0 -64 24.5t-24 59.5z" />
<glyph unicode="&#xa1;" horiz-adv-x="567" d="M-16 0l321 907h135l-73 -907h-383zM270 1145q0 104 54 158q21 21 48 29.5t81 8.5q139 0 139 -106q0 -107 -51 -158q-23 -21 -49.5 -29t-81.5 -8q-140 0 -140 105z" />
<glyph unicode="&#xa2;" horiz-adv-x="1105" d="M82 510q0 149 68 280t187 215t263 99l53 242h262l-55 -263q122 -33 199 -118q69 -79 59 -164q-5 -38 -27 -65t-50 -38t-55.5 -15.5t-46 -2t-19.5 7.5q-18 88 -81 138.5t-167 50.5q-92 0 -166 -50t-113 -128.5t-39 -166.5q0 -112 67 -182.5t185 -73.5q169 -6 262 140 l168 -140q-147 -204 -397 -227l-51 -246h-264l59 273q-141 52 -221 169.5t-80 264.5z" />
<glyph unicode="&#xa3;" horiz-adv-x="1193" d="M-20 0l51 236h151l82 274h-176l45 215h197l55 186q69 233 183.5 337t303.5 104q187 0 289 -99q66 -69 66 -147q0 -39 -16.5 -69.5t-39.5 -45t-47 -25t-39.5 -9.5t-17.5 1q-40 160 -201 160q-86 0 -141 -58.5t-98 -205.5l-37 -129h360l-45 -215h-383l-80 -274h678 l-49 -236h-1091z" />
<glyph unicode="&#xa4;" horiz-adv-x="1292" d="M35 420l39 180h168q10 62 24 127h-166l39 182h185q68 170 155 260q186 183 451 183q111 0 201 -33t147 -88q68 -68 68 -160q0 -40 -16.5 -72t-39 -47.5t-46.5 -27.5t-40 -11.5t-18 0.5q-72 193 -283 193q-131 0 -221 -90q-38 -38 -70 -107h406l-39 -182h-428 q-18 -66 -27 -127h373l-39 -180h-336q19 -92 85 -145.5t169 -53.5q91 0 157.5 35.5t133.5 116.5q6 6 34.5 -8t56.5 -47.5t28 -73.5q0 -72 -66 -138q-58 -58 -157 -94.5t-209 -36.5q-229 0 -366.5 119t-154.5 326h-198z" />
<glyph unicode="&#xa5;" d="M59 219l39 195h377l23 108h-375l41 195h287l-256 608h325l158 -526l383 526h350l-512 -608h285l-41 -195h-375l-23 -108h375l-41 -195h-374l-48 -219h-268l45 219h-375z" />
<glyph unicode="&#xa7;" horiz-adv-x="1165" d="M-53 -113q0 43 28 80t56 53t32 11q52 -79 160.5 -132t237.5 -53q98 0 148 34.5t50 96.5q0 25 -15 45.5t-47.5 38t-63 30t-83.5 31.5q-13 5 -20 7q-163 55 -230 94q-145 86 -145 223q0 119 77.5 198.5t207.5 113.5q-121 85 -121 213q0 169 134.5 274t353.5 105 q280 0 399 -123q55 -52 55 -113q0 -47 -30.5 -84t-60.5 -52t-34 -9q-53 78 -139 125t-192 47q-93 0 -144 -33.5t-51 -89.5q0 -37 35 -67.5t68.5 -45.5t117.5 -45q7 -3 10 -4q38 -13 57 -20t55.5 -21t56.5 -24t50.5 -26.5t48.5 -31.5t39 -36.5t32 -43t18.5 -49t7.5 -57.5 q0 -122 -75.5 -202t-205.5 -114q125 -76 125 -208q0 -169 -133.5 -278.5t-378.5 -109.5q-307 0 -434 127q-57 60 -57 125zM317 518q0 -25 8.5 -46t27.5 -38t38 -30t53.5 -27t59.5 -22.5t69 -22.5l78 -25q83 9 139 55t56 113q0 24 -7.5 43.5t-27.5 36.5t-36.5 28.5t-53 26 t-56.5 21.5t-67 22q-20 5 -94 29q-83 -14 -135 -57t-52 -107z" />
<glyph unicode="&#xa8;" horiz-adv-x="1024" d="M313 1237q0 73 45.5 121.5t114.5 48.5q70 0 107.5 -33t37.5 -90q0 -74 -45 -122t-114 -48q-71 0 -108.5 33t-37.5 90zM729 1237q0 73 45 121.5t113 48.5q72 0 109.5 -33t37.5 -90q0 -73 -45.5 -121.5t-114.5 -48.5q-70 0 -107.5 33t-37.5 90z" />
<glyph unicode="&#xa9;" horiz-adv-x="1527" d="M123 662q0 147 51 275t141 219t217.5 143.5t274.5 52.5q198 0 353.5 -88t242 -244.5t86.5 -353.5q0 -148 -51 -276.5t-141 -220t-217.5 -144t-274.5 -52.5q-199 0 -354.5 88t-241.5 245t-86 356zM254 664q0 -248 155.5 -409t397.5 -161q245 0 398 159t153 409 q0 248 -156 408.5t-397 160.5q-246 0 -398.5 -158.5t-152.5 -408.5zM449 659q0 161 106.5 267t267.5 106q82 0 144 -25t94 -59q40 -40 37 -84q0 -31 -23.5 -56t-47.5 -35t-28 -5q-61 88 -170 88q-76 0 -130 -55.5t-54 -138.5q0 -86 55 -141.5t134 -55.5q114 0 174 96 l125 -92q-34 -73 -110.5 -127.5t-197.5 -54.5q-165 0 -270.5 104.5t-105.5 267.5z" />
<glyph unicode="&#xaa;" horiz-adv-x="1062" d="M117 840q0 129 54.5 246t157 192.5t226.5 75.5q85 0 153 -38t103 -108q25 70 65.5 100.5t108.5 30.5q22 0 42.5 -5.5t31.5 -12t10 -10.5l-168 -795h-227q17 90 33 162q-47 -77 -123 -121.5t-166 -44.5q-132 0 -216.5 88.5t-84.5 239.5zM268 80q0 92 49 141q20 20 44 27.5 t73 7.5q125 0 125 -96t-49 -142q-20 -19 -43.5 -26.5t-71.5 -7.5q-127 0 -127 96zM350 874q0 -76 45 -122.5t113 -46.5q85 0 150.5 60.5t86.5 152.5l23 108q-44 139 -178 139q-105 0 -172.5 -88.5t-67.5 -202.5z" />
<glyph unicode="&#xab;" horiz-adv-x="1095" d="M74 524q0 14 55 76t127 125q159 137 246 137q44 0 70 -25t26 -65q0 -92 -170 -192q-80 -49 -139 -80q61 -40 119 -92q60 -55 86 -91t26 -71q2 -42 -28.5 -70.5t-79.5 -28.5q-96 0 -213 156q-49 66 -87 135.5t-38 85.5zM532 508q0 12 62 79t135 130q168 145 258 145 q48 0 74 -25t26 -67q0 -50 -52.5 -104t-139.5 -103q-72 -45 -143 -80q56 -35 106 -82q53 -49 76.5 -83.5t23.5 -69.5q0 -44 -32.5 -73.5t-85.5 -29.5q-98 0 -201 152q-43 63 -75 128.5t-32 82.5z" />
<glyph unicode="&#xad;" horiz-adv-x="876" d="M57 369l54 264h710l-55 -264h-709z" />
<glyph unicode="&#xae;" horiz-adv-x="1527" d="M123 662q0 147 51 275t141 219t217.5 143.5t274.5 52.5q198 0 353.5 -88t242 -244.5t86.5 -353.5q0 -148 -51 -276.5t-141 -220t-217.5 -144t-274.5 -52.5q-199 0 -354.5 88t-241.5 245t-86 356zM254 664q0 -248 155.5 -409t397.5 -161q245 0 398 159t153 409 q0 248 -156 408.5t-397 160.5q-246 0 -398.5 -158.5t-152.5 -408.5zM514 307v717h320q299 0 299 -231q0 -82 -44 -135t-126 -72l165 -219q4 -6 -10 -23t-42.5 -32t-57.5 -15q-65 0 -113 72l-131 178h-67v-240h-193zM702 688h121q56 0 86.5 24.5t30.5 67.5q0 94 -121 94h-117 v-186z" />
<glyph unicode="&#xaf;" horiz-adv-x="1024" d="M313 1210q0 27 10.5 62t30.5 55q26 29 99 29h469q52 0 80 -20t28 -56q0 -24 -11.5 -59.5t-31.5 -55.5q-25 -28 -98 -28h-469q-52 0 -79.5 19.5t-27.5 53.5z" />
<glyph unicode="&#xb0;" horiz-adv-x="788" d="M145 975q0 98 41.5 182t128 139.5t201.5 55.5q133 0 218 -76t85 -201q0 -72 -24.5 -139t-69.5 -120.5t-116.5 -85.5t-157.5 -32q-134 0 -220 75.5t-86 201.5zM328 985q0 -60 38.5 -96.5t100.5 -36.5q74 0 123 66t49 145q0 60 -39.5 97.5t-99.5 37.5q-74 0 -123 -67 t-49 -146z" />
<glyph unicode="&#xb1;" horiz-adv-x="1228" d="M76 211q0 28 10 61t29 52q27 30 96 30h723q53 0 80.5 -21t27.5 -57q0 -29 -9.5 -61t-28.5 -49q-30 -33 -97 -33h-723q-53 0 -80.5 21t-27.5 57zM221 848q0 26 10 57.5t29 50.5q31 31 96 31h246l49 227q11 58 42 86.5t71 28.5h24q53 0 78 -31.5t13 -91.5l-48 -219h230 q53 0 80.5 -21t27.5 -57q0 -27 -10 -59t-29 -49q-28 -31 -96 -31h-248l-43 -203q-13 -58 -43 -86t-69 -28h-27q-52 0 -76.5 31.5t-11.5 90.5l41 195h-227q-53 0 -81 21t-28 57z" />
<glyph unicode="&#xb2;" horiz-adv-x="688" d="M25 698q14 115 79 183q36 38 83 61.5t118 46.5q110 35 137 52q41 25 41 67q0 33 -27.5 53.5t-76.5 20.5q-105 0 -154 -115q0 -1 -6.5 -1t-17 1t-23 3.5t-25.5 9t-23.5 16t-17 25.5t-6.5 36q0 56 54 107q77 77 246 77q127 0 202.5 -58t75.5 -159q0 -47 -14 -84.5 t-35.5 -62t-57 -45t-68.5 -33t-81 -25.5q-63 -18 -86 -25t-59 -24t-56 -37q-21 -24 -26 -45h313q104 0 104 -67q0 -19 -9 -42t-17.5 -36.5t-11.5 -13.5h-482q-46 0 -64 30t-9 84z" />
<glyph unicode="&#xb3;" horiz-adv-x="688" d="M12 737q0 32 13 55.5t30.5 34t36.5 17.5t31 5t14 -3q9 -57 51 -89t111 -32q63 0 98 27.5t35 72.5q0 32 -22.5 50t-67.5 18h-29q-73 0 -73 57q0 44 24 68q22 22 90 22h39q95 0 99 72q0 33 -31.5 53.5t-83.5 20.5q-62 0 -101.5 -27.5t-56.5 -68.5q-1 -2 -13 -2.5t-28.5 3 t-32.5 11.5t-27.5 26t-11.5 43q0 50 39 89q81 81 246 81q132 0 212.5 -53.5t80.5 -140.5q0 -70 -42.5 -119.5t-127.5 -66.5q113 -46 113 -152q0 -48 -17 -89t-53.5 -76t-102 -55t-153.5 -20q-171 0 -248 74q-41 41 -41 94z" />
<glyph unicode="&#xb4;" horiz-adv-x="1024" d="M489 1147q-6 14 29 70t100.5 125t129.5 106q54 31 110 31q54 0 87.5 -35.5t33.5 -87.5q0 -40 -28 -78t-77 -66q-77 -43 -169 -63t-150 -18t-66 16z" />
<glyph unicode="&#xb6;" horiz-adv-x="1241" d="M117 885q0 96 31 174.5t92.5 138.5t163.5 93.5t235 33.5h371l-265 -1247q-11 -46 -33 -66t-63 -20h-24q-40 0 -58.5 25t-9.5 69l102 477h-94q-219 0 -333.5 81.5t-114.5 240.5zM842 0l282 1325h187l-283 -1325h-186z" />
<glyph unicode="&#xb7;" horiz-adv-x="501" d="M92 459q0 104 53 157q21 21 48.5 30t80.5 9q140 0 140 -106q0 -104 -54 -158q-21 -21 -48.5 -30t-80.5 -9q-139 0 -139 107z" />
<glyph unicode="&#xb8;" horiz-adv-x="1024" d="M104 -403l197 317q3 0 23 1.5t50.5 -5t59.5 -16.5t49.5 -32t20.5 -52q0 -38 -22 -68.5t-72 -67.5l-195 -153q-20 -9 -51 -2t-52.5 31t-7.5 47z" />
<glyph unicode="&#xb9;" horiz-adv-x="688" d="M37 649q0 14 7 39t19 37q12 18 30 24.5t54 6.5h101l82 348q-44 -35 -97 -35q-50 0 -76 26t-26 70q0 37 17 66.5t33 41t18 9.5q37 -37 92 -37q36 0 68 24.5t49 65.5h75q88 0 68 -98l-113 -481h90q39 0 60.5 -18t19.5 -48q0 -50 -26 -76q-10 -17 -28 -23.5t-54 -6.5h-381 q-39 0 -61.5 18t-20.5 47z" />
<glyph unicode="&#xba;" horiz-adv-x="925" d="M125 881q0 124 53 230t158.5 173.5t241.5 67.5q179 0 282 -102.5t103 -264.5q0 -93 -31.5 -178t-88.5 -151.5t-144 -106t-191 -39.5q-178 0 -280.5 103.5t-102.5 267.5zM225 80q0 94 47 141q20 20 44 27.5t73 7.5q127 0 127 -96q0 -93 -49 -142q-20 -19 -44.5 -26.5 t-72.5 -7.5q-125 0 -125 96zM334 887q0 -82 52 -137.5t130 -55.5q102 0 170 84.5t68 196.5q0 83 -52.5 137.5t-130.5 54.5q-102 0 -169.5 -83.5t-67.5 -196.5z" />
<glyph unicode="&#xbb;" horiz-adv-x="1095" d="M8 233q0 50 53 104t140 103q72 45 143 80q-55 37 -106 82q-52 48 -75.5 83.5t-23.5 70.5q0 44 32 73t85 29q99 0 201 -151q42 -62 74 -128t32 -83q0 -12 -61.5 -79t-134.5 -130q-167 -144 -258 -144q-49 0 -75 24t-26 66zM498 231q0 93 170 193q80 49 139 80 q-61 40 -119 92q-60 55 -86.5 91t-26.5 71q-2 42 29 70t80 28q96 0 213 -156q49 -66 87 -135.5t38 -85.5q0 -13 -54 -75t-126 -125q-164 -138 -248 -138q-44 0 -70 25t-26 65z" />
<glyph unicode="&#xbc;" horiz-adv-x="1593" d="M45 0l1233 1325h219l-1233 -1325h-219zM120 1131.5q12 39.5 38 58.5q173 31 297 143h159l-157 -751h-207l108 510q-70 -70 -143 -70q-62 0 -84.5 35t-10.5 74.5zM836 285q0 32 14 61t51 72l299 323h277l-88 -415h114l-30 -154h-109l-37 -172h-188l35 172h-285 q-5 0 -17 15t-24 42.5t-12 55.5zM1014 319h200l60 289z" />
<glyph unicode="&#xbd;" horiz-adv-x="1597" d="M45 0l1233 1325h219l-1233 -1325h-219zM120 1131.5q12 39.5 38 58.5q173 31 297 143h159l-157 -751h-207l108 510q-70 -70 -143 -70q-62 0 -84.5 35t-10.5 74.5zM854 0q16 92 20 119q20 131 101 190q87 66 215 103q94 28 132 50.5t38 63.5q0 36 -27.5 56t-77.5 20 q-109 0 -174 -117q0 -3 -26.5 2.5t-53 26.5t-26.5 57q0 63 47 107q80 80 235 80q137 0 215 -61t78 -160q0 -61 -16.5 -103.5t-55.5 -73t-88 -50.5t-128 -42q-97 -25 -127 -36.5t-54 -32.5q-13 -13 -26 -39h415l-34 -160h-582z" />
<glyph unicode="&#xbe;" horiz-adv-x="1695" d="M35 764l155 78q49 -119 166 -119q63 0 98 27.5t35 72.5q0 68 -92 68h-28q-72 0 -72 57q0 48 25 70q20 20 88 20h36q54 0 78.5 20t24.5 52t-31.5 52t-83.5 20q-116 0 -162 -95q-1 -3 -12.5 -3.5t-27.5 3.5t-32 12.5t-27 26.5t-11 43q0 49 39 91q86 79 245 79 q141 0 219 -51t78 -143q0 -68 -42 -119t-128 -65q113 -45 113 -154q0 -46 -15.5 -85.5t-50.5 -75.5t-102.5 -56.5t-161.5 -20.5q-248 0 -321 195zM147 0l1233 1325h219l-1232 -1325h-220zM940 285q0 32 14.5 61t51.5 72l299 323h276l-88 -415h115l-31 -154h-109l-36 -172 h-189l35 172h-285q-5 0 -17 15t-24 42.5t-12 55.5zM1118 319h201l59 289z" />
<glyph unicode="&#xbf;" horiz-adv-x="1021" d="M10 340q0 51 12 95.5t29.5 76.5t47 60t55 45.5t64 34.5t63.5 25.5t63 20.5q95 30 129 50.5t45 62.5l29 109h225l-6 -89q-2 -70 -16 -117.5t-46 -81t-73 -54.5t-109 -43q-119 -40 -165 -77.5t-46 -105.5q0 -67 52 -109t137 -42q98 0 169.5 53.5t106.5 144.5q2 0 17 0.5 t38.5 -8t46 -20.5t38.5 -37.5t16 -57.5q0 -89 -80 -172q-133 -133 -373 -133q-211 0 -340 103t-129 266zM535 1143q0 104 53 157q21 21 48.5 30t80.5 9q139 0 139 -106q0 -105 -53 -158q-21 -21 -48 -29t-81 -8q-139 0 -139 105z" />
<glyph unicode="&#xc0;" horiz-adv-x="1349" d="M-127 0l801 1325h319l252 -1325h-307l-57 338h-484l-190 -338h-334zM500 1698q0 53 35.5 89t89.5 36q59 0 110 -39q87 -59 157 -171t56 -136q-5 -8 -28 -11.5t-60.5 -1t-80.5 11.5t-93.5 29.5t-93.5 48.5q-92 59 -92 144zM502 563h362l-86 479z" />
<glyph unicode="&#xc1;" horiz-adv-x="1349" d="M-127 0l801 1325h319l252 -1325h-307l-57 338h-484l-190 -338h-334zM502 563h362l-86 479zM705 1477q-6 14 29 70t100 125t129 106q52 30 110 30q54 0 87.5 -35t33.5 -87q0 -40 -27.5 -78t-76.5 -66q-77 -43 -169 -63t-150 -18t-66 16z" />
<glyph unicode="&#xc2;" horiz-adv-x="1349" d="M-127 0l801 1325h319l252 -1325h-307l-57 338h-484l-190 -338h-334zM502 563h362l-86 479zM539 1528q0 84 135 188q61 48 127.5 84t109.5 45q25 -8 72 -45t86 -82q88 -98 88 -168q0 -47 -27 -76.5t-71 -29.5q-79 0 -144 121q-6 14 -19.5 42.5t-18.5 39.5l-72 -82 q-97 -121 -180 -121q-39 0 -62.5 24.5t-23.5 59.5z" />
<glyph unicode="&#xc3;" horiz-adv-x="1349" d="M-127 0l801 1325h319l252 -1325h-307l-57 338h-484l-190 -338h-334zM502 563h362l-86 479zM508 1534q0 91 64.5 158t142.5 67q138 0 270 -141q26 58 60 95.5t71 37.5q40 0 64 -24t24 -58q0 -92 -64.5 -159.5t-142.5 -67.5q-135 0 -270 141q-26 -58 -60 -95.5t-71 -37.5 q-40 0 -64 24.5t-24 59.5z" />
<glyph unicode="&#xc4;" horiz-adv-x="1349" d="M-127 0l801 1325h319l252 -1325h-307l-57 338h-484l-190 -338h-334zM502 563h362l-86 479zM502 1567q0 73 45.5 121.5t114.5 48.5q70 0 107.5 -33t37.5 -90q0 -73 -45.5 -121.5t-114.5 -48.5q-70 0 -107.5 33t-37.5 90zM918 1567q0 73 44.5 121.5t112.5 48.5 q72 0 110 -33t38 -90q0 -73 -45.5 -121.5t-114.5 -48.5q-70 0 -107.5 33t-37.5 90z" />
<glyph unicode="&#xc5;" horiz-adv-x="1347" d="M-127 0l782 1286q-59 46 -59 125q0 116 79 200.5t199 84.5q111 0 177.5 -60.5t66.5 -156.5q0 -66 -31.5 -123t-85.5 -86l244 -1270h-307l-57 338h-484l-190 -338h-334zM502 563h362l-86 479zM743 1427q0 -43 28.5 -72.5t72.5 -29.5q56 0 91.5 41.5t35.5 95.5 q0 43 -28.5 73t-72.5 30q-56 0 -91.5 -42t-35.5 -96z" />
<glyph unicode="&#xc6;" horiz-adv-x="1794" d="M-127 0l739 1221q33 55 77 79.5t130 24.5h1063l-27 -129q-12 -62 -50 -89.5t-111 -27.5h-660l58 -291h512l-50 -227h-419l61 -317h461l-51 -244h-512q-86 0 -127.5 31.5t-51.5 109.5l-34 197h-484l-190 -338h-334zM502 563h362l-86 479z" />
<glyph unicode="&#xc7;" horiz-adv-x="1327" d="M98 559q0 157 57 302.5t155.5 253.5t239.5 172.5t300 64.5q276 0 422 -146q40 -40 62 -86.5t22 -81.5q0 -32 -10.5 -59.5t-27.5 -45t-37.5 -31t-41 -20t-38.5 -10t-30 -3.5t-14 3q-80 209 -305 209q-122 0 -224 -66.5t-159 -178t-57 -242.5q0 -156 93 -252t243 -96 q214 0 329 170l195 -142q-33 -61 -80.5 -111.5t-114 -94.5t-157.5 -68.5t-197 -24.5q-285 0 -455 158t-170 426zM379 -403l196 317q3 0 23 1.5t50.5 -5t59.5 -16.5t49.5 -32t20.5 -52q0 -38 -22 -68.5t-72 -67.5l-195 -153q-20 -9 -51 -2t-52 31t-7 47z" />
<glyph unicode="&#xc8;" horiz-adv-x="1228" d="M12 0l283 1325h1032l-31 -147q-12 -60 -50 -87.5t-111 -27.5h-594l-58 -264h568l-54 -248h-567l-61 -289h737l-55 -262h-1039zM543 1698q0 53 35.5 89t89.5 36q59 0 110 -39q87 -59 157 -171t56 -136q-5 -8 -28 -11.5t-60.5 -1t-80.5 11.5t-93.5 29.5t-93.5 48.5 q-92 59 -92 144z" />
<glyph unicode="&#xc9;" horiz-adv-x="1228" d="M12 0l283 1325h1032l-31 -147q-12 -60 -50 -87.5t-111 -27.5h-594l-58 -264h568l-54 -248h-567l-61 -289h737l-55 -262h-1039zM668 1477q-6 14 29 70t100 125t129 106q52 30 110 30q54 0 87.5 -35t33.5 -87q0 -40 -27.5 -78t-76.5 -66q-77 -43 -169 -63t-150 -18t-66 16z " />
<glyph unicode="&#xca;" horiz-adv-x="1228" d="M12 0l283 1325h1032l-31 -147q-12 -60 -50 -87.5t-111 -27.5h-594l-58 -264h568l-54 -248h-567l-61 -289h737l-55 -262h-1039zM528 1528q0 84 136 188q61 48 127.5 84t109.5 45q25 -8 72 -45t86 -82q88 -98 88 -168q0 -47 -27 -76.5t-71 -29.5q-79 0 -144 121 q-5 14 -19 41.5t-20 40.5l-71 -82q-97 -121 -181 -121q-39 0 -62.5 24.5t-23.5 59.5z" />
<glyph unicode="&#xcb;" horiz-adv-x="1228" d="M12 0l283 1325h1032l-31 -147q-12 -60 -50 -87.5t-111 -27.5h-594l-58 -264h568l-54 -248h-567l-61 -289h737l-55 -262h-1039zM477 1567q0 73 45.5 121.5t114.5 48.5q70 0 107.5 -33t37.5 -90q0 -74 -45 -122t-114 -48q-71 0 -108.5 33t-37.5 90zM893 1567q0 73 45 121.5 t113 48.5q72 0 109.5 -33t37.5 -90q0 -73 -45.5 -121.5t-114.5 -48.5q-70 0 -107.5 33t-37.5 90z" />
<glyph unicode="&#xcc;" horiz-adv-x="571" d="M29 0l282 1325h303l-282 -1325h-303zM154 1698q0 53 35.5 89t89.5 36q59 0 110 -39q87 -59 157 -171t56 -136q-5 -8 -28 -11.5t-60.5 -1t-80.5 11.5t-93.5 29.5t-93.5 48.5q-92 59 -92 144z" />
<glyph unicode="&#xcd;" horiz-adv-x="571" d="M29 0l282 1325h303l-282 -1325h-303zM356 1477q-6 14 29 70t100 125t129 106q52 30 111 30q54 0 87.5 -35t33.5 -87q0 -40 -28 -78t-77 -66q-77 -43 -169 -63t-150 -18t-66 16z" />
<glyph unicode="&#xce;" horiz-adv-x="571" d="M29 0l282 1325h303l-282 -1325h-303zM184 1528q0 84 135 188q61 48 128 84t110 45q25 -8 72 -45t86 -82q88 -98 88 -168q0 -47 -27 -76.5t-71 -29.5q-79 0 -144 121q-5 14 -19 41.5t-20 40.5l-71 -82q-97 -121 -181 -121q-39 0 -62.5 24.5t-23.5 59.5z" />
<glyph unicode="&#xcf;" horiz-adv-x="571" d="M29 0l282 1325h303l-282 -1325h-303zM145 1567q0 73 45.5 121.5t114.5 48.5q71 0 108.5 -33t37.5 -90q0 -73 -45.5 -121.5t-114.5 -48.5q-71 0 -108.5 33t-37.5 90zM561 1567q0 73 45 121.5t113 48.5q72 0 109.5 -33t37.5 -90q0 -74 -45 -122t-114 -48q-71 0 -108.5 33 t-37.5 90z" />
<glyph unicode="&#xd0;" horiz-adv-x="1464" d="M47 627q0 28 10.5 63t30.5 53q27 27 88 27h80l119 555h416q301 0 472 -148t171 -403q0 -159 -52.5 -297t-152.5 -245.5t-260.5 -169.5t-362.5 -62h-514l119 559h-76q-39 0 -63.5 18t-24.5 50zM446 256h201q119 0 212.5 38.5t152 105t88.5 152t30 183.5q0 157 -97 245.5 t-271 88.5h-144l-63 -299h240q49 0 74.5 -19t25.5 -53q0 -25 -10.5 -59.5t-28.5 -52.5q-27 -27 -94 -27h-252z" />
<glyph unicode="&#xd1;" horiz-adv-x="1417" d="M12 0l283 1325h264l447 -870l184 870h283l-283 -1325h-246l-459 899l-190 -899h-283zM575 1534q0 91 64.5 158t142.5 67q139 0 271 -141q26 58 60 95.5t71 37.5q40 0 64 -24t24 -58q0 -92 -64.5 -159.5t-142.5 -67.5q-135 0 -270 141q-26 -58 -60 -95.5t-71 -37.5 q-40 0 -64.5 24.5t-24.5 59.5z" />
<glyph unicode="&#xd2;" horiz-adv-x="1492" d="M100 561q0 215 95.5 395.5t268 288t384.5 107.5q146 0 264 -46t193.5 -126.5t116 -185.5t40.5 -226q0 -160 -56.5 -305.5t-154 -253t-237.5 -171t-299 -63.5q-146 0 -264.5 46.5t-194 127t-116 186t-40.5 226.5zM403 582q0 -148 88.5 -245t241.5 -97q110 0 207.5 65 t158 183t60.5 260q0 146 -88.5 242.5t-241.5 96.5q-83 0 -160.5 -38.5t-136 -104.5t-94 -161t-35.5 -201zM594 1698q0 53 35.5 89t89.5 36q59 0 110 -39q87 -59 157 -171t56 -136q-5 -8 -28 -11.5t-60.5 -1t-80.5 11.5t-93.5 29.5t-93.5 48.5q-92 59 -92 144z" />
<glyph unicode="&#xd3;" horiz-adv-x="1492" d="M100 561q0 215 95.5 395.5t268 288t384.5 107.5q146 0 264 -46t193.5 -126.5t116 -185.5t40.5 -226q0 -160 -56.5 -305.5t-154 -253t-237.5 -171t-299 -63.5q-146 0 -264.5 46.5t-194 127t-116 186t-40.5 226.5zM403 582q0 -148 88.5 -245t241.5 -97q110 0 207.5 65 t158 183t60.5 260q0 146 -88.5 242.5t-241.5 96.5q-83 0 -160.5 -38.5t-136 -104.5t-94 -161t-35.5 -201zM723 1477q-6 14 29 70t100 125t129 106q53 30 111 30q54 0 87 -35t33 -87q0 -40 -27.5 -78t-76.5 -66q-77 -43 -169 -63t-150 -18t-66 16z" />
<glyph unicode="&#xd4;" horiz-adv-x="1492" d="M100 561q0 215 95.5 395.5t268 288t384.5 107.5q146 0 264 -46t193.5 -126.5t116 -185.5t40.5 -226q0 -160 -56.5 -305.5t-154 -253t-237.5 -171t-299 -63.5q-146 0 -264.5 46.5t-194 127t-116 186t-40.5 226.5zM403 582q0 -148 88.5 -245t241.5 -97q110 0 207.5 65 t158 183t60.5 260q0 146 -88.5 242.5t-241.5 96.5q-83 0 -160.5 -38.5t-136 -104.5t-94 -161t-35.5 -201zM596 1528q0 84 135 188q61 48 128 84t110 45q25 -8 71 -45t86 -82q88 -98 88 -168q0 -47 -27 -76.5t-71 -29.5q-78 0 -143 121q-5 14 -19 41.5t-20 40.5l-72 -82 q-97 -121 -180 -121q-39 0 -62.5 24.5t-23.5 59.5z" />
<glyph unicode="&#xd5;" horiz-adv-x="1492" d="M100 561q0 215 95.5 395.5t268 288t384.5 107.5q146 0 264 -46t193.5 -126.5t116 -185.5t40.5 -226q0 -160 -56.5 -305.5t-154 -253t-237.5 -171t-299 -63.5q-146 0 -264.5 46.5t-194 127t-116 186t-40.5 226.5zM403 582q0 -148 88.5 -245t241.5 -97q110 0 207.5 65 t158 183t60.5 260q0 146 -88.5 242.5t-241.5 96.5q-83 0 -160.5 -38.5t-136 -104.5t-94 -161t-35.5 -201zM559 1534q0 91 64.5 158t142.5 67q138 0 270 -141q26 58 60 95.5t71 37.5q40 0 64 -24t24 -58q0 -92 -64 -159.5t-142 -67.5q-136 0 -271 141q-26 -58 -60 -95.5 t-71 -37.5q-40 0 -64 24.5t-24 59.5z" />
<glyph unicode="&#xd6;" horiz-adv-x="1492" d="M100 561q0 215 95.5 395.5t268 288t384.5 107.5q146 0 264 -46t193.5 -126.5t116 -185.5t40.5 -226q0 -160 -56.5 -305.5t-154 -253t-237.5 -171t-299 -63.5q-146 0 -264.5 46.5t-194 127t-116 186t-40.5 226.5zM403 582q0 -148 88.5 -245t241.5 -97q110 0 207.5 65 t158 183t60.5 260q0 146 -88.5 242.5t-241.5 96.5q-83 0 -160.5 -38.5t-136 -104.5t-94 -161t-35.5 -201zM567 1567q0 73 45.5 121.5t114.5 48.5q70 0 107.5 -33t37.5 -90q0 -74 -45 -122t-114 -48q-71 0 -108.5 33t-37.5 90zM983 1567q0 73 45 121.5t113 48.5 q72 0 109.5 -33t37.5 -90q0 -73 -45.5 -121.5t-114.5 -48.5q-70 0 -107.5 33t-37.5 90z" />
<glyph unicode="&#xd7;" horiz-adv-x="1134" d="M86 207q0 61 51 102l283 236l-176 225q-33 42 -33 80q0 34 41 73.5t80 39.5q47 0 90 -52l168 -225l276 232q41 38 90 38q34 0 70.5 -39.5t36.5 -68.5q0 -62 -53 -105l-281 -233l176 -227q33 -38 33 -80q0 -34 -40.5 -73.5t-78.5 -39.5q-51 0 -90 53l-172 226l-274 -234 q-44 -39 -93 -39q-34 0 -69 40t-35 71z" />
<glyph unicode="&#xd8;" horiz-adv-x="1492" d="M-18 27q0 51 57 102l141 127q-80 136 -80 305q0 215 95.5 395.5t268 288t384.5 107.5q250 0 414 -138l196 177q7 7 33 -5t51 -39.5t25 -58.5q0 -50 -58 -102l-127 -115q80 -133 80 -303q0 -160 -56.5 -305.5t-154 -253t-237.5 -171t-299 -63.5q-250 0 -414 138l-211 -189 q-7 -7 -33 5t-50.5 39.5t-24.5 58.5zM379 575q0 -69 18 -131l664 594q-91 72 -227 72q-121 0 -225.5 -69t-167 -192.5t-62.5 -273.5zM500 291q90 -74 229 -74q121 0 225 69.5t166 193t62 272.5q0 66 -19 131z" />
<glyph unicode="&#xd9;" horiz-adv-x="1347" d="M127 610l154 715h303l-158 -737q-35 -172 25 -261t213 -89q227 0 290 301l170 786h297l-174 -811q-113 -539 -614 -539q-309 0 -441 162t-65 473zM557 1686q0 53 35.5 88.5t89.5 35.5q61 0 111 -38q59 -40 113.5 -110.5t81 -127t18.5 -70.5q-5 -8 -28.5 -11.5t-61 -0.5 t-80.5 12t-93.5 29.5t-93.5 48.5q-92 59 -92 144z" />
<glyph unicode="&#xda;" horiz-adv-x="1347" d="M127 610l154 715h303l-158 -737q-35 -172 25 -261t213 -89q227 0 290 301l170 786h297l-174 -811q-113 -539 -614 -539q-309 0 -441 162t-65 473zM690 1464q-6 14 29 70t100 125t129 106q54 31 111 31q54 0 87.5 -35.5t33.5 -87.5q0 -40 -27.5 -77.5t-77.5 -65.5 q-77 -43 -169 -63.5t-150 -18.5t-66 16z" />
<glyph unicode="&#xdb;" horiz-adv-x="1347" d="M127 610l154 715h303l-158 -737q-35 -172 25 -261t213 -89q227 0 290 301l170 786h297l-174 -811q-113 -539 -614 -539q-309 0 -441 162t-65 473zM561 1516q0 84 135 188q61 48 128 84t110 45q25 -8 72 -45t86 -82q88 -98 88 -168q0 -47 -27.5 -76.5t-71.5 -29.5 q-79 0 -143 120q-6 14 -19.5 41.5t-19.5 40.5l-72 -82q-96 -120 -180 -120q-39 0 -62.5 24.5t-23.5 59.5z" />
<glyph unicode="&#xdc;" horiz-adv-x="1347" d="M127 610l154 715h303l-158 -737q-35 -172 25 -261t213 -89q227 0 290 301l170 786h297l-174 -811q-113 -539 -614 -539q-309 0 -441 162t-65 473zM522 1554q0 73 45.5 121.5t114.5 48.5q71 0 108 -32.5t37 -89.5q0 -74 -45 -122t-114 -48q-71 0 -108.5 32.5t-37.5 89.5z M938 1554q0 73 45 121.5t113 48.5q72 0 109.5 -32.5t37.5 -89.5q0 -73 -45.5 -121.5t-114.5 -48.5q-71 0 -108 32.5t-37 89.5z" />
<glyph unicode="&#xdd;" horiz-adv-x="1226" d="M152 1325h305l223 -555l463 555h360l-712 -815l-109 -510h-301l113 537zM641 1464q-6 14 29 70t100 125t129 106q54 31 111 31q54 0 87 -35.5t33 -87.5q0 -40 -27.5 -77.5t-76.5 -65.5q-77 -43 -169 -63.5t-150 -18.5t-66 16z" />
<glyph unicode="&#xde;" horiz-adv-x="1222" d="M12 0l285 1325h301l-49 -219h153q244 0 372 -95.5t128 -277.5q0 -240 -147 -372t-434 -132h-256l-50 -229h-303zM412 459h231q131 0 198.5 63.5t67.5 175.5q0 172 -225 172h-184z" />
<glyph unicode="&#xdf;" horiz-adv-x="1198" d="M0 0l207 963q52 248 180 358.5t352 110.5q220 0 341.5 -92t121.5 -238q0 -141 -86.5 -225t-255.5 -101q127 -47 201 -136t74 -208q0 -196 -124.5 -326.5t-308.5 -130.5q-176 0 -256 80q-43 46 -43 103q0 42 23.5 76t47 47.5t26.5 9.5q29 -40 66.5 -63t101.5 -23 q81 0 136.5 59t55.5 150q0 129 -170 188q-56 24 -82 52.5t-26 80.5q0 46 22.5 89t46.5 61q141 0 205 41.5t64 138.5q0 66 -52 107.5t-137 41.5q-181 0 -237 -258l-205 -956h-289z" />
<glyph unicode="&#xe0;" d="M51 385q0 95 26 188.5t75 174.5t115 143t152.5 97.5t180.5 35.5q106 0 192 -47.5t130 -132.5q29 87 79.5 125.5t131.5 38.5q26 0 51 -6.5t37.5 -15t11.5 -13.5l-207 -973h-278q16 84 34 174q-58 -93 -150 -146t-202 -53q-166 0 -272.5 110.5t-106.5 299.5zM332 426 q0 -101 57.5 -161t145.5 -60q110 0 196 78.5t111 197.5l28 142q-58 176 -231 176q-91 0 -163 -56t-108 -140t-36 -177zM430 1368q0 53 35.5 89t89.5 36q60 0 111 -39q87 -59 157 -171t56 -136q-5 -8 -28.5 -11.5t-61 -0.5t-80.5 12t-93.5 29.5t-93.5 48.5q-92 59 -92 143z " />
<glyph unicode="&#xe1;" d="M51 385q0 95 26 188.5t75 174.5t115 143t152.5 97.5t180.5 35.5q106 0 192 -47.5t130 -132.5q29 87 79.5 125.5t131.5 38.5q26 0 51 -6.5t37.5 -15t11.5 -13.5l-207 -973h-278q16 84 34 174q-58 -93 -150 -146t-202 -53q-166 0 -272.5 110.5t-106.5 299.5zM332 426 q0 -101 57.5 -161t145.5 -60q110 0 196 78.5t111 197.5l28 142q-58 176 -231 176q-91 0 -163 -56t-108 -140t-36 -177zM584 1147q-6 14 29 70t100 125t129 106q54 31 110 31q54 0 87.5 -35.5t33.5 -87.5q0 -40 -27.5 -78t-76.5 -66q-77 -43 -169 -63t-150 -18t-66 16z" />
<glyph unicode="&#xe2;" d="M51 385q0 95 26 188.5t75 174.5t115 143t152.5 97.5t180.5 35.5q106 0 192 -47.5t130 -132.5q29 87 79.5 125.5t131.5 38.5q26 0 51 -6.5t37.5 -15t11.5 -13.5l-207 -973h-278q16 84 34 174q-58 -93 -150 -146t-202 -53q-166 0 -272.5 110.5t-106.5 299.5zM332 426 q0 -101 57.5 -161t145.5 -60q110 0 196 78.5t111 197.5l28 142q-58 176 -231 176q-91 0 -163 -56t-108 -140t-36 -177zM455 1198q0 84 135 188q62 48 128.5 84.5t108.5 45.5q25 -8 72 -45t86 -82q88 -98 88 -168q0 -48 -27 -77.5t-71 -29.5q-79 0 -144 121q-6 14 -19.5 42.5 t-18.5 39.5l-72 -82q-97 -121 -180 -121q-39 0 -62.5 24.5t-23.5 59.5z" />
<glyph unicode="&#xe3;" d="M51 385q0 95 26 188.5t75 174.5t115 143t152.5 97.5t180.5 35.5q106 0 192 -47.5t130 -132.5q29 87 79.5 125.5t131.5 38.5q26 0 51 -6.5t37.5 -15t11.5 -13.5l-207 -973h-278q16 84 34 174q-58 -93 -150 -146t-202 -53q-166 0 -272.5 110.5t-106.5 299.5zM332 426 q0 -101 57.5 -161t145.5 -60q110 0 196 78.5t111 197.5l28 142q-58 176 -231 176q-91 0 -163 -56t-108 -140t-36 -177zM420 1204q0 91 64.5 158.5t142.5 67.5q137 0 270 -142q26 58 60 95.5t71 37.5q40 0 64 -24t24 -58q0 -92 -64.5 -159.5t-142.5 -67.5q-135 0 -270 141 q-26 -58 -60 -95.5t-71 -37.5q-40 0 -64 24.5t-24 59.5z" />
<glyph unicode="&#xe4;" d="M51 385q0 95 26 188.5t75 174.5t115 143t152.5 97.5t180.5 35.5q106 0 192 -47.5t130 -132.5q29 87 79.5 125.5t131.5 38.5q26 0 51 -6.5t37.5 -15t11.5 -13.5l-207 -973h-278q16 84 34 174q-58 -93 -150 -146t-202 -53q-166 0 -272.5 110.5t-106.5 299.5zM332 426 q0 -101 57.5 -161t145.5 -60q110 0 196 78.5t111 197.5l28 142q-58 176 -231 176q-91 0 -163 -56t-108 -140t-36 -177zM416 1237q0 74 45 122t114 48q71 0 108.5 -33t37.5 -90q0 -73 -45.5 -121.5t-114.5 -48.5q-70 0 -107.5 33t-37.5 90zM831 1237q0 73 45 121.5t113 48.5 q72 0 110 -33t38 -90q0 -73 -45.5 -121.5t-114.5 -48.5q-71 0 -108.5 33t-37.5 90z" />
<glyph unicode="&#xe5;" d="M51 385q0 95 26 188.5t75 174.5t115 143t152.5 97.5t180.5 35.5q106 0 192 -47.5t130 -132.5q29 87 79.5 125.5t131.5 38.5q26 0 51 -6.5t37.5 -15t11.5 -13.5l-207 -973h-278q16 84 34 174q-58 -93 -150 -146t-202 -53q-166 0 -272.5 110.5t-106.5 299.5zM332 426 q0 -101 57.5 -161t145.5 -60q110 0 196 78.5t111 197.5l28 142q-58 176 -231 176q-91 0 -163 -56t-108 -140t-36 -177zM526 1333q0 115 80.5 200t200.5 85q110 0 177 -60.5t67 -156.5q0 -117 -80 -201t-201 -84q-110 0 -177 60.5t-67 156.5zM674 1350q0 -43 28 -73t72 -30 q56 0 92.5 41.5t36.5 95.5q0 44 -28.5 73.5t-73.5 29.5q-55 0 -91 -42t-36 -95z" />
<glyph unicode="&#xe6;" horiz-adv-x="1753" d="M8 229q0 191 168.5 275.5t544.5 87.5h33l2 8q19 99 -31.5 153t-169.5 54q-99 0 -158.5 -31t-99.5 -94q-2 0 -18 -1.5t-40 5t-46.5 15.5t-39 30.5t-16.5 50.5q0 40 26 81t76 77t135.5 59t192.5 23q137 0 229.5 -48t127.5 -136q162 186 419 186q188 0 292 -79.5t104 -211.5 q0 -76 -28 -133t-92.5 -100.5t-178.5 -65.5t-277 -22q-88 0 -205 6v-12q0 -106 64 -167t182 -61q188 0 295 139l162 -122q-157 -220 -459 -220q-310 0 -409 215q-129 -215 -428 -215q-173 0 -265 68t-92 186zM281 266q0 -48 43 -77t116 -29q97 0 172 58.5t95 150.5l18 84 l-57 -2q-218 -6 -302.5 -49.5t-84.5 -135.5zM993 584q80 -9 146 -9q356 0 356 146q0 45 -43 77.5t-121 32.5q-112 0 -202 -69t-136 -178z" />
<glyph unicode="&#xe7;" horiz-adv-x="1052" d="M47 434q0 116 44.5 224t120 188.5t182 129t224.5 48.5q232 0 357 -125q76 -76 76 -162q0 -42 -18.5 -73t-45.5 -45t-54 -20.5t-46.5 -5t-20.5 6.5q-16 87 -77.5 140t-163.5 53q-135 0 -223.5 -101.5t-88.5 -234.5q0 -111 68 -180.5t184 -69.5q150 0 240 141l176 -125 q-52 -100 -168.5 -174t-271.5 -74q-221 0 -357.5 122.5t-136.5 336.5zM201 -403l196 317q3 0 23 1.5t50.5 -5t59.5 -16.5t49.5 -32t20.5 -52q0 -38 -22 -68.5t-72 -67.5l-195 -153q-20 -9 -51 -2t-52 31t-7 47z" />
<glyph unicode="&#xe8;" horiz-adv-x="1081" d="M45 399q0 179 84 322.5t227.5 223t317.5 79.5q187 0 291 -79.5t104 -211.5q0 -63 -15.5 -111t-55 -90.5t-103.5 -70t-165 -43t-236 -15.5q-34 0 -205 9v-6q0 -106 63 -166t180 -60q184 0 295 148l164 -138q-157 -215 -463 -215q-237 0 -360 116.5t-123 307.5zM328 588 q77 -6 139 -6q196 0 277 36t81 103q0 44 -43 76t-120 32q-110 0 -199 -67t-135 -174zM401 1368q0 53 35.5 89t89.5 36q60 0 111 -39q87 -59 157 -171t56 -136q-5 -8 -28 -11.5t-60.5 -0.5t-80.5 12t-93.5 29.5t-93.5 48.5q-93 59 -93 143z" />
<glyph unicode="&#xe9;" horiz-adv-x="1081" d="M45 399q0 179 84 322.5t227.5 223t317.5 79.5q187 0 291 -79.5t104 -211.5q0 -63 -15.5 -111t-55 -90.5t-103.5 -70t-165 -43t-236 -15.5q-34 0 -205 9v-6q0 -106 63 -166t180 -60q184 0 295 148l164 -138q-157 -215 -463 -215q-237 0 -360 116.5t-123 307.5zM328 588 q77 -6 139 -6q196 0 277 36t81 103q0 44 -43 76t-120 32q-110 0 -199 -67t-135 -174zM547 1147q-6 14 29 70t100 125t129 106q54 31 110 31q54 0 87.5 -35.5t33.5 -87.5q0 -40 -27.5 -78t-76.5 -66q-77 -43 -169 -63t-150 -18t-66 16z" />
<glyph unicode="&#xea;" horiz-adv-x="1081" d="M45 399q0 179 84 322.5t227.5 223t317.5 79.5q187 0 291 -79.5t104 -211.5q0 -63 -15.5 -111t-55 -90.5t-103.5 -70t-165 -43t-236 -15.5q-34 0 -205 9v-6q0 -106 63 -166t180 -60q184 0 295 148l164 -138q-157 -215 -463 -215q-237 0 -360 116.5t-123 307.5zM328 588 q77 -6 139 -6q196 0 277 36t81 103q0 44 -43 76t-120 32q-110 0 -199 -67t-135 -174zM403 1198q0 84 136 188q62 48 128.5 84.5t108.5 45.5q25 -8 72 -45t86 -82q88 -98 88 -168q0 -48 -27 -77.5t-71 -29.5q-79 0 -144 121q-6 14 -19.5 41.5t-19.5 40.5l-71 -82 q-97 -121 -181 -121q-39 0 -62.5 24.5t-23.5 59.5z" />
<glyph unicode="&#xeb;" horiz-adv-x="1081" d="M45 399q0 179 84 322.5t227.5 223t317.5 79.5q187 0 291 -79.5t104 -211.5q0 -63 -15.5 -111t-55 -90.5t-103.5 -70t-165 -43t-236 -15.5q-34 0 -205 9v-6q0 -106 63 -166t180 -60q184 0 295 148l164 -138q-157 -215 -463 -215q-237 0 -360 116.5t-123 307.5zM328 588 q77 -6 139 -6q196 0 277 36t81 103q0 44 -43 76t-120 32q-110 0 -199 -67t-135 -174zM365 1237q0 74 45 122t114 48q71 0 108.5 -33t37.5 -90q0 -73 -45.5 -121.5t-114.5 -48.5q-70 0 -107.5 33t-37.5 90zM780 1237q0 73 45 121.5t113 48.5q72 0 109.5 -33t37.5 -90 q0 -74 -45 -122t-114 -48q-71 0 -108.5 33t-37.5 90z" />
<glyph unicode="&#xec;" horiz-adv-x="522" d="M12 0l213 999h289l-213 -999h-289zM88 1368q0 53 35.5 89t89.5 36q60 0 111 -39q87 -59 157 -171t56 -136q-5 -8 -28.5 -11.5t-61 -0.5t-80.5 12t-93.5 29.5t-93.5 48.5q-92 59 -92 143z" />
<glyph unicode="&#xed;" horiz-adv-x="522" d="M12 0l213 999h289l-213 -999h-289zM248 1147q-6 14 29 70t100 125t129 106q54 31 110 31q54 0 87.5 -35.5t33.5 -87.5q0 -40 -27.5 -78t-76.5 -66q-77 -43 -169 -63t-150 -18t-66 16z" />
<glyph unicode="&#xee;" horiz-adv-x="522" d="M12 0l213 999h289l-213 -999h-289zM102 1198q0 84 136 188q62 48 128.5 84.5t108.5 45.5q25 -8 72 -45t86 -82q88 -98 88 -168q0 -48 -27 -77.5t-71 -29.5q-79 0 -144 121q-5 14 -19 41.5t-20 40.5l-71 -82q-97 -121 -181 -121q-39 0 -62.5 24.5t-23.5 59.5z" />
<glyph unicode="&#xef;" horiz-adv-x="522" d="M12 0l213 999h289l-213 -999h-289zM63 1237q0 73 45.5 121.5t114.5 48.5q71 0 108.5 -33t37.5 -90q0 -73 -45.5 -121.5t-114.5 -48.5q-71 0 -108.5 33t-37.5 90zM479 1237q0 73 45 121.5t113 48.5q72 0 109.5 -33t37.5 -90q0 -74 -45 -122t-114 -48q-71 0 -108.5 33 t-37.5 90z" />
<glyph unicode="&#xf0;" horiz-adv-x="1204" d="M41 403q0 137 61 251t175.5 182.5t259.5 68.5q132 0 228.5 -52t141.5 -130q8 241 -123 399l-329 -143q-4 -2 -14.5 9.5t-20.5 36t-10 52.5q0 88 92 123l119 49q-118 61 -256 70q-9 0 3 36.5t59.5 73.5t123.5 37q178 0 338 -120l262 110q5 1 15 -10.5t20 -36.5t10 -53 q0 -88 -92 -123l-74 -29q86 -113 124.5 -260.5t16.5 -320.5q-11 -152 -58.5 -272t-149.5 -222q-154 -154 -396 -154q-233 0 -379.5 113.5t-146.5 314.5zM319 403q0 -98 64 -155.5t168 -57.5q119 0 201 82q89 89 118 269q-22 65 -94 114.5t-166 49.5q-138 0 -215.5 -86 t-75.5 -216z" />
<glyph unicode="&#xf1;" horiz-adv-x="1191" d="M0 0l211 989q1 3 11 7.5t29 8t40 3.5q70 0 115.5 -42.5t44.5 -136.5q129 195 344 195q151 0 237 -89.5t86 -234.5q0 -25 -5.5 -63t-10.5 -63t-19 -85.5t-18 -80.5l-86 -408h-289l86 403q39 164 39 215q0 77 -42.5 120.5t-119.5 43.5q-73 0 -127 -35t-102 -110l-135 -637 h-289zM399 1204q0 91 64.5 158.5t142.5 67.5q138 0 271 -142q26 58 60 95.5t71 37.5q40 0 64 -24t24 -58q0 -92 -64.5 -159.5t-142.5 -67.5q-136 0 -271 141q-26 -58 -60 -95.5t-71 -37.5q-40 0 -64 24.5t-24 59.5z" />
<glyph unicode="&#xf2;" horiz-adv-x="1144" d="M51 434q0 115 39.5 221t111 188.5t179.5 131.5t235 49q219 0 349.5 -130t130.5 -329q0 -91 -25 -178t-74 -161.5t-116.5 -130.5t-158 -88t-192.5 -32q-219 0 -349 129.5t-130 329.5zM303 444q0 -107 67.5 -178t168.5 -71q130 0 217.5 107t87.5 251q0 109 -67.5 180.5 t-168.5 71.5q-130 0 -217.5 -108t-87.5 -253zM360 1368q0 53 35.5 89t89.5 36q60 0 111 -39q87 -59 157 -171t56 -136q-5 -8 -28 -11.5t-60.5 -0.5t-80.5 12t-93.5 29.5t-93.5 48.5q-93 59 -93 143z" />
<glyph unicode="&#xf3;" horiz-adv-x="1144" d="M51 434q0 115 39.5 221t111 188.5t179.5 131.5t235 49q219 0 349.5 -130t130.5 -329q0 -91 -25 -178t-74 -161.5t-116.5 -130.5t-158 -88t-192.5 -32q-219 0 -349 129.5t-130 329.5zM303 444q0 -107 67.5 -178t168.5 -71q130 0 217.5 107t87.5 251q0 109 -67.5 180.5 t-168.5 71.5q-130 0 -217.5 -108t-87.5 -253zM528 1147q-6 14 29 70t100 125t129 106q54 31 111 31q54 0 87.5 -35.5t33.5 -87.5q0 -40 -28 -78t-77 -66q-77 -43 -169 -63t-150 -18t-66 16z" />
<glyph unicode="&#xf4;" horiz-adv-x="1144" d="M51 434q0 115 39.5 221t111 188.5t179.5 131.5t235 49q219 0 349.5 -130t130.5 -329q0 -91 -25 -178t-74 -161.5t-116.5 -130.5t-158 -88t-192.5 -32q-219 0 -349 129.5t-130 329.5zM303 444q0 -107 67.5 -178t168.5 -71q130 0 217.5 107t87.5 251q0 109 -67.5 180.5 t-168.5 71.5q-130 0 -217.5 -108t-87.5 -253zM381 1198q0 84 135 188q62 48 129 84.5t109 45.5q25 -8 71 -45t86 -82q88 -98 88 -168q0 -48 -27 -77.5t-71 -29.5q-78 0 -143 121q-6 14 -19.5 41.5t-19.5 40.5l-72 -82q-97 -121 -180 -121q-39 0 -62.5 24.5t-23.5 59.5z" />
<glyph unicode="&#xf5;" horiz-adv-x="1144" d="M51 434q0 115 39.5 221t111 188.5t179.5 131.5t235 49q219 0 349.5 -130t130.5 -329q0 -91 -25 -178t-74 -161.5t-116.5 -130.5t-158 -88t-192.5 -32q-219 0 -349 129.5t-130 329.5zM303 444q0 -107 67.5 -178t168.5 -71q130 0 217.5 107t87.5 251q0 109 -67.5 180.5 t-168.5 71.5q-130 0 -217.5 -108t-87.5 -253zM354 1204q0 91 64.5 158.5t142.5 67.5q137 0 270 -142q26 58 60.5 95.5t71.5 37.5q40 0 64 -24t24 -58q0 -92 -64.5 -159.5t-142.5 -67.5q-136 0 -271 141q-26 -58 -60 -95.5t-71 -37.5q-40 0 -64 24.5t-24 59.5z" />
<glyph unicode="&#xf6;" horiz-adv-x="1144" d="M51 434q0 115 39.5 221t111 188.5t179.5 131.5t235 49q219 0 349.5 -130t130.5 -329q0 -91 -25 -178t-74 -161.5t-116.5 -130.5t-158 -88t-192.5 -32q-219 0 -349 129.5t-130 329.5zM303 444q0 -107 67.5 -178t168.5 -71q130 0 217.5 107t87.5 251q0 109 -67.5 180.5 t-168.5 71.5q-130 0 -217.5 -108t-87.5 -253zM342 1237q0 73 45.5 121.5t114.5 48.5q70 0 107.5 -33t37.5 -90q0 -73 -45.5 -121.5t-114.5 -48.5q-70 0 -107.5 33t-37.5 90zM758 1237q0 73 44.5 121.5t112.5 48.5q72 0 110 -33t38 -90q0 -73 -45.5 -121.5t-114.5 -48.5 q-70 0 -107.5 33t-37.5 90z" />
<glyph unicode="&#xf7;" horiz-adv-x="1228" d="M129 510q0 18 7.5 42t19.5 36q30 53 112 53h742q57 0 82 -23.5t20 -66.5q0 -17 -7 -41t-18 -35q-30 -53 -110 -53h-744q-57 0 -83 23.5t-21 64.5zM401 119q0 91 48 139q19 19 42 27t68 8q123 0 123 -94q0 -93 -45 -138q-19 -19 -43 -26.5t-70 -7.5q-123 0 -123 92z M561 866q0 93 45 138q19 19 43 26.5t70 7.5q121 0 121 -92q0 -91 -45 -139q-20 -19 -44 -27t-69 -8q-121 0 -121 94z" />
<glyph unicode="&#xf8;" horiz-adv-x="1144" d="M-45 6q0 45 53 92l109 99q-66 107 -66 237q0 115 39.5 221t111 188.5t179.5 131.5t235 49q170 0 297 -94l170 160q7 7 33 -4t51 -37t25 -56q0 -46 -51 -94l-109 -100q64 -109 64 -234q0 -91 -25 -178t-74 -161.5t-116.5 -130.5t-158 -88t-192.5 -32q-167 0 -292 91 l-172 -158q-7 -7 -33.5 3.5t-52 37t-25.5 57.5zM285 444q0 -50 16 -100q29 27 77 71.5t149.5 138t169 155.5t67.5 61q-63 57 -158 57q-90 0 -164.5 -55t-115.5 -142.5t-41 -185.5zM385 227q68 -55 156 -55q136 0 228.5 115.5t92.5 267.5q0 48 -16 98z" />
<glyph unicode="&#xf9;" horiz-adv-x="1196" d="M66 297q0 25 5 62.5t11 66.5t17.5 83.5t17.5 82.5l86 407h289l-86 -405q-37 -169 -37 -213q0 -78 41 -122t118 -44q73 0 127 35.5t103 111.5l135 637h289l-211 -991q0 -2 -10 -6t-29 -7t-39 -3q-71 0 -117 42t-45 136q-127 -195 -344 -195q-149 0 -235 89t-86 233z M385 1368q0 53 35.5 89t89.5 36q60 0 111 -39q87 -59 157 -171t56 -136q-5 -8 -28.5 -11.5t-61 -0.5t-80.5 12t-93.5 29.5t-93.5 48.5q-92 59 -92 143z" />
<glyph unicode="&#xfa;" horiz-adv-x="1196" d="M66 297q0 25 5 62.5t11 66.5t17.5 83.5t17.5 82.5l86 407h289l-86 -405q-37 -169 -37 -213q0 -78 41 -122t118 -44q73 0 127 35.5t103 111.5l135 637h289l-211 -991q0 -2 -10 -6t-29 -7t-39 -3q-71 0 -117 42t-45 136q-127 -195 -344 -195q-149 0 -235 89t-86 233z M555 1147q-6 14 29 70t100 125t129 106q54 31 111 31q54 0 87 -35.5t33 -87.5q0 -40 -27.5 -78t-76.5 -66q-77 -43 -169 -63t-150 -18t-66 16z" />
<glyph unicode="&#xfb;" horiz-adv-x="1196" d="M66 297q0 25 5 62.5t11 66.5t17.5 83.5t17.5 82.5l86 407h289l-86 -405q-37 -169 -37 -213q0 -78 41 -122t118 -44q73 0 127 35.5t103 111.5l135 637h289l-211 -991q0 -2 -10 -6t-29 -7t-39 -3q-71 0 -117 42t-45 136q-127 -195 -344 -195q-149 0 -235 89t-86 233z M406 1198q0 84 135 188q62 48 128.5 84.5t108.5 45.5q25 -8 72 -45t86 -82q88 -98 88 -168q0 -48 -27 -77.5t-71 -29.5q-79 0 -144 121q-6 14 -19.5 41.5t-19.5 40.5l-71 -82q-97 -121 -180 -121q-39 0 -62.5 24.5t-23.5 59.5z" />
<glyph unicode="&#xfc;" horiz-adv-x="1196" d="M66 297q0 25 5 62.5t11 66.5t17.5 83.5t17.5 82.5l86 407h289l-86 -405q-37 -169 -37 -213q0 -78 41 -122t118 -44q73 0 127 35.5t103 111.5l135 637h289l-211 -991q0 -2 -10 -6t-29 -7t-39 -3q-71 0 -117 42t-45 136q-127 -195 -344 -195q-149 0 -235 89t-86 233z M367 1237q0 74 45 122t114 48q71 0 108.5 -33t37.5 -90q0 -73 -45.5 -121.5t-114.5 -48.5q-70 0 -107.5 33t-37.5 90zM782 1237q0 73 45 121.5t113 48.5q72 0 109.5 -33t37.5 -90q0 -74 -45 -122t-114 -48q-71 0 -108.5 33t-37.5 90z" />
<glyph unicode="&#xfd;" horiz-adv-x="1083" d="M-121 -252q0 27 13.5 54.5t27 42t17.5 12.5q18 -18 51 -30.5t61 -12.5q60 0 117 45.5t143 169.5l25 39q-68 15 -80 106l-59 492q-12 105 -48 151t-100 51q-3 0 -0.5 15t13 37t29.5 44t56 37t86 15q202 0 228 -338l30 -373l412 694h309l-663 -1065q-83 -128 -145 -199 t-133 -110t-156 -39q-135 0 -195 60q-39 39 -39 102zM510 1137q-6 14 29 70t100 125t129 106q52 30 111 30q54 0 87 -35t33 -87q0 -40 -27.5 -78t-76.5 -66q-77 -43 -169 -63t-150 -18t-66 16z" />
<glyph unicode="&#xfe;" horiz-adv-x="1234" d="M-80 -389l379 1794q0 3 11 7t30.5 7.5t40.5 3.5q84 0 133.5 -60.5t24.5 -191.5l-66 -311q121 164 315 164q168 0 281 -115t113 -315q0 -94 -24 -184.5t-70 -168.5t-108.5 -138t-145.5 -94t-175 -34q-110 0 -198.5 50.5t-134.5 138.5l-117 -553h-289zM393 492 q-24 -122 37.5 -205.5t183.5 -83.5q89 0 156.5 52.5t100 133t32.5 172.5q0 106 -60 170t-151 64q-80 0 -150.5 -41.5t-115.5 -112.5z" />
<glyph unicode="&#xff;" horiz-adv-x="1083" d="M-121 -252q0 27 13.5 54.5t27 42t17.5 12.5q18 -18 51 -30.5t61 -12.5q60 0 117 45.5t143 169.5l25 39q-68 15 -80 106l-59 492q-12 105 -48 151t-100 51q-3 0 -0.5 15t13 37t29.5 44t56 37t86 15q202 0 228 -338l30 -373l412 694h309l-663 -1065q-83 -128 -145 -199 t-133 -110t-156 -39q-135 0 -195 60q-39 39 -39 102zM309 1237q0 73 45.5 121.5t114.5 48.5q70 0 107.5 -33t37.5 -90q0 -74 -45 -122t-114 -48q-71 0 -108.5 33t-37.5 90zM725 1237q0 73 45 121.5t113 48.5q72 0 109.5 -33t37.5 -90q0 -73 -45.5 -121.5t-114.5 -48.5 q-70 0 -107.5 33t-37.5 90z" />
<glyph unicode="&#x152;" horiz-adv-x="2099" d="M100 561q0 215 95.5 395.5t268 288t384.5 107.5q115 0 203 -27h1147l-27 -129q-12 -61 -50.5 -89t-111.5 -28h-657q109 -115 106 -291h461l-49 -227h-434q-43 -194 -189 -317h725l-51 -244h-1020q-105 -25 -186 -25q-146 0 -264.5 46.5t-194 127t-116 186t-40.5 226.5z M403 582q0 -148 88.5 -245t241.5 -97q110 0 207.5 65t158 183t60.5 260q0 146 -88.5 242.5t-241.5 96.5q-83 0 -160.5 -38.5t-136 -104.5t-94 -161t-35.5 -201z" />
<glyph unicode="&#x153;" horiz-adv-x="1892" d="M51 434q0 115 39.5 221t109.5 188.5t176.5 131.5t231.5 49q144 0 251 -63.5t157 -176.5q173 240 471 240q185 0 288 -79.5t103 -211.5q0 -61 -17 -108.5t-57.5 -88.5t-106 -67.5t-164.5 -41.5t-230 -15q-88 0 -205 6v-12q0 -106 63.5 -167t181.5 -61q189 0 293 139 l164 -127q-153 -215 -463 -215q-142 0 -246.5 55t-152.5 150q-73 -96 -179.5 -150.5t-238.5 -54.5q-216 0 -342.5 128t-126.5 331zM303 444q0 -107 67.5 -178t168.5 -71q130 0 217.5 107t87.5 251q0 109 -67.5 180.5t-168.5 71.5q-130 0 -217.5 -108t-87.5 -253zM1133 584 q79 -9 145 -9q356 0 356 146q0 45 -43.5 77.5t-120.5 32.5q-111 0 -201 -69t-136 -178z" />
<glyph unicode="&#x178;" horiz-adv-x="1226" d="M152 1325h305l223 -555l463 555h360l-712 -815l-109 -510h-301l113 537zM440 1554q0 73 45.5 121.5t114.5 48.5q71 0 108 -32.5t37 -89.5q0 -74 -45 -122t-114 -48q-71 0 -108.5 32.5t-37.5 89.5zM856 1554q0 73 45 121.5t113 48.5q72 0 109.5 -32.5t37.5 -89.5 q0 -73 -45.5 -121.5t-114.5 -48.5q-71 0 -108 32.5t-37 89.5z" />
<glyph unicode="&#x2c6;" horiz-adv-x="1024" d="M352 1198q0 84 135 188q62 48 129 84.5t109 45.5q25 -8 72 -45t86 -82q88 -98 88 -168q0 -47 -27.5 -77t-71.5 -30q-78 0 -143 121q-5 14 -19 41.5t-20 40.5l-72 -82q-97 -121 -180 -121q-39 0 -62.5 24.5t-23.5 59.5z" />
<glyph unicode="&#x2dc;" horiz-adv-x="1024" d="M326 1204q0 91 64.5 158.5t141.5 67.5q138 0 271 -142q26 58 60 95.5t71 37.5q40 0 64 -24t24 -58q0 -92 -64.5 -159.5t-142.5 -67.5q-135 0 -270 141q-26 -58 -60 -95.5t-71 -37.5q-40 0 -64 24.5t-24 59.5z" />
<glyph unicode="&#x2000;" horiz-adv-x="922" />
<glyph unicode="&#x2001;" horiz-adv-x="1845" />
<glyph unicode="&#x2002;" horiz-adv-x="922" />
<glyph unicode="&#x2003;" horiz-adv-x="1845" />
<glyph unicode="&#x2004;" horiz-adv-x="615" />
<glyph unicode="&#x2005;" horiz-adv-x="461" />
<glyph unicode="&#x2006;" horiz-adv-x="307" />
<glyph unicode="&#x2007;" horiz-adv-x="307" />
<glyph unicode="&#x2008;" horiz-adv-x="230" />
<glyph unicode="&#x2009;" horiz-adv-x="369" />
<glyph unicode="&#x200a;" horiz-adv-x="102" />
<glyph unicode="&#x2010;" horiz-adv-x="876" d="M57 369l54 264h710l-55 -264h-709z" />
<glyph unicode="&#x2011;" horiz-adv-x="876" d="M57 369l54 264h710l-55 -264h-709z" />
<glyph unicode="&#x2012;" horiz-adv-x="876" d="M57 369l54 264h710l-55 -264h-709z" />
<glyph unicode="&#x2013;" horiz-adv-x="1136" d="M70 379l53 244h948l-53 -244h-948z" />
<glyph unicode="&#x2014;" horiz-adv-x="1474" d="M66 379l53 244h1294l-53 -244h-1294z" />
<glyph unicode="&#x2018;" horiz-adv-x="479" d="M145 907q0 40 17.5 74.5t64.5 83.5l265 293l110 -72l-219 -500q-1 -3 -26 -4.5t-60 4t-69.5 17.5t-58.5 39t-24 65z" />
<glyph unicode="&#x2019;" horiz-adv-x="479" d="M117 852l219 500q1 3 26 4.5t59.5 -4t69 -17.5t58.5 -39t24 -65q0 -39 -17.5 -72.5t-63.5 -83.5l-265 -293z" />
<glyph unicode="&#x201a;" horiz-adv-x="497" d="M-119 -209l221 502q1 3 26 4t60 -4.5t69.5 -17.5t58.5 -39.5t24 -65.5t-18 -72t-64 -84l-264 -293z" />
<glyph unicode="&#x201c;" horiz-adv-x="890" d="M143 909q0 41 18 75.5t64 80.5l264 293l113 -70l-221 -500q-1 -3 -26 -4.5t-60 3.5t-69.5 17t-58.5 39.5t-24 65.5zM557 907q0 40 17.5 74.5t64.5 83.5l264 293l111 -72l-219 -500q-1 -3 -26 -4.5t-60 4t-69.5 17.5t-58.5 39t-24 65z" />
<glyph unicode="&#x201d;" horiz-adv-x="890" d="M113 840l219 499q1 3 26 4.5t59.5 -3.5t69 -16.5t58.5 -39t24 -65.5q0 -42 -17 -76.5t-65 -79.5l-264 -293zM524 840l221 499q1 3 26 4.5t60 -4t69.5 -17t58.5 -38.5t24 -65q0 -40 -17.5 -74.5t-64.5 -83.5l-264 -293z" />
<glyph unicode="&#x201e;" horiz-adv-x="899" d="M-119 -209l221 502q1 3 26 4t60 -4.5t69.5 -17.5t58.5 -39.5t24 -65.5q0 -39 -18 -74.5t-64 -81.5l-264 -293zM295 -209l219 500q1 3 26 4.5t60 -4t69.5 -17.5t58.5 -39t24 -65q0 -41 -17 -75.5t-63 -82.5l-264 -293z" />
<glyph unicode="&#x2022;" horiz-adv-x="710" d="M94 502q0 113 76 190.5t186 77.5q112 0 187 -77.5t75 -190.5q0 -109 -76.5 -186.5t-185.5 -77.5q-111 0 -186.5 76t-75.5 188z" />
<glyph unicode="&#x2026;" horiz-adv-x="1466" d="M6 90q0 108 53 158q22 22 48.5 30.5t80.5 8.5q140 0 140 -107q0 -103 -54 -157q-21 -21 -48 -29t-81 -8q-71 0 -105 25t-34 79zM494 90q0 105 53 158q21 21 48.5 30t80.5 9q141 0 141 -107q0 -104 -53 -157q-21 -21 -48 -29t-81 -8q-141 0 -141 104zM983 90q0 105 53 158 q21 21 48.5 30t80.5 9q140 0 140 -107q0 -103 -54 -157q-21 -21 -47.5 -29t-81.5 -8q-139 0 -139 104z" />
<glyph unicode="&#x202f;" horiz-adv-x="369" />
<glyph unicode="&#x2039;" horiz-adv-x="651" d="M72 516q2 13 62.5 79.5t133.5 129.5q173 147 267 147q49 0 75.5 -25t26.5 -67q0 -47 -49 -100t-129 -102q-86 -51 -160 -86q67 -46 123 -99q54 -53 77 -88t23 -69q0 -45 -32.5 -75t-86.5 -30q-100 0 -219 166q-47 69 -81 137t-31 82z" />
<glyph unicode="&#x203a;" horiz-adv-x="651" d="M16 225q0 45 50 99t131 104q36 22 157 86q-78 53 -121 98q-55 51 -78.5 86.5t-23.5 69.5q0 45 33 74.5t88 29.5q101 0 219 -165q46 -66 80.5 -134.5t32.5 -83.5q-2 -14 -62.5 -79t-136.5 -129q-169 -150 -266 -150q-47 0 -75 25.5t-28 68.5z" />
<glyph unicode="&#x205f;" horiz-adv-x="461" />
<glyph unicode="&#x20ac;" horiz-adv-x="1292" d="M45 483q0 57 31 88q29 29 84 29h82q10 62 24 127h-61q-46 0 -70 18t-24 48q0 58 30 88q28 28 84 28h99q64 169 155 260q186 183 451 183q111 0 201 -33t147 -88q68 -68 68 -160q0 -40 -16.5 -72t-39 -47.5t-46.5 -27.5t-40 -11.5t-18 0.5q-72 193 -283 193 q-132 0 -219 -90q-42 -42 -72 -107h320q46 0 70 -17t24 -46q0 -61 -33 -90q-29 -29 -82 -29h-362q-18 -80 -25 -127h340q46 0 71.5 -17.5t25.5 -45.5q0 -58 -33 -91q-26 -26 -82 -26h-326q19 -92 85 -145.5t171 -53.5q91 0 157.5 35.5t133.5 116.5q6 6 34.5 -8t56.5 -47.5 t28 -73.5q0 -72 -66 -138q-58 -58 -157 -94.5t-209 -36.5q-229 0 -366.5 119t-154.5 326h-94q-94 0 -94 63z" />
<glyph unicode="&#x2122;" horiz-adv-x="1413" d="M156 1174v153h571v-153h-197v-492h-172v492h-202zM811 682v643h195l133 -319l131 319h192v-643h-162v403l-88 -239q-4 -15 -7.5 -21t-20 -11t-47.5 -5q-10 0 -18.5 0.5t-14.5 1t-11.5 2t-8.5 2t-6.5 3.5t-4.5 4t-3 5l-2.5 5t-2.5 7t-2 7l-88 235v-399h-164z" />
<glyph unicode="&#xe000;" horiz-adv-x="1003" d="M0 0v1004h1004v-1004h-1004z" />
</font>
</defs>
</svg>
