<?xml version="1.0" standalone="no"?>
<!DOCTYPE svg PUBLIC "-//W3C//DTD SVG 1.1//EN" "http://www.w3.org/Graphics/SVG/1.1/DTD/svg11.dtd" >
<svg xmlns="http://www.w3.org/2000/svg">
<metadata></metadata>
<defs>
<font id="omnes_ods_lightitalic" horiz-adv-x="1095" >
<font-face units-per-em="2048" ascent="1638" descent="-410" />
<missing-glyph horiz-adv-x="360" />
<glyph unicode="&#xfb01;" horiz-adv-x="989" d="M106 881l19 88h207l28 133q32 143 111 222t203 79q85 0 135 -31.5t53 -77.5q1 -17 -8 -30.5t-19 -19t-12 -3.5q-19 33 -61.5 54.5t-93.5 21.5q-166 0 -215 -230l-27 -118h516l-207 -969h-98l188 881h-415l-187 -881h-98l188 881h-207z" />
<glyph unicode="&#xfb02;" horiz-adv-x="1003" d="M106 881l19 88h207l26 118q70 316 301 316q109 0 164 -55q25 -25 25 -56q0 -16 -9 -29t-18.5 -18.5t-11.5 -3.5q-19 33 -62 54.5t-94 21.5q-83 0 -131 -63.5t-71 -180.5l-25 -104h252l-19 -88h-249l-187 -881h-98l188 881h-207zM692 193l254 1191q0 5 23 5q74 0 55 -107 l-233 -1087q-17 -79 7 -109.5t91 -30.5q3 0 0.5 -16.5t-20 -33.5t-52.5 -17q-78 0 -112.5 51.5t-12.5 153.5z" />
<glyph horiz-adv-x="2048" />
<glyph horiz-adv-x="2048" />
<glyph unicode="&#xd;" horiz-adv-x="2048" />
<glyph unicode=" "  horiz-adv-x="360" />
<glyph unicode="&#x09;" horiz-adv-x="360" />
<glyph unicode="&#xa0;" horiz-adv-x="360" />
<glyph unicode="!" horiz-adv-x="475" d="M70 45q0 59 26 82q20 20 58 20q35 0 55 -14.5t20 -40.5q0 -55 -24 -82q-20 -20 -60 -20q-35 0 -55 14.5t-20 40.5zM186 358l168 967h131l-243 -967h-56z" />
<glyph unicode="&#x22;" horiz-adv-x="677" d="M252 883l51 372q4 41 19.5 58.5t44.5 17.5q43 0 58 -19.5t1 -68.5l-107 -366q-12 -39 -32 -39q-24 0 -31 9t-4 36zM530 883l50 372q4 41 20 58.5t45 17.5q44 0 59 -19.5t1 -68.5l-107 -366q-12 -39 -33 -39q-24 0 -31.5 9t-3.5 36z" />
<glyph unicode="#" horiz-adv-x="1280" d="M29 377l16 88h285l123 395h-271l19 88h276l117 379q2 7 26.5 4.5t38.5 -26t-6 -97.5l-82 -260h361l117 379q2 7 26.5 4.5t38.5 -26t-6 -97.5l-82 -260h277l-17 -88h-287l-120 -395h270l-16 -88h-281l-115 -379q-2 -7 -26.5 -4.5t-38.5 26t6 97.5l80 260h-359l-116 -379 q-2 -7 -27 -4.5t-39 26t6 97.5l80 260h-274zM422 463h364l123 399h-364z" />
<glyph unicode="$" horiz-adv-x="1085" d="M20 279q0 3 40 29t42 26q33 -96 111 -164.5t197 -89.5l118 557q-57 24 -96.5 43.5t-84 51t-71.5 65.5t-45 83t-18 107q0 151 116.5 252t311.5 104q6 0 18 -1t17 -1l39 175h90l-39 -183q163 -23 256 -116q65 -65 65 -127q0 -23 -15 -38t-30 -18.5t-18 0.5 q-30 80 -101.5 137.5t-181.5 75.5l-112 -540q45 -18 75 -31.5t69 -34t64.5 -40t52.5 -46.5t43 -56t26 -66.5t10 -80.5q0 -166 -116.5 -268t-336.5 -102q-27 0 -41 2l-39 -181h-90l41 191q-148 27 -245 111.5t-122 173.5zM317 997q0 -50 17 -89.5t51 -70t73.5 -53t96.5 -45.5 l109 516q-10 2 -31 2q-142 -3 -229 -77t-87 -183zM487 70h31q169 -3 258.5 72t89.5 200q0 50 -19 90.5t-58 71.5t-82 53.5t-107 48.5z" />
<glyph unicode="%" horiz-adv-x="1449" d="M-12 0l1423 1325h121l-1423 -1325h-121zM182 1001q0 139 94.5 240.5t233.5 101.5q111 0 187.5 -74t76.5 -194q0 -139 -94.5 -240.5t-233.5 -101.5q-111 0 -187.5 74t-76.5 194zM266 1006q0 -84 55 -139.5t132 -55.5q100 0 168.5 77t68.5 183q0 85 -54 140t-132 55 q-100 0 -169 -77t-69 -183zM752 258q0 139 94 240.5t233 101.5q112 0 188 -74t76 -194q0 -139 -93.5 -240.5t-231.5 -101.5q-112 0 -189 74t-77 194zM836 262q0 -85 55 -139.5t133 -54.5q99 0 167.5 77t68.5 183q0 85 -54.5 139.5t-132.5 54.5q-99 0 -168 -77.5t-69 -182.5z " />
<glyph unicode="&#x26;" horiz-adv-x="1312" d="M39 338q0 168 113 276t329 154q-75 113 -75 231q0 143 98.5 245t247.5 102q128 0 207 -76t79 -195q0 -147 -103 -232.5t-304 -121.5l317 -420q90 101 140.5 216.5t58.5 213.5l90 -12q-17 -118 -74.5 -246t-161.5 -240l27 -38q53 -74 100 -102.5t109 -26.5q2 0 3 -7.5 t-1 -18.5t-8.5 -22t-22 -18.5t-39.5 -7.5q-60 0 -102 30.5t-102 106.5l-29 39q-208 -188 -479 -188q-194 0 -306 99.5t-112 258.5zM135 342q0 -119 86.5 -197.5t245.5 -78.5q237 0 418 167l-357 467q-195 -36 -294 -128t-99 -230zM504 1006q0 -112 76 -218q94 16 157.5 36.5 t112.5 53t71.5 80.5t22.5 115q0 84 -55 136.5t-146 52.5q-106 0 -172.5 -77t-66.5 -179z" />
<glyph unicode="'" horiz-adv-x="401" d="M252 883l51 372q4 41 19.5 58.5t44.5 17.5q43 0 58 -19.5t1 -68.5l-107 -366q-12 -39 -32 -39q-24 0 -31 9t-4 36z" />
<glyph unicode="(" horiz-adv-x="718" d="M96 246q0 252 95.5 491.5t259.5 403.5q92 92 191.5 142t178.5 50q32 0 44 -18.5t6 -39t-19 -26.5q-173 -9 -336 -172q-148 -148 -232.5 -374t-84.5 -457q0 -316 166 -482q69 -69 151 -92q5 -3 8 -21t-8 -36t-41 -18q-38 0 -88 26t-100 76q-88 88 -139.5 229t-51.5 318z " />
<glyph unicode=")" horiz-adv-x="718" d="M-157 -343.5q6 20.5 18 26.5q175 9 338 172q147 149 231 374t84 457q0 312 -164 481q-70 70 -151 93q-6 3 -9.5 21t8 36t42.5 18q83 0 188 -102q87 -88 137.5 -229t50.5 -318q0 -252 -95 -491.5t-259 -403.5q-93 -93 -191.5 -142.5t-179.5 -49.5q-31 0 -42.5 18.5 t-5.5 39z" />
<glyph unicode="*" horiz-adv-x="772" d="M197 1106q0 51 51 39l223 -66l6 232q1 24 9 31.5t26 7.5t26 -7.5t9 -31.5l6 -232l223 66q51 12 51 -39q0 -18 -28 -29l-217 -80l131 -190q20 -33 4 -45q-34 -31 -62 4l-143 182l-143 -182q-29 -37 -62 -4q-16 12 4 45l131 190l-219 80q-26 10 -26 29z" />
<glyph unicode="+" horiz-adv-x="1064" d="M100 502l19 88h391l82 391h92l-82 -391h387l-18 -88h-387l-90 -416h-93l91 416h-392z" />
<glyph unicode="," horiz-adv-x="391" d="M-117 -236l213 396q5 1 25.5 1t43.5 -14.5t23 -37.5q0 -34 -28 -72l-232 -303z" />
<glyph unicode="-" horiz-adv-x="718" d="M86 463l16 90h545l-18 -90h-543z" />
<glyph unicode="." horiz-adv-x="391" d="M29 45q0 58 24 82q20 20 60 20q35 0 55 -14.5t20 -40.5q0 -56 -26 -82q-20 -20 -58 -20q-75 0 -75 55z" />
<glyph unicode="/" horiz-adv-x="649" d="M-186 -389l886 1714h113l-887 -1714h-112z" />
<glyph unicode="0" horiz-adv-x="1273" d="M135 459q0 123 51 334q129 550 557 550q226 0 348.5 -132t122.5 -345q0 -125 -51 -336q-29 -123 -73 -219t-109.5 -172.5t-160.5 -117.5t-214 -41q-226 0 -348.5 132t-122.5 347zM238 459q0 -174 98.5 -283.5t269.5 -109.5q99 0 177.5 36t132.5 103.5t89.5 149.5 t59.5 188q47 198 47 323q0 174 -99 282.5t-270 108.5q-99 0 -177.5 -36t-132 -103.5t-89 -149.5t-59.5 -188q-47 -198 -47 -321z" />
<glyph unicode="1" horiz-adv-x="688" d="M124.5 1066q4.5 18 10.5 19q218 62 416 246h82l-283 -1331h-102l254 1196q-185 -167 -326 -182q-33 -1 -44.5 16.5t-7 35.5z" />
<glyph unicode="2" horiz-adv-x="1046" d="M-10 0q8 68 8 72q14 211 162 346q77 72 169.5 122t217.5 95q95 35 153.5 60t113 57t83 66t45 78.5t16.5 102.5q0 112 -86 183t-235 71q-133 0 -223 -67t-138 -180q-5 -1 -18.5 0t-28 16.5t-14.5 40.5q0 24 22.5 67t59.5 80q136 136 346 136q193 0 306.5 -95t113.5 -252 q0 -63 -13.5 -114.5t-44.5 -93.5t-67.5 -74.5t-96.5 -64t-117.5 -55.5t-143.5 -56q-127 -45 -209.5 -89t-149.5 -106q-107 -102 -121 -254h793l-19 -92h-884z" />
<glyph unicode="3" horiz-adv-x="1060" d="M-27 303q0 2 42.5 23t43.5 20q33 -122 134.5 -200t265.5 -78q178 0 277.5 94t99.5 233q0 119 -83 189.5t-239 70.5h-117q-45 0 -45 25q0 30 19 53q13 10 39 10h127q108 0 186.5 22t122.5 62t64 88.5t20 108.5q0 101 -86.5 168.5t-218.5 67.5q-115 0 -213.5 -54 t-153.5 -137q-2 -3 -14.5 2t-24.5 18t-12 29q0 39 49 88q64 64 160 102t215 38q177 0 292 -85t115 -233q0 -133 -84 -226t-241 -114q111 -30 170 -107.5t59 -183.5q0 -79 -29 -151.5t-86.5 -133t-154 -96.5t-219.5 -36q-108 0 -196 29.5t-144 79t-90 103t-50 111.5z" />
<glyph unicode="4" horiz-adv-x="1146" d="M53 467q0 26 11.5 46t41.5 50l783 766h141l-180 -842h233l-18 -92h-234l-83 -395h-101l84 395h-643q-3 0 -11.5 10.5t-16 28t-7.5 33.5zM154 485h600l159 752z" />
<glyph unicode="5" horiz-adv-x="1064" d="M29 258q0 22 15.5 37.5t31 20.5t18.5 1q30 -110 133 -178.5t256 -68.5q179 0 285 107.5t106 266.5q0 131 -88 204t-256 73t-299 -72q-63 13 -51 80l127 596h785l-19 -92h-688l-98 -473q116 51 252 51q204 0 323 -98.5t119 -261.5q0 -98 -34.5 -183.5t-97.5 -149.5 t-158.5 -101t-211.5 -37q-123 0 -220.5 36.5t-158.5 98.5q-71 74 -71 143z" />
<glyph unicode="6" horiz-adv-x="1167" d="M135 444q0 70 14 164.5t42.5 203.5t82 215t121.5 173q74 74 158.5 110t210.5 36q196 0 309 -113q31 -33 47.5 -66.5t16.5 -54.5q0 -22 -14.5 -38t-29 -21.5t-18.5 -1.5q-36 96 -120.5 152.5t-202.5 56.5q-380 0 -494 -598q64 66 162 107.5t223 41.5q191 0 306.5 -96 t115.5 -262q0 -126 -61 -234t-172 -173.5t-248 -65.5q-202 0 -325.5 119.5t-123.5 344.5zM231 442q0 -180 94 -276t261 -96q170 0 276.5 107t106.5 269q0 127 -88.5 204t-249.5 77q-239 0 -391 -170q-9 -62 -9 -115z" />
<glyph unicode="7" horiz-adv-x="1024" d="M159.5 64.5q7.5 26.5 33.5 60.5l817 1100h-809l20 100h844q4 0 15 -9.5t22.5 -30t11.5 -42.5q0 -32 -37 -82l-858 -1167q-2 -1 -13.5 1t-24.5 9.5t-21 20.5t-0.5 39.5z" />
<glyph unicode="8" horiz-adv-x="1159" d="M61 324q0 140 107.5 244t284.5 132q-102 31 -156.5 98t-54.5 163q0 161 133 273t340 112q186 0 305 -88.5t119 -231.5q0 -128 -90.5 -225t-255.5 -125q123 -35 186 -114.5t63 -180.5q0 -173 -139 -287t-364 -114q-217 0 -347.5 94.5t-130.5 249.5zM164 330 q0 -119 102 -191.5t277 -72.5q181 0 289 87.5t108 227.5q0 116 -101.5 189t-281.5 73q-171 0 -282 -88t-111 -225zM344 965q0 -108 89.5 -171t242.5 -63q167 0 263.5 78.5t96.5 208.5q0 110 -92 176t-244 66q-162 0 -259 -82.5t-97 -212.5z" />
<glyph unicode="9" horiz-adv-x="1167" d="M100 217q0 22 14 37.5t28 20.5t18 1q36 -96 122 -152t205 -56q379 0 496 575q-64 -65 -163.5 -107t-219.5 -42q-197 0 -309.5 96t-112.5 272q0 131 61.5 241.5t173.5 176.5t249 66q202 0 325 -120t123 -345q0 -70 -14 -163.5t-43 -202t-82.5 -214.5t-122.5 -174 q-73 -75 -159 -111t-214 -36q-197 0 -311 114q-32 31 -48 65t-16 58zM274 868q0 -137 85.5 -213.5t252.5 -76.5q122 0 222 47.5t167 122.5q13 80 13 135q0 180 -94 276t-261 96q-170 0 -277.5 -109t-107.5 -278z" />
<glyph unicode=":" horiz-adv-x="440" d="M53 45q0 57 25 82q20 20 59 20q35 0 55.5 -14.5t20.5 -40.5q0 -55 -27 -82q-20 -20 -57 -20q-76 0 -76 55zM207 770q0 55 24 82q20 20 60 20q35 0 55.5 -14.5t20.5 -40.5q0 -58 -27 -82q-20 -20 -57 -20q-76 0 -76 55z" />
<glyph unicode=";" horiz-adv-x="440" d="M-92 -236l213 396q5 1 25.5 1t43.5 -14.5t23 -37.5q0 -33 -29 -72l-231 -303zM207 770q0 55 24 82q20 20 60 20q35 0 55.5 -14.5t20.5 -40.5q0 -58 -27 -82q-20 -20 -57 -20q-76 0 -76 55z" />
<glyph unicode="&#x3c;" horiz-adv-x="942" d="M100 498l21 100l774 383q3 1 10.5 -4.5t14.5 -17.5t8 -25q0 -37 -68 -72l-657 -321l506 -312q62 -37 59 -75q-3 -14 -10.5 -26t-15 -16.5t-11.5 -2.5z" />
<glyph unicode="=" horiz-adv-x="1064" d="M66 262l20 92h840l-21 -92h-839zM162 715l20 92h840l-21 -92h-839z" />
<glyph unicode="&#x3e;" horiz-adv-x="942" d="M43 158q-3 36 66 71l657 322l-506 309q-64 38 -57 76q2 14 9.5 26t15.5 16.5t12 2.5l628 -389l-20 -100l-774 -383q-3 -1 -10.5 5t-14 18.5t-6.5 25.5z" />
<glyph unicode="?" horiz-adv-x="937" d="M188 1055q0 30 25 76.5t66 87.5q127 127 321 127q176 0 282.5 -97t106.5 -248q0 -263 -315 -366q-93 -32 -140.5 -58t-68.5 -54.5t-33 -78.5l-20 -88h-84l8 84q9 75 37 120t81.5 76.5t157.5 68.5q141 50 209 116t68 180q0 111 -80 182.5t-215 71.5q-123 0 -211.5 -71 t-128.5 -185q-2 -4 -18 0.5t-32 19.5t-16 36zM252 45q0 58 27 82q20 20 57 20q76 0 76 -55q0 -54 -25 -82q-20 -20 -59 -20q-36 0 -56 14.5t-20 40.5z" />
<glyph unicode="@" horiz-adv-x="1505" d="M131 571q0 156 56.5 298t153.5 247t235 167.5t294 62.5q272 0 438.5 -149t166.5 -396q0 -199 -92.5 -329t-241.5 -130q-90 0 -139.5 40t-57.5 105q-79 -137 -242 -137q-104 0 -171.5 67t-67.5 181q0 142 92.5 253.5t228.5 111.5q76 0 132 -38.5t79 -99.5l13 58 q18 69 75 69q12 0 23.5 -5t11.5 -9l-76 -350q-17 -82 11 -126t100 -44q108 0 176 109.5t68 269.5q0 212 -148.5 344.5t-386.5 132.5q-180 0 -331 -95.5t-236.5 -255t-85.5 -345.5q0 -231 154 -379t407 -148q95 0 188 29t156 72q24 18 53 18q18 0 32.5 -21t8.5 -28 q-74 -59 -193.5 -100t-250.5 -41q-290 0 -461.5 163.5t-171.5 427.5zM557 608q0 -81 49 -130.5t121 -49.5q84 0 148.5 59.5t80.5 141.5l21 96q-13 71 -60.5 114.5t-125.5 43.5q-102 0 -168 -83.5t-66 -191.5z" />
<glyph unicode="A" horiz-adv-x="1222" d="M-82 0l793 1325h114l273 -1325h-107l-90 459h-596l-270 -459h-117zM356 549h527l-131 670z" />
<glyph unicode="B" horiz-adv-x="1214" d="M57 0l281 1325h428q196 0 296.5 -75t100.5 -218q0 -132 -73.5 -224.5t-235.5 -127.5q125 -26 192.5 -96.5t67.5 -177.5q0 -70 -16.5 -129t-54.5 -111t-96.5 -88t-147 -57t-201.5 -21h-541zM178 92h426q214 0 310 79t96 235q0 110 -84 168.5t-240 58.5h-393zM311 723h383 q176 0 270.5 82.5t94.5 214.5q-6 213 -303 213h-336z" />
<glyph unicode="C" horiz-adv-x="1325" d="M127 543q0 215 94 399t262 294t371 110q239 0 387 -144q42 -42 65 -91.5t23 -84.5q0 -24 -15 -40.5t-30 -18.5t-22 0q-38 137 -143 213.5t-271 76.5q-129 0 -243.5 -56.5t-195 -151.5t-127 -223t-46.5 -269q0 -223 130.5 -355t344.5 -132q156 0 267 67t173 170l74 -53 q-23 -38 -51 -72.5t-74 -72.5t-99.5 -65.5t-128.5 -45.5t-159 -18q-267 0 -426.5 152.5t-159.5 410.5z" />
<glyph unicode="D" horiz-adv-x="1327" d="M57 0l283 1325h278q310 0 482 -146t172 -409q0 -163 -52.5 -302t-153 -244t-257.5 -164.5t-354 -59.5h-398zM178 90h293q170 0 304 52t218 143.5t127 211t43 259.5q0 226 -144 352.5t-407 126.5h-190z" />
<glyph unicode="E" horiz-adv-x="1148" d="M57 0l283 1325h893l-10 -51q-3 -22 -19 -31.5t-51 -9.5h-731l-109 -508h625l-18 -90h-625l-117 -543h815l-18 -92h-918z" />
<glyph unicode="F" horiz-adv-x="1069" d="M57 0l283 1325h860l-10 -51q-8 -41 -70 -41h-698l-117 -551h580l-19 -90h-581l-125 -592h-103z" />
<glyph unicode="G" horiz-adv-x="1415" d="M129 549q0 154 54.5 299t149 255t232.5 176.5t295 66.5q136 0 238 -42t166 -106q36 -36 56.5 -78.5t20.5 -72.5t-16.5 -46.5t-33 -19.5t-19.5 0q-31 117 -142.5 195.5t-271.5 78.5q-134 0 -251.5 -57t-198 -152.5t-126.5 -222.5t-46 -264q0 -233 130.5 -362t344.5 -129 q215 0 346 131q67 67 97 136t63 226h-443l19 90h536l-139 -651q0 -6 -23 -6q-52 0 -52 61q0 19 5 45l23 109q-57 -103 -172 -166t-262 -63q-259 0 -419.5 151.5t-160.5 417.5z" />
<glyph unicode="H" horiz-adv-x="1351" d="M59 0l283 1325h100l-131 -614h826l133 614h100l-283 -1325h-100l129 616h-825l-131 -616h-101z" />
<glyph unicode="I" horiz-adv-x="464" d="M80 0l282 1325h101l-283 -1325h-100z" />
<glyph unicode="J" horiz-adv-x="892" d="M4 178q0 22 14 38.5t28.5 22t16.5 1.5q30 -76 101 -124t162 -48q125 0 197.5 77.5t109.5 247.5l198 932h101l-201 -946q-43 -203 -141.5 -301t-263.5 -98t-267 98q-55 58 -55 100z" />
<glyph unicode="K" horiz-adv-x="1075" d="M59 0l283 1325h100l-133 -625l778 625h148l-819 -649l372 -479q64 -85 100 -110.5t89 -27.5q2 0 2.5 -7t-2.5 -16.5t-10.5 -19.5t-25 -17t-42.5 -7q-48 0 -89.5 34.5t-115.5 133.5l-391 514l-143 -674h-101z" />
<glyph unicode="L" horiz-adv-x="995" d="M59 0l283 1325h100l-264 -1233h699l-19 -92h-799z" />
<glyph unicode="M" horiz-adv-x="1505" d="M59 0l281 1325h149l250 -872l627 872h156l-283 -1325h-96l258 1214l-578 -796q-24 -33 -45 -46.5t-51 -13.5q-38 0 -54.5 17.5t-25.5 54.5l-233 784l-258 -1214h-97z" />
<glyph unicode="N" horiz-adv-x="1372" d="M59 0l281 1325h127l577 -1175l250 1175h97l-283 -1325h-107l-591 1204l-256 -1204h-95z" />
<glyph unicode="O" horiz-adv-x="1488" d="M127 551q0 167 61 317t162 253.5t233.5 164t272.5 60.5q263 0 422.5 -161t159.5 -411q0 -167 -61 -316t-162 -252t-233.5 -163.5t-272.5 -60.5q-263 0 -422.5 160.5t-159.5 408.5zM236 559q0 -212 129.5 -350.5t353.5 -138.5q116 0 227 53t195.5 144t136 222.5 t51.5 278.5q0 212 -129.5 350.5t-353.5 138.5q-116 0 -226.5 -53.5t-195.5 -144.5t-136.5 -222.5t-51.5 -277.5z" />
<glyph unicode="P" horiz-adv-x="1114" d="M57 0l283 1325h356q216 0 329.5 -88.5t113.5 -253.5q0 -218 -137.5 -338.5t-389.5 -120.5h-342l-110 -524h-103zM291 614h340q191 0 297 94.5t106 262.5q0 129 -86 195.5t-258 66.5h-268z" />
<glyph unicode="Q" horiz-adv-x="1507" d="M127 551q0 135 39.5 258.5t109.5 220t161.5 168.5t201 110t223.5 38q265 0 420.5 -159t155.5 -413q0 -180 -69.5 -335.5t-190.5 -264.5l18 -24q43 -54 75 -75.5t68 -23.5q1 0 2.5 -7t-0.5 -17t-7.5 -20.5t-18.5 -17.5t-33 -7q-43 0 -75 22.5t-81 87.5l-18 23 q-184 -133 -406 -133q-265 0 -420 158.5t-155 410.5zM236 559q0 -138 55.5 -248t165 -175.5t256.5 -65.5q184 0 338 114l-273 353h117l223 -289q98 95 154.5 230.5t56.5 289.5q0 138 -55.5 248t-165 175.5t-256.5 65.5q-118 0 -230 -53.5t-197 -144.5t-137 -222.5 t-52 -277.5z" />
<glyph unicode="R" horiz-adv-x="1144" d="M57 2l281 1319q4 4 61 4h316q214 0 326 -82t112 -239q0 -204 -133 -320.5t-371 -116.5h-71l243 -368q52 -80 88 -107q35 -26 93 -26h4t2.5 -7.5t-2 -18.5t-10 -22t-25 -18.5t-43.5 -7.5q-51 0 -93.5 34t-103.5 134l-268 407h-182l-121 -565q0 -2 -51 -2h-15q-37 0 -37 2z M299 655h354q191 0 292.5 91t101.5 247q0 118 -86.5 180t-253.5 62h-285z" />
<glyph unicode="S" horiz-adv-x="1085" d="M16 266l86 51q40 -111 144.5 -180t275.5 -69q167 0 255.5 73.5t88.5 200.5q0 44 -17 81.5t-41 63t-69.5 52.5t-82 43.5t-99.5 42.5q-44 18 -74 31t-69.5 34t-65.5 40t-54 47t-44 57.5t-26.5 68.5t-10.5 84q0 154 120 256.5t316 102.5q127 0 221.5 -36t151.5 -93 q65 -65 65 -127q0 -23 -15 -38t-30 -18.5t-18 0.5q-36 98 -132.5 160.5t-246.5 62.5q-146 0 -237 -74t-91 -186q0 -47 16.5 -85.5t40 -64.5t69.5 -53.5t83 -44t103 -42.5q46 -19 74 -31.5t68 -34t64.5 -39.5t53 -45.5t44 -56.5t26 -67t10.5 -81q0 -169 -119.5 -270.5 t-333.5 -101.5q-194 0 -323.5 80.5t-176.5 205.5z" />
<glyph unicode="T" horiz-adv-x="1165" d="M209 1233l18 92h1069l-10 -51q-4 -23 -19.5 -32t-49.5 -9h-422l-265 -1233h-100l262 1233h-483z" />
<glyph unicode="U" horiz-adv-x="1292" d="M160 573l162 752h100l-160 -760q-19 -88 -19 -161q0 -130 61 -209q95 -123 321 -123q341 0 428 417l180 836h98l-182 -856q-103 -489 -531 -489q-271 0 -395 150q-83 101 -83 265q0 81 20 178z" />
<glyph unicode="V" horiz-adv-x="1210" d="M201 1325h108l230 -1219l708 1219h117l-784 -1325h-115z" />
<glyph unicode="W" horiz-adv-x="1794" d="M281 1325h104l33 -1233l522 975q14 30 31.5 41.5t52.5 11.5q71 0 78 -69l112 -957l549 1231h109l-600 -1325h-137l-121 1018l-553 -1018h-131z" />
<glyph unicode="X" horiz-adv-x="1148" d="M-111 0l660 674l-311 651h108l279 -594l567 594h135l-655 -672l319 -653h-108l-289 596l-569 -596h-136z" />
<glyph unicode="Y" d="M170 1325h111l305 -666l569 666h135l-669 -764l-121 -561h-101l121 571z" />
<glyph unicode="Z" horiz-adv-x="1140" d="M-68 0l15 70l1140 1163h-841l18 92h996l-15 -70l-1141 -1163h881l-18 -92h-1035z" />
<glyph unicode="[" horiz-adv-x="659" d="M-14 -395l364 1720h434l-18 -88h-340l-328 -1542h340q-4 -59 -18 -90q-15 -31 -65 -42.5t-111 -5.5t-120 16t-98 21z" />
<glyph unicode="\" horiz-adv-x="649" d="M197 1325h100l160 -1714h-99z" />
<glyph unicode="]" horiz-adv-x="659" d="M-133 -395l18 90h340l328 1542h-340l18 88h435l-367 -1720h-432z" />
<glyph unicode="^" horiz-adv-x="1024" d="M369 948q0 24 30 60.5t105 105.5q43 39 83.5 71.5t61.5 47t25 14.5q3 0 17.5 -14t40.5 -46t50 -69q78 -120 78 -153q0 -20 -10.5 -31.5t-26.5 -11.5q-20 0 -40 25.5t-62 103.5q-13 22 -31.5 57t-27.5 51q-92 -98 -107 -112q-119 -125 -158 -125q-13 0 -20.5 7.5 t-7.5 18.5z" />
<glyph unicode="_" horiz-adv-x="925" d="M-94 -92l18 92h873l-21 -92h-870z" />
<glyph unicode="`" horiz-adv-x="1024" d="M453 1362q0 18 14 30.5t33 12.5q31 0 88 -51q59 -50 109.5 -106.5t73 -90.5t17.5 -37q-6 -6 -43.5 8t-101.5 51.5t-125 88.5q-38 32 -51.5 52.5t-13.5 41.5z" />
<glyph unicode="a" horiz-adv-x="1159" d="M76 395q0 150 68 285.5t193.5 222t276.5 86.5q137 0 234 -70t131 -176l27 129q12 58 29.5 81t49.5 22q8 0 17 -2.5t14.5 -5.5t5.5 -4l-204 -963h-99l45 205q-68 -111 -168.5 -168t-218.5 -57q-172 0 -286.5 111t-114.5 304zM176 397q0 -152 88.5 -241.5t224.5 -89.5 q153 0 273 109.5t151 256.5l39 178q-24 132 -113 212.5t-233 80.5q-125 0 -225.5 -75.5t-152.5 -190t-52 -240.5z" />
<glyph unicode="b" horiz-adv-x="1155" d="M37 0l295 1384q0 5 22 5q60 0 60 -68q0 -17 -4 -39l-111 -508q142 215 375 215q172 0 289.5 -115.5t117.5 -314.5q0 -148 -65.5 -280t-187 -215.5t-269.5 -83.5q-140 0 -238 72t-137 184l-49 -236h-98zM229 446q-6 -30 -6 -60q0 -39 10 -77q17 -68 59 -122t113.5 -87.5 t159.5 -33.5q94 0 174 42t132.5 111.5t82 158t29.5 181.5q0 157 -92.5 250.5t-228.5 93.5q-126 0 -230.5 -74.5t-159.5 -189.5z" />
<glyph unicode="c" horiz-adv-x="1048" d="M74 422q0 147 70 276.5t195 209t273 79.5q199 0 324 -119q40 -40 61 -87t21 -83q0 -27 -18.5 -43.5t-34.5 -16t-21 2.5q-16 112 -102.5 186t-227.5 74q-95 0 -178 -40t-140 -106t-89.5 -151.5t-32.5 -175.5q0 -164 99 -262t259 -98q212 0 326 190l74 -47 q-17 -37 -50 -74.5t-82.5 -74t-122.5 -59.5t-155 -23q-126 0 -226.5 50.5t-161 152.5t-60.5 239z" />
<glyph unicode="d" horiz-adv-x="1159" d="M82 410q0 148 65.5 280t187 215.5t269.5 83.5q137 0 235 -67t140 -174l117 544q11 53 27.5 75t47.5 22q14 0 26.5 -7t12.5 -12l-292 -1370h-97l41 195q-142 -215 -375 -215q-110 0 -201 49t-147.5 148.5t-56.5 232.5zM180 410q0 -156 92.5 -250t227.5 -94q149 0 264 103 t145 249l41 188q-30 138 -116.5 217.5t-235.5 79.5q-94 0 -174 -42t-132.5 -111.5t-82 -158t-29.5 -181.5z" />
<glyph unicode="e" horiz-adv-x="1034" d="M70 371q0 126 46.5 240.5t126.5 197t192.5 131.5t238.5 49q156 0 246 -68.5t90 -175.5q0 -54 -16 -97.5t-56 -81t-103.5 -62.5t-161.5 -39t-227 -14q-122 0 -268 14q-8 -39 -8 -88q0 -142 82.5 -228t236.5 -86q220 0 340 168l72 -55q-55 -83 -159.5 -139.5t-256.5 -56.5 q-197 0 -306 108t-109 283zM199 549q127 -17 239 -17q471 0 471 211q0 65 -63 112.5t-178 47.5q-162 0 -289.5 -99.5t-179.5 -254.5z" />
<glyph unicode="f" horiz-adv-x="636" d="M106 881l19 88h207l26 118q70 316 301 316q109 0 164 -55q25 -25 25 -56q0 -16 -9 -29t-18.5 -18.5t-11.5 -3.5q-19 33 -62 54.5t-94 21.5q-83 0 -131 -63.5t-71 -180.5l-25 -104h254l-18 -88h-252l-187 -881h-98l188 881h-207z" />
<glyph unicode="g" horiz-adv-x="1155" d="M4 -147q0 30 17 48t34.5 21.5t18.5 -0.5q28 -107 116.5 -171t243.5 -64q316 0 389 350l41 186q-138 -213 -379 -213q-80 0 -153 28.5t-129.5 80.5t-90.5 133.5t-34 181.5q0 141 68.5 268.5t192 207t271.5 79.5q137 0 235 -70t132 -176l27 129q10 55 28 79t49 24 q9 0 18.5 -2.5t15 -5.5t5.5 -4l-200 -934q-43 -210 -167 -321t-327 -111q-232 0 -352 124q-35 34 -52.5 70.5t-17.5 61.5zM178 434q0 -153 94 -245.5t226 -92.5q148 0 264.5 97.5t146.5 238.5l39 178q-24 133 -112.5 213t-231.5 80q-122 0 -221 -68.5t-152 -175t-53 -225.5z " />
<glyph unicode="h" d="M37 0l295 1384q0 5 22 5q60 0 60 -68q0 -17 -4 -39l-111 -508q62 101 154 158t206 57q152 0 242 -88.5t90 -232.5q0 -21 -2.5 -46t-9.5 -63.5t-11 -58.5t-15.5 -74t-14.5 -68l-78 -358h-98l80 371q49 214 49 280q0 115 -65 180.5t-179 65.5q-124 0 -213 -64.5 t-162 -191.5l-137 -641h-98z" />
<glyph unicode="i" horiz-adv-x="399" d="M49 0l207 969h96l-205 -969h-98zM305 1284q0 34 19 58t53 24q69 0 69 -53q0 -34 -18.5 -58t-52.5 -24q-70 0 -70 53z" />
<glyph unicode="j" horiz-adv-x="399" d="M-338 -309q0 17 10 32.5t20 23.5t11 5q53 -71 147 -71q65 0 107 43.5t63 142.5l236 1102h96l-237 -1119q-27 -130 -97.5 -194t-171.5 -64q-103 0 -161 54q-23 23 -23 45zM305 1284q0 34 19 58t53 24q69 0 69 -53q0 -34 -18.5 -58t-52.5 -24q-70 0 -70 53z" />
<glyph unicode="k" horiz-adv-x="874" d="M37 0l295 1384q0 5 22 5q60 0 60 -68q0 -17 -4 -39l-162 -756l581 443h148l-623 -469l234 -301q63 -87 98 -109q32 -20 89 -20h11q1 0 1.5 -8.5t-2.5 -20.5t-10 -24t-24.5 -20.5t-43.5 -8.5q-53 0 -91.5 33t-121.5 149l-250 334l-109 -504h-98z" />
<glyph unicode="l" horiz-adv-x="399" d="M90 193l254 1191q0 5 21 5q59 0 59 -68q0 -17 -4 -39l-232 -1087q-8 -33 -8 -58q0 -33 14 -51q24 -31 91 -31q1 0 1 -7t-2.5 -16.5t-9 -19.5t-22 -17t-37.5 -7q-79 0 -113 52q-21 31 -21 81q0 32 9 72z" />
<glyph unicode="m" horiz-adv-x="1753" d="M37 0l209 969q0 6 20 6q58 0 58 -64q0 -19 -5 -43l-14 -71q64 92 152.5 142t191.5 50q115 0 196.5 -64t100.5 -171q61 108 159.5 171.5t231.5 63.5q138 0 226 -88t88 -229q0 -21 -3 -46.5t-9.5 -61.5t-11.5 -60t-15.5 -73t-14.5 -69l-77 -362h-97l80 375q47 223 47 280 q0 112 -62 177t-163 65q-120 0 -205.5 -60.5t-154.5 -181.5l-140 -655h-96l121 578q10 45 10 84q0 82 -43 144q-63 90 -180 91q-116 0 -201 -57.5t-160 -177.5l-141 -662h-98z" />
<glyph unicode="n" d="M37 0l209 969q0 6 20 6q58 0 58 -64q0 -19 -5 -43l-20 -94q135 215 360 215q152 0 242 -88.5t90 -232.5q0 -21 -2.5 -46t-9.5 -63.5t-11 -58.5t-15.5 -74t-14.5 -68l-78 -358h-98l80 371q49 214 49 280q0 115 -65 180.5t-179 65.5q-124 0 -213 -64.5t-162 -191.5 l-137 -641h-98z" />
<glyph unicode="o" horiz-adv-x="1132" d="M76 424q0 152 71 281.5t196 206.5t273 77q189 0 316 -125.5t127 -318.5q0 -151 -72 -281t-196.5 -207t-272.5 -77q-190 0 -316 125t-126 319zM174 426q0 -156 99 -258t251 -102q177 0 305.5 140.5t128.5 336.5q0 156 -98 258t-250 102q-116 0 -216.5 -64t-160 -174 t-59.5 -239z" />
<glyph unicode="p" horiz-adv-x="1155" d="M-43 -387l289 1356q0 6 20 6q57 0 57 -66q0 -18 -4 -41l-18 -94q139 215 373 215q172 0 289.5 -115.5t117.5 -314.5q0 -148 -65.5 -280t-187 -215.5t-269.5 -83.5q-142 0 -242 75t-133 181l-129 -623h-98zM229 446q-6 -30 -6 -60q0 -38 10 -77q17 -68 59 -122 t113.5 -87.5t159.5 -33.5q94 0 174 42t132.5 111.5t82 158t29.5 181.5q0 157 -92.5 250.5t-228.5 93.5q-126 0 -230.5 -74.5t-159.5 -189.5z" />
<glyph unicode="q" horiz-adv-x="1159" d="M82 410q0 148 65.5 280t187 215.5t269.5 83.5q137 0 236 -67.5t139 -173.5l27 124q12 57 30 80t49 23q8 0 17 -2.5t14.5 -5.5t5.5 -4l-286 -1350h-99l125 582q-142 -215 -375 -215q-110 0 -201 49t-147.5 148.5t-56.5 232.5zM180 410q0 -156 92.5 -250t227.5 -94 q149 0 264 103t145 249l41 188q-30 138 -116.5 217.5t-235.5 79.5q-94 0 -174 -42t-132.5 -111.5t-82 -158t-29.5 -181.5z" />
<glyph unicode="r" horiz-adv-x="671" d="M37 0l209 969q0 6 20 6q57 0 57 -66q0 -18 -4 -41l-20 -100q102 221 285 221q59 0 101 -25t42 -59q0 -21 -9.5 -37t-19 -21.5t-12.5 -4.5q-47 55 -129 55q-117 0 -200.5 -124t-129.5 -345l-92 -428h-98z" />
<glyph unicode="s" horiz-adv-x="903" d="M-6 195l78 55q40 -81 131 -135t215 -54q126 0 197 52t71 137q0 25 -7.5 45.5t-26.5 38t-36.5 30t-52.5 27t-58 23t-69 24.5q-54 18 -88 31.5t-78 38t-69.5 50.5t-43.5 66t-18 89q0 119 98.5 197.5t254.5 78.5q103 0 187.5 -32t135.5 -83q47 -50 47 -92q0 -19 -13 -32.5 t-27 -17t-17 0.5q-34 76 -122.5 125t-199.5 49q-116 0 -181.5 -54t-65.5 -128q0 -32 14 -59t33.5 -46t58 -38.5t68.5 -31t84 -30.5q53 -19 85 -31.5t75 -36t67 -48t41.5 -62t17.5 -82.5q0 -128 -97.5 -204t-270.5 -76q-152 0 -262 61.5t-156 153.5z" />
<glyph unicode="t" horiz-adv-x="671" d="M113 881l18 88h166l49 231h98l-49 -231h307l-18 -88h-307l-121 -562q-12 -57 -12 -101q0 -155 151 -155q42 0 80 18.5t60 45.5q2 2 8 -3.5t11 -17.5t5 -24q0 -27 -24 -51q-54 -51 -154 -51q-135 0 -195 87q-39 56 -38 143q0 49 12 109l119 562h-166z" />
<glyph unicode="u" d="M102 301q0 26 6 65.5t12 70t19 88t19 85.5l75 359h99l-80 -371q-47 -223 -47 -281q0 -115 65 -180t179 -65q123 0 211 64t163 192l138 641h98l-207 -969q0 -6 -23 -6q-34 0 -49 22q-9 13 -9 39q0 19 5 45l21 99q-62 -104 -153.5 -161.5t-207.5 -57.5q-152 0 -243 88.5 t-91 232.5z" />
<glyph unicode="v" horiz-adv-x="929" d="M45 910q-1 7 1 15q2 12 8.5 24t22 20t38.5 8q59 0 100 -41q55 -55 80 -242l80 -596l532 871h111l-604 -969h-117l-98 702q-17 112 -52 154q-33 41 -94 41h-6q-2 0 -2 13z" />
<glyph unicode="w" horiz-adv-x="1390" d="M85 913q1 7 3 15q4 11 11 22t24 19t41 8q55 0 92 -37q61 -61 61 -232v-16l-6 -590l357 660q18 34 38 45.5t52 11.5q69 0 78 -76l69 -641l416 867h104l-471 -969h-125l-88 700l-387 -700h-133v698q0 80 -16.5 125t-44 61t-72.5 17q-3 0 -3 12z" />
<glyph unicode="x" horiz-adv-x="931" d="M-80 0l475 483l-243 486h114l203 -430l414 430h131l-498 -504l129 -242q49 -93 89 -121q37 -26 99 -26h9q2 0 3 -8.5t-1.5 -21t-9 -25t-23 -21t-41.5 -8.5q-64 0 -111.5 45t-111.5 176l-105 197l-393 -410h-129z" />
<glyph unicode="y" horiz-adv-x="927" d="M-184 -319q0 15 9 28.5t19 19t13 3.5q18 -23 49.5 -37t58.5 -14q60 0 122.5 52.5t160.5 196.5l82 123q-47 5 -54 66l-79 583q-15 106 -51 152q-34 43 -96 43h-5q-1 0 -1.5 8t2 20t9 24t24 20t42.5 8q137 0 172 -283l74 -588l538 863h111l-674 -1059 q-123 -188 -199.5 -253t-171.5 -65q-94 0 -137 46q-18 18 -18 43z" />
<glyph unicode="z" horiz-adv-x="942" d="M-20 0l20 94l821 791h-639l17 84h745l-20 -95l-820 -790h662l-16 -84h-770z" />
<glyph unicode="{" horiz-adv-x="804" d="M53 487q6 35 20 50t66 36l170 78q78 336 254 512q86 86 174 128t150 42q28 0 39 -18.5t5.5 -39t-18.5 -26.5q-76 -12 -153.5 -52t-136.5 -99q-78 -80 -132 -202.5t-96 -305.5l-258 -111l203 -155q-65 -402 100 -570q58 -58 138 -82q6 -4 9 -22t-8.5 -35.5t-41.5 -17.5 q-74 0 -164 90q-94 96 -130.5 252.5t-11.5 343.5l-131 102q-36 27 -45 46.5t-2 55.5z" />
<glyph unicode="|" horiz-adv-x="468" d="M2 -393l363 1718h96l-363 -1718h-96z" />
<glyph unicode="}" horiz-adv-x="804" d="M-136 -345.5q5 20.5 17 26.5q77 12 155.5 52t135.5 99q79 79 132.5 200.5t96.5 305.5l258 113l-202 155q66 402 -103 568q-57 59 -135 83q-7 2 -10 20.5t9 37t40 18.5q74 0 164 -90q95 -95 131.5 -252t9.5 -344l131 -102q36 -27 46 -47t3 -56q-8 -36 -21.5 -50.5 t-64.5 -35.5l-170 -77q-81 -341 -256 -512q-85 -86 -172 -128t-149 -42q-29 0 -40 18.5t-6 39z" />
<glyph unicode="~" horiz-adv-x="1021" d="M104 555q18 94 63 147.5t114 53.5q46 0 78 -21.5t69 -62.5q29 -34 46.5 -47t39.5 -13q30 0 49 21.5t33 64.5q8 24 18.5 35.5t28.5 11.5q17 0 35 -14q-15 -94 -60 -148.5t-114 -54.5q-46 0 -80.5 22.5t-67.5 63.5q-31 34 -48.5 47t-39.5 13q-30 0 -49 -21.5t-33 -64.5 q-8 -25 -18.5 -36t-28.5 -11q-17 0 -35 14z" />
<glyph unicode="&#xa1;" horiz-adv-x="475" d="M68 0l243 967h56l-166 -967h-133zM324 1233q0 56 26 82q20 20 58 20q35 0 55 -14.5t20 -40.5q0 -59 -26 -82q-17 -20 -58 -20q-35 0 -55 14.5t-20 40.5z" />
<glyph unicode="&#xa2;" horiz-adv-x="1077" d="M115 514q0 109 42 212t113 181t172.5 125.5t214.5 46.5l56 258h88l-56 -264q141 -21 232 -112q40 -40 61 -87t21 -83q0 -28 -18 -44.5t-34.5 -16t-21.5 2.5q-12 97 -81 168t-179 88l-176 -829q4 0 12 -1t12 -1q211 0 326 192l76 -47q-17 -36 -50 -73.5t-82.5 -74.5 t-122.5 -60t-155 -23q-21 0 -33 2l-57 -267h-88q4 18 10 46.5t18.5 89t21 101t7.5 40.5q-147 34 -238 146.5t-91 283.5zM215 520q0 -135 68.5 -227t185.5 -123l174 823q-122 -4 -222 -74t-153 -176.5t-53 -222.5z" />
<glyph unicode="&#xa3;" horiz-adv-x="1118" d="M0 0l20 92h160l131 457h-215l17 90h225l72 252q69 246 168.5 352.5t261.5 106.5q149 0 243 -90q30 -32 47 -69t17 -63q0 -30 -17.5 -47.5t-33 -18t-19.5 0.5q-22 97 -85 148t-158 51q-116 0 -191 -87.5t-135 -295.5l-70 -240h414l-16 -90h-422l-133 -457h720l-18 -92 h-983z" />
<glyph unicode="&#xa4;" horiz-adv-x="1271" d="M76 485q0 36 18 54q10 10 37 10h156q10 108 47 237h-144q-45 0 -45 25q0 11 6 27.5t13 23.5q10 10 37 10h159q76 203 187 314q160 160 383 160q187 0 299 -115q33 -32 52 -77t19 -81q0 -27 -17 -44t-32 -18t-18 1q-28 118 -109 183t-206 65q-175 0 -302 -130 q-89 -86 -155 -258h475q43 0 43 -22q0 -38 -18 -53q-8 -11 -37 -11h-492q-31 -107 -43 -237h477q43 0 43 -25q0 -36 -18 -51q-7 -10 -37 -10h-469q5 -179 99.5 -288t252.5 -109q215 0 344 206q2 2 14 -2.5t23.5 -17t11.5 -29.5q0 -45 -67 -112q-55 -57 -143 -94t-181 -37 q-214 0 -333.5 128t-122.5 355h-162q-45 0 -45 22z" />
<glyph unicode="&#xa5;" horiz-adv-x="1130" d="M86 252l16 88h385l43 203h-383l19 86h354l-299 696h111l270 -659l528 659h127l-579 -696h354l-16 -86h-391l-41 -203h387l-19 -88h-387l-55 -252h-92l51 252h-383z" />
<glyph unicode="&#xa7;" horiz-adv-x="1026" d="M-47 -68q0 23 15 40.5t30 24t18 3.5q34 -105 130 -169t262 -64q145 0 226 63t81 164q0 22 -5 41.5t-18 36.5t-25 30.5t-37 27.5t-42 23.5t-51 23t-54 20.5t-61 22q-64 23 -102.5 38.5t-88 42.5t-77 55t-47 69.5t-19.5 91.5q0 116 83 189.5t208 95.5q-148 84 -148 225 q0 138 112 229t296 91q225 0 346 -121q28 -28 43.5 -61.5t15.5 -55.5q0 -23 -14.5 -39.5t-29.5 -21.5t-19 0q-34 95 -123 154t-227 59q-137 0 -219 -64t-82 -158q0 -31 9.5 -56.5t31.5 -47t43.5 -37.5t62 -34t69 -29.5t81.5 -30.5q53 -20 83.5 -32.5t74.5 -33.5t69 -41 t50 -47.5t36.5 -61t11.5 -73.5q0 -121 -81.5 -195t-206.5 -94q151 -77 151 -219q0 -145 -111.5 -236.5t-302.5 -91.5q-132 0 -229 35t-152 90q-67 70 -67 129zM186 537q0 -38 16 -69.5t39.5 -53.5t66 -44t80 -36.5t97.5 -34.5l82 -31q118 6 202.5 69t84.5 159q0 36 -16 66 t-38 50.5t-65.5 42t-77 34.5t-94.5 34q-26 8 -96 35q-120 -13 -200.5 -71t-80.5 -150z" />
<glyph unicode="&#xa8;" horiz-adv-x="1024" d="M422 1176q0 39 20.5 65.5t57.5 26.5q78 0 78 -60q0 -39 -21.5 -65.5t-58.5 -26.5q-76 0 -76 60zM748 1176q0 39 20.5 65.5t58.5 26.5q76 0 76 -60q0 -39 -21 -65.5t-59 -26.5q-75 0 -75 60z" />
<glyph unicode="&#xa9;" horiz-adv-x="1533" d="M135 659q0 145 51 272.5t140 218.5t213.5 143.5t265.5 52.5q193 0 345.5 -86.5t237.5 -242t85 -351.5q0 -194 -87 -351t-240.5 -246t-342.5 -89q-193 0 -345.5 86.5t-237.5 241.5t-85 351zM219 662q0 -174 75 -313.5t209 -218.5t302 -79q258 0 422 171.5t164 441.5 q0 130 -44.5 243.5t-122 194t-186.5 126.5t-235 46q-258 0 -421 -171t-163 -441zM465 659q0 155 101.5 260t252.5 105q74 0 134 -24t94 -60q43 -43 43 -82q0 -15 -12.5 -27.5t-25 -17t-14.5 -2.5q-26 58 -83 93.5t-138 35.5q-109 0 -184.5 -80.5t-75.5 -197.5 q0 -122 75 -201.5t193 -79.5q155 0 224 139q2 0 32.5 -23t30.5 -24q-16 -46 -63 -96q-34 -34 -94 -57t-134 -23q-158 0 -257 101.5t-99 260.5z" />
<glyph unicode="&#xaa;" horiz-adv-x="960" d="M141 870q0 119 54.5 228.5t154.5 179.5t221 70q108 0 185 -54.5t104 -140.5l19 90q10 51 27 71.5t48 20.5q8 0 16.5 -2.5t13.5 -5.5t5 -4l-166 -778h-92q21 104 35 172q-52 -88 -132 -134t-175 -46q-136 0 -227 90t-91 243zM233 874q0 -117 69.5 -187.5t172.5 -70.5 q121 0 213.5 84.5t118.5 200.5l29 141q-18 101 -87 163.5t-180 62.5q-98 0 -176.5 -58.5t-119 -148t-40.5 -187.5zM295 41q0 49 22 74q15 18 54 18q69 0 69 -49q0 -52 -24 -76q-18 -18 -54 -18q-67 0 -67 51z" />
<glyph unicode="&#xab;" horiz-adv-x="999" d="M98 514q0 4 21 25t69 61t109 84q95 70 145 98.5t78 28.5q17 0 26 -10.5t9 -26.5q0 -45 -195 -168q-130 -86 -172 -110q70 -59 138 -121q86 -79 113 -109t28 -53q0 -14 -11 -24.5t-28 -10.5q-29 0 -71 33t-113 111q-65 72 -105.5 126.5t-40.5 65.5zM483 498q0 5 25.5 29.5 t77.5 66t114 86.5q98 71 152 102t82 31q17 0 26 -10.5t9 -26.5q0 -48 -215 -184q-16 -10 -80 -50.5t-101 -62.5q34 -27 125 -110q80 -75 102.5 -101.5t22.5 -48.5q0 -14 -12 -24.5t-29 -10.5q-28 0 -64.5 29t-103.5 102q-39 44 -70.5 86t-46 66t-14.5 31z" />
<glyph unicode="&#xad;" horiz-adv-x="718" d="M86 463l16 90h545l-18 -90h-543z" />
<glyph unicode="&#xae;" horiz-adv-x="1533" d="M135 659q0 145 51 272.5t140 218.5t213.5 143.5t265.5 52.5q193 0 345.5 -86.5t237.5 -242t85 -351.5q0 -194 -87 -351t-240.5 -246t-342.5 -89q-193 0 -345.5 86.5t-237.5 241.5t-85 351zM219 662q0 -174 75 -313.5t209 -218.5t302 -79q258 0 422 171.5t164 441.5 q0 130 -44.5 243.5t-122 194t-186.5 126.5t-235 46q-258 0 -421 -171t-163 -441zM563 319v703h258q130 0 198 -54t68 -159q0 -95 -62 -150.5t-181 -56.5l237 -252q2 -3 -3 -12t-18 -17t-28 -8q-37 0 -63 33l-226 250h-88v-277h-92zM653 672h170q85 0 129.5 36t44.5 101 q0 135 -180 135h-164v-272z" />
<glyph unicode="&#xaf;" horiz-adv-x="1024" d="M395 1188q0 30 19 53q10 12 41 12h434q49 0 49 -26q0 -34 -18 -56q-10 -10 -41 -10h-437q-47 0 -47 27z" />
<glyph unicode="&#xb0;" horiz-adv-x="753" d="M193 1016q0 137 96 235.5t229 98.5q111 0 183.5 -70t72.5 -184q0 -137 -96 -236.5t-229 -99.5q-110 0 -183 71t-73 185zM279 1022q0 -78 51.5 -130t132.5 -52q93 0 159 74t66 176q0 78 -51.5 130t-132.5 52q-93 0 -159 -74t-66 -176z" />
<glyph unicode="&#xb1;" horiz-adv-x="1228" d="M150 287q0 13 5.5 30.5t12.5 24.5q9 12 39 12h745q47 0 47 -24q0 -12 -6.5 -30.5t-13.5 -25.5q-9 -12 -39 -12h-743q-47 0 -47 25zM301 858q0 11 5.5 27.5t12.5 23.5q10 13 37 13h301l66 299q11 49 43 49h14q18 0 29 -12t6 -37l-63 -299h292q46 0 46 -25q0 -11 -6 -27.5 t-13 -23.5q-12 -12 -37 -12h-301l-63 -302q-11 -47 -45 -47h-13q-18 0 -28.5 11t-5.5 36l63 302h-295q-45 0 -45 24z" />
<glyph unicode="&#xb2;" horiz-adv-x="688" d="M47 643q6 116 80 193q61 61 213 116q122 42 171.5 79t49.5 104q0 54 -45 88t-119 34q-133 0 -188 -131h-15.5t-27 13t-14.5 35q0 16 13 42t34 48q78 75 209 75q113 0 179 -54.5t66 -145.5q0 -98 -63.5 -151t-202.5 -101q-79 -28 -124 -49.5t-77 -53.5q-47 -47 -53 -120 h385q53 0 53 -33q0 -9 -4.5 -20.5t-9.5 -19t-6 -7.5h-465q-17 0 -28.5 17t-10.5 42z" />
<glyph unicode="&#xb3;" horiz-adv-x="688" d="M33 739q0 26 15.5 41.5t30.5 18.5t17 0q8 -66 61.5 -108t143.5 -42q89 0 140 46.5t51 115.5q0 56 -40 90.5t-116 34.5h-57q-37 0 -37 25q0 24 14 38q11 11 39 11h65q98 0 141.5 37t43.5 98q0 51 -43.5 84t-112.5 33q-64 0 -115 -29.5t-77 -75.5q-3 -2 -15 1t-24.5 14 t-12.5 28q0 29 31 57q79 82 219 82q102 0 174 -52.5t72 -129.5t-46.5 -126t-133.5 -64q125 -38 125 -160q0 -97 -72.5 -166.5t-214.5 -69.5q-141 0 -219 74q-47 47 -47 94z" />
<glyph unicode="&#xb4;" horiz-adv-x="1024" d="M508 1120q-3 4 30 38.5t98.5 88.5t135.5 99q54 40 94 40q19 0 31 -11.5t12 -28.5q0 -20 -19 -40t-67 -53q-74 -46 -150.5 -80t-119.5 -46.5t-45 -6.5z" />
<glyph unicode="&#xb6;" horiz-adv-x="1150" d="M154 918q0 87 27.5 159t84.5 128.5t155.5 88t231.5 31.5h265q54 0 57 -6l-270 -1278q-6 -26 -18 -36.5t-34 -10.5h-14q-22 0 -31.5 14t-3.5 39l121 576h-135q-214 0 -325 74t-111 221zM803 0l282 1325h101l-283 -1325h-100z" />
<glyph unicode="&#xb7;" horiz-adv-x="391" d="M137 485q0 57 27 84q21 21 57 21q35 0 55.5 -14.5t20.5 -40.5q0 -58 -27 -82q-21 -21 -57 -21q-35 0 -55.5 14t-20.5 39z" />
<glyph unicode="&#xb8;" horiz-adv-x="1024" d="M150 -418q14 20 36 54t68.5 105t77.5 118t30 47q3 3 24.5 -1t43 -18.5t21.5 -36.5q0 -33 -35 -71l-221 -228q-9 -10 -30 5t-15 26z" />
<glyph unicode="&#xb9;" horiz-adv-x="688" d="M59 616q0 16 7 27q12 23 47 23h166l114 530q-50 -53 -121 -53q-42 0 -67 19t-27 50q0 18 9 33.5t17.5 22t10.5 4.5q22 -45 84 -45q42 0 81 29.5t54 74.5h39q42 0 33 -47l-137 -618h155q19 0 29.5 -9t7.5 -24q0 -19 -8 -27q-8 -22 -45 -22h-412q-20 0 -30 8.5t-7 23.5z " />
<glyph unicode="&#xba;" horiz-adv-x="899" d="M150 891q0 186 125.5 320.5t306.5 134.5q156 0 257 -99.5t101 -255.5q0 -123 -57 -227.5t-157 -166.5t-220 -62q-155 0 -255.5 99.5t-100.5 256.5zM242 893q0 -119 76 -199t192 -80q138 0 238 110.5t100 262.5q0 119 -77 199t-193 80q-138 0 -237 -110.5t-99 -262.5z M285 41q0 49 22 74q15 18 53 18q70 0 70 -49q0 -52 -24 -76q-18 -18 -52 -18q-69 0 -69 51z" />
<glyph unicode="&#xbb;" horiz-adv-x="999" d="M35 213q0 51 215 184q115 75 180 113q-54 45 -125 113q-78 72 -101.5 99.5t-23.5 49.5q0 12 12 22.5t29 10.5q29 0 65.5 -28.5t102.5 -100.5q58 -67 94.5 -119.5t36.5 -64.5q0 -4 -25.5 -28.5t-78 -67.5t-113.5 -87q-182 -131 -233 -131q-16 0 -25.5 10.5t-9.5 24.5z M449 217q0 43 194 168q123 81 172 111q-48 38 -137 120q-86 79 -113 109t-28 51q0 14 10.5 24.5t27.5 10.5q29 0 72 -32.5t113 -108.5q43 -48 77.5 -92t51 -69.5t16.5 -31.5q0 -5 -21 -26.5t-68.5 -61t-108.5 -84.5q-95 -68 -145.5 -96.5t-78.5 -28.5q-16 0 -25 10.5 t-9 26.5z" />
<glyph unicode="&#xbc;" horiz-adv-x="1341" d="M-33 0l1221 1325h106l-1220 -1325h-107zM140 1167q5 18 14 25q139 35 252 137h75l-157 -747h-99l135 630q-93 -90 -174 -96q-30 0 -40.5 16.5t-5.5 34.5zM647 266q0 37 39 76l399 403h136l-99 -458h127l-16 -78h-123l-45 -209h-92l43 209h-340q-3 0 -10 7.5t-13 21.5 t-6 28zM735 285h303l80 387z" />
<glyph unicode="&#xbd;" horiz-adv-x="1351" d="M-33 0l1221 1325h106l-1220 -1325h-107zM140 1167q5 18 14 25q139 35 252 137h75l-157 -747h-99l135 630q-93 -90 -174 -96q-30 0 -40.5 16.5t-5.5 34.5zM686 0q2 31 6 66q9 114 84 186q80 72 219 119q120 42 167.5 78t47.5 102q0 55 -42.5 90t-116.5 35 q-134 0 -195 -133q-2 -2 -14.5 0.5t-25.5 14t-13 30.5q0 45 45 90q76 76 207 76q116 0 182 -54.5t66 -144.5q0 -55 -16.5 -94.5t-55 -69.5t-83 -50t-120.5 -46q-79 -27 -118 -47t-72 -51q-51 -51 -56 -117h432l-18 -80h-510z" />
<glyph unicode="&#xbe;" horiz-adv-x="1484" d="M59 756l78 37q20 -64 72 -104t135 -40q90 0 140.5 45.5t50.5 114.5q0 57 -39.5 91t-114.5 34h-57q-37 0 -37 24q0 26 12 41q9 9 41 9h63q97 0 142 37.5t45 97.5q0 51 -44 84t-114 33q-63 0 -114.5 -29.5t-77.5 -73.5q-3 -3 -15 0t-24.5 13.5t-12.5 27.5q0 25 31 59 q78 78 219 78q111 0 179.5 -47.5t68.5 -132.5q0 -75 -46 -125.5t-134 -62.5q62 -18 93.5 -61t31.5 -101q0 -97 -71 -165.5t-216 -68.5q-119 0 -189.5 53.5t-95.5 131.5zM113 0l1220 1325h107l-1221 -1325h-106zM793 266q0 38 38 76l400 403h135l-98 -458h127l-17 -78h-123 l-45 -209h-92l43 209h-340q-3 0 -9.5 7.5t-12.5 21.5t-6 28zM881 285h303l80 387z" />
<glyph unicode="&#xbf;" horiz-adv-x="937" d="M20 322q0 63 18.5 117t47.5 91.5t72 69t84.5 51t91.5 37.5q94 32 142 58t69 54.5t33 78.5l20 88h84l-8 -86q-15 -107 -70 -158.5t-207 -104.5q-140 -50 -208 -116.5t-68 -179.5q0 -111 80 -183.5t215 -72.5q121 0 210.5 72t129.5 186q2 4 18 -0.5t31.5 -19.5t15.5 -36 q0 -32 -24 -77t-66 -87q-129 -129 -321 -129q-176 0 -283 97.5t-107 249.5zM596 1229q0 58 27 82q20 20 57 20q36 0 56 -14t20 -39q0 -56 -25 -84q-20 -20 -57 -20t-57.5 14.5t-20.5 40.5z" />
<glyph unicode="&#xc0;" horiz-adv-x="1222" d="M-82 0l793 1325h114l273 -1325h-107l-90 459h-596l-270 -459h-117zM356 549h527l-131 670zM518 1718q0 20 14 32.5t33 12.5q31 0 88 -51q59 -50 109.5 -106t73 -90.5t18.5 -38.5q-6 -5 -43 9t-101.5 51.5t-125.5 88.5q-38 33 -52 52.5t-14 39.5z" />
<glyph unicode="&#xc1;" horiz-adv-x="1222" d="M-82 0l793 1325h114l273 -1325h-107l-90 459h-596l-270 -459h-117zM356 549h527l-131 670zM694 1477q-3 5 30 40t98.5 88.5t135.5 98.5q58 41 95 41q19 0 31 -12t12 -29q0 -20 -19 -39.5t-69 -52.5q-73 -46 -149.5 -80.5t-119.5 -47t-45 -7.5z" />
<glyph unicode="&#xc2;" horiz-adv-x="1222" d="M-82 0l793 1325h114l273 -1325h-107l-90 459h-596l-270 -459h-117zM356 549h527l-131 670zM535 1499q0 25 30.5 62.5t104.5 103.5q43 39 83.5 71.5t61.5 47t25 14.5q3 0 17.5 -14t40.5 -46t50 -69q76 -115 76 -151q0 -21 -10.5 -33t-24.5 -12q-20 0 -39.5 25.5 t-62.5 103.5q-42 72 -60 108l-106 -111q-118 -126 -158 -126q-13 0 -20.5 7.5t-7.5 18.5z" />
<glyph unicode="&#xc3;" horiz-adv-x="1222" d="M-82 0l793 1325h114l273 -1325h-107l-90 459h-596l-270 -459h-117zM356 549h527l-131 670zM508 1497q18 94 62.5 147.5t113.5 53.5q46 0 78 -21.5t69 -62.5q28 -33 46.5 -46.5t40.5 -13.5q29 0 48 21t33 65q15 48 48 48q15 0 34 -15q-15 -94 -60 -148.5t-114 -54.5 q-46 0 -79.5 22.5t-67.5 63.5q-31 34 -48.5 47t-39.5 13q-30 0 -49 -21.5t-33 -64.5q-8 -25 -18.5 -36t-28.5 -11q-17 0 -35 14z" />
<glyph unicode="&#xc4;" horiz-adv-x="1222" d="M-82 0l793 1325h114l273 -1325h-107l-90 459h-596l-270 -459h-117zM356 549h527l-131 670zM549 1534q0 39 20.5 65.5t57.5 26.5q78 0 78 -59q0 -39 -21.5 -65.5t-58.5 -26.5q-76 0 -76 59zM874 1534q0 39 20.5 65.5t57.5 26.5q78 0 78 -59q0 -39 -21 -65.5t-59 -26.5 q-76 0 -76 59z" />
<glyph unicode="&#xc5;" horiz-adv-x="1222" d="M-82 0l764 1274q-53 23 -82 69t-29 103q0 103 71.5 179.5t174.5 76.5q94 0 149.5 -56t55.5 -137q0 -87 -52.5 -156t-133.5 -89l262 -1264h-107l-90 459h-596l-270 -459h-117zM356 549h527l-131 670zM649 1452q0 -52 36 -90.5t95 -38.5q70 0 117 54.5t47 125.5 q0 52 -35 90.5t-94 38.5q-71 0 -118.5 -54t-47.5 -126z" />
<glyph unicode="&#xc6;" horiz-adv-x="1728" d="M-82 0l760 1270q19 29 38.5 42t51.5 13h1028l-10 -51q-4 -23 -20 -32t-52 -9h-868l104 -508h572l-19 -90h-534l110 -543h480l-19 -92h-477q-39 0 -58 15t-26 53l-78 391h-596l-270 -459h-117zM356 549h527l-131 670z" />
<glyph unicode="&#xc7;" horiz-adv-x="1325" d="M127 543q0 215 94 399t262 294t371 110q239 0 387 -144q42 -42 65 -91.5t23 -84.5q0 -24 -15 -40.5t-30 -18.5t-22 0q-38 137 -143 213.5t-271 76.5q-129 0 -243.5 -56.5t-195 -151.5t-127 -223t-46.5 -269q0 -223 130.5 -355t344.5 -132q156 0 267 67t173 170l74 -53 q-23 -38 -51 -72.5t-74 -72.5t-99.5 -65.5t-128.5 -45.5t-159 -18q-267 0 -426.5 152.5t-159.5 410.5zM424 -418q14 20 36 54t69 105t78 118t30 47q3 3 24 -1t42.5 -18.5t21.5 -36.5q0 -33 -35 -71l-221 -228q-9 -10 -30 5t-15 26z" />
<glyph unicode="&#xc8;" horiz-adv-x="1148" d="M57 0l283 1325h893l-10 -51q-3 -22 -19 -31.5t-51 -9.5h-731l-109 -508h625l-18 -90h-625l-117 -543h815l-18 -92h-918zM578 1718q0 20 14 32.5t33 12.5q31 0 88 -51q59 -50 109.5 -106t72.5 -90.5t18 -38.5q-6 -5 -43 9t-101.5 51.5t-125.5 88.5q-38 32 -51.5 52 t-13.5 40z" />
<glyph unicode="&#xc9;" horiz-adv-x="1148" d="M57 0l283 1325h893l-10 -51q-3 -22 -19 -31.5t-51 -9.5h-731l-109 -508h625l-18 -90h-625l-117 -543h815l-18 -92h-918zM692 1477q-3 5 30 40t98.5 88.5t135.5 98.5q58 41 95 41q19 0 31 -12t12 -29q0 -20 -19 -39.5t-69 -52.5q-73 -46 -149.5 -80.5t-119.5 -47t-45 -7.5 z" />
<glyph unicode="&#xca;" horiz-adv-x="1148" d="M57 0l283 1325h893l-10 -51q-3 -22 -19 -31.5t-51 -9.5h-731l-109 -508h625l-18 -90h-625l-117 -543h815l-18 -92h-918zM573 1499q0 24 31 61.5t105 104.5q43 39 83.5 71.5t61.5 47t25 14.5q3 0 17.5 -14t40.5 -46t50 -69q76 -115 76 -151q0 -21 -10.5 -33t-24.5 -12 q-20 0 -39.5 25.5t-62.5 103.5q-42 72 -60 108l-106 -111q-118 -126 -158 -126q-13 0 -21 7.5t-8 18.5z" />
<glyph unicode="&#xcb;" horiz-adv-x="1148" d="M57 0l283 1325h893l-10 -51q-3 -22 -19 -31.5t-51 -9.5h-731l-109 -508h625l-18 -90h-625l-117 -543h815l-18 -92h-918zM580 1534q0 39 20 65.5t57 26.5q78 0 78 -59q0 -39 -21.5 -65.5t-58.5 -26.5q-75 0 -75 59zM905 1534q0 39 20.5 65.5t57.5 26.5q78 0 78 -59 q0 -39 -21 -65.5t-59 -26.5q-76 0 -76 59z" />
<glyph unicode="&#xcc;" horiz-adv-x="464" d="M80 0l282 1325h101l-283 -1325h-100zM172 1718q0 20 14 32.5t33 12.5q31 0 88 -51q59 -50 109.5 -106t73 -90.5t18.5 -38.5q-6 -5 -43 9t-101.5 51.5t-125.5 88.5q-38 33 -52 52.5t-14 39.5z" />
<glyph unicode="&#xcd;" horiz-adv-x="464" d="M80 0l282 1325h101l-283 -1325h-100zM356 1477q-3 5 30.5 40t99 88.5t135.5 98.5q58 41 94 41q19 0 31 -12t12 -29q0 -20 -19 -39.5t-69 -52.5q-73 -46 -149.5 -80.5t-119.5 -47t-45 -7.5z" />
<glyph unicode="&#xce;" horiz-adv-x="464" d="M80 0l282 1325h101l-283 -1325h-100zM197 1499q0 25 30.5 62.5t104.5 103.5q43 39 83.5 71.5t61.5 47t25 14.5q3 0 17.5 -14t40.5 -46t50 -69q76 -115 76 -151q0 -21 -10.5 -33t-24.5 -12q-20 0 -39.5 25.5t-62.5 103.5q-42 72 -60 108l-106 -111q-118 -126 -158 -126 q-13 0 -20.5 7.5t-7.5 18.5z" />
<glyph unicode="&#xcf;" horiz-adv-x="464" d="M80 0l282 1325h101l-283 -1325h-100zM209 1534q0 39 20.5 65.5t57.5 26.5q78 0 78 -59q0 -39 -21.5 -65.5t-58.5 -26.5q-76 0 -76 59zM535 1534q0 39 20 65.5t57 26.5q78 0 78 -59q0 -39 -21 -65.5t-59 -26.5q-75 0 -75 59z" />
<glyph unicode="&#xd0;" horiz-adv-x="1417" d="M80 643q0 31 18 53q15 11 39 11h160l133 618h279q310 0 481.5 -146t171.5 -409q0 -163 -52.5 -302t-153 -244t-257.5 -164.5t-354 -59.5h-398l132 618h-154q-45 0 -45 25zM268 90h293q170 0 304 52t218 143.5t127 211t43 259.5q0 226 -144.5 352.5t-408.5 126.5h-188 l-113 -528h459q45 0 45 -25q0 -31 -18 -53q-15 -11 -37 -11h-467z" />
<glyph unicode="&#xd1;" horiz-adv-x="1372" d="M59 0l281 1325h127l577 -1175l250 1175h97l-283 -1325h-107l-591 1204l-256 -1204h-95zM637 1497q18 94 62.5 147.5t113.5 53.5q46 0 78.5 -21.5t69.5 -62.5q29 -34 46.5 -47t39.5 -13q29 0 48 21t33 65q15 48 48 48q15 0 34 -15q-15 -94 -60 -148.5t-114 -54.5 q-46 0 -79.5 22.5t-67.5 63.5q-31 34 -48.5 47t-39.5 13q-30 0 -49 -21.5t-33 -64.5q-8 -25 -18.5 -36t-28.5 -11t-35 14z" />
<glyph unicode="&#xd2;" horiz-adv-x="1488" d="M127 551q0 167 61 317t162 253.5t233.5 164t272.5 60.5q263 0 422.5 -161t159.5 -411q0 -167 -61 -316t-162 -252t-233.5 -163.5t-272.5 -60.5q-263 0 -422.5 160.5t-159.5 408.5zM236 559q0 -212 129.5 -350.5t353.5 -138.5q116 0 227 53t195.5 144t136 222.5 t51.5 278.5q0 212 -129.5 350.5t-353.5 138.5q-116 0 -226.5 -53.5t-195.5 -144.5t-136.5 -222.5t-51.5 -277.5zM674 1718q0 20 14 32.5t33 12.5q31 0 88 -51q59 -50 109.5 -106t73 -90.5t18.5 -38.5q-6 -5 -43.5 9t-102 51.5t-125.5 88.5q-38 32 -51.5 52t-13.5 40z" />
<glyph unicode="&#xd3;" horiz-adv-x="1488" d="M127 551q0 167 61 317t162 253.5t233.5 164t272.5 60.5q263 0 422.5 -161t159.5 -411q0 -167 -61 -316t-162 -252t-233.5 -163.5t-272.5 -60.5q-263 0 -422.5 160.5t-159.5 408.5zM236 559q0 -212 129.5 -350.5t353.5 -138.5q116 0 227 53t195.5 144t136 222.5 t51.5 278.5q0 212 -129.5 350.5t-353.5 138.5q-116 0 -226.5 -53.5t-195.5 -144.5t-136.5 -222.5t-51.5 -277.5zM760 1477q-3 5 30 40t98.5 88.5t135.5 98.5q58 41 94 41q19 0 31 -12t12 -29q0 -20 -19 -39.5t-69 -52.5q-73 -46 -149 -80.5t-119 -47t-45 -7.5z" />
<glyph unicode="&#xd4;" horiz-adv-x="1488" d="M127 551q0 167 61 317t162 253.5t233.5 164t272.5 60.5q263 0 422.5 -161t159.5 -411q0 -167 -61 -316t-162 -252t-233.5 -163.5t-272.5 -60.5q-263 0 -422.5 160.5t-159.5 408.5zM236 559q0 -212 129.5 -350.5t353.5 -138.5q116 0 227 53t195.5 144t136 222.5 t51.5 278.5q0 212 -129.5 350.5t-353.5 138.5q-116 0 -226.5 -53.5t-195.5 -144.5t-136.5 -222.5t-51.5 -277.5zM670 1499q0 25 30.5 62.5t104.5 103.5q43 39 83.5 71.5t61.5 47t25 14.5q3 0 17.5 -14t40.5 -46t50 -69q76 -115 76 -151q0 -21 -10.5 -33t-24.5 -12 q-20 0 -39.5 25.5t-62.5 103.5q-37 62 -59 108l-107 -111q-118 -126 -158 -126q-13 0 -20.5 7.5t-7.5 18.5z" />
<glyph unicode="&#xd5;" horiz-adv-x="1488" d="M127 551q0 167 61 317t162 253.5t233.5 164t272.5 60.5q263 0 422.5 -161t159.5 -411q0 -167 -61 -316t-162 -252t-233.5 -163.5t-272.5 -60.5q-263 0 -422.5 160.5t-159.5 408.5zM236 559q0 -212 129.5 -350.5t353.5 -138.5q116 0 227 53t195.5 144t136 222.5 t51.5 278.5q0 212 -129.5 350.5t-353.5 138.5q-116 0 -226.5 -53.5t-195.5 -144.5t-136.5 -222.5t-51.5 -277.5zM610 1497q18 94 62.5 147.5t113.5 53.5q46 0 78.5 -21.5t69.5 -62.5q29 -34 46.5 -47t39.5 -13q30 0 49 21.5t33 64.5q15 48 47 48q16 0 35 -15 q-15 -94 -60 -148.5t-114 -54.5q-46 0 -80.5 22.5t-67.5 63.5q-31 34 -48.5 47t-39.5 13q-30 0 -49 -21.5t-33 -64.5q-8 -25 -18.5 -36t-28.5 -11q-17 0 -35 14z" />
<glyph unicode="&#xd6;" horiz-adv-x="1488" d="M127 551q0 167 61 317t162 253.5t233.5 164t272.5 60.5q263 0 422.5 -161t159.5 -411q0 -167 -61 -316t-162 -252t-233.5 -163.5t-272.5 -60.5q-263 0 -422.5 160.5t-159.5 408.5zM236 559q0 -212 129.5 -350.5t353.5 -138.5q116 0 227 53t195.5 144t136 222.5 t51.5 278.5q0 212 -129.5 350.5t-353.5 138.5q-116 0 -226.5 -53.5t-195.5 -144.5t-136.5 -222.5t-51.5 -277.5zM682 1534q0 39 20.5 65.5t57.5 26.5q78 0 78 -59q0 -39 -21.5 -65.5t-58.5 -26.5q-76 0 -76 59zM1008 1534q0 39 20 65.5t57 26.5q78 0 78 -59q0 -39 -21 -65.5 t-59 -26.5q-75 0 -75 59z" />
<glyph unicode="&#xd7;" horiz-adv-x="1103" d="M159.5 223.5q-3.5 24.5 18.5 48.5l330 283l-209 283q-18 25 -7.5 50t34 26.5t45.5 -23.5l207 -279l323 277q24 22 49 12t28.5 -34.5t-17.5 -47.5l-328 -280l211 -285q19 -25 8.5 -49.5t-34.5 -26t-46 22.5l-209 280l-325 -278q-24 -22 -49.5 -13t-29 33.5z" />
<glyph unicode="&#xd8;" horiz-adv-x="1488" d="M4 -10q0 40 45 80q11 10 29 26.5t56 51t63.5 57.5t25.5 22q-96 145 -96 324q0 167 61 317t162 253.5t233.5 164t272.5 60.5q256 0 418 -162l207 188q3 2 13.5 -4t20 -19.5t9.5 -27.5q0 -38 -45 -80l-144 -131q103 -144 103 -336q0 -167 -61 -316t-162 -252t-233.5 -163.5 t-272.5 -60.5q-264 0 -430 172q1 0 -57.5 -53t-117.5 -107l-59 -53q-3 -3 -13 3t-19 19t-9 27zM236 559q0 -149 67 -264l897 823q-126 139 -354 139q-116 0 -226.5 -53.5t-195.5 -144.5t-136.5 -222.5t-51.5 -277.5zM352 219q133 -149 367 -149q116 0 227 53t195.5 144 t136 222.5t51.5 278.5q0 158 -76 276z" />
<glyph unicode="&#xd9;" horiz-adv-x="1292" d="M160 573l162 752h100l-160 -760q-53 -247 42 -370t321 -123q341 0 428 417l180 836h98l-182 -856q-103 -489 -531 -489q-271 0 -395 150t-63 443zM614 1698q0 20 14.5 32.5t33.5 12.5q31 0 88 -51q59 -50 109.5 -106.5t72.5 -91t18 -38.5q-6 -5 -43 9t-101.5 52 t-125.5 89q-38 33 -52 52.5t-14 39.5z" />
<glyph unicode="&#xda;" horiz-adv-x="1292" d="M160 573l162 752h100l-160 -760q-53 -247 42 -370t321 -123q341 0 428 417l180 836h98l-182 -856q-103 -489 -531 -489q-271 0 -395 150t-63 443zM707 1456q-3 5 30 40t98.5 88.5t135.5 98.5q58 41 94 41q19 0 31 -12t12 -29q0 -20 -19 -39.5t-69 -52.5 q-73 -46 -149 -80.5t-119 -47t-45 -7.5z" />
<glyph unicode="&#xdb;" horiz-adv-x="1292" d="M160 573l162 752h100l-160 -760q-53 -247 42 -370t321 -123q341 0 428 417l180 836h98l-182 -856q-103 -489 -531 -489q-271 0 -395 150t-63 443zM604 1479q0 25 30.5 62.5t104.5 103.5q43 39 83.5 71.5t61.5 47t25 14.5q3 0 17.5 -14t41 -46t50.5 -69q76 -115 76 -152 q0 -21 -10.5 -33t-24.5 -12q-20 0 -40.5 26t-62.5 103q-34 57 -59 109l-106 -111q-119 -127 -158 -127q-13 0 -21 8t-8 19z" />
<glyph unicode="&#xdc;" horiz-adv-x="1292" d="M160 573l162 752h100l-160 -760q-53 -247 42 -370t321 -123q341 0 428 417l180 836h98l-182 -856q-103 -489 -531 -489q-271 0 -395 150t-63 443zM621 1513q0 39 20.5 66t56.5 27q78 0 78 -60q0 -39 -21.5 -65.5t-58.5 -26.5q-75 0 -75 59zM946 1513q0 39 20.5 66 t57.5 27q78 0 78 -60q0 -39 -21 -65.5t-59 -26.5q-76 0 -76 59z" />
<glyph unicode="&#xdd;" d="M170 1325h111l305 -666l569 666h135l-669 -764l-121 -561h-101l121 571zM637 1450q-3 5 30 40t98.5 88.5t135.5 98.5q58 41 94 41q19 0 31 -12t12 -29q0 -20 -19 -39.5t-69 -52.5q-73 -46 -149 -80.5t-119 -47t-45 -7.5z" />
<glyph unicode="&#xde;" horiz-adv-x="1128" d="M59 0l283 1325h100l-57 -258h260q215 0 327.5 -88.5t112.5 -251.5q0 -213 -135 -334t-389 -121h-344l-57 -272h-101zM236 362h344q193 0 297 94.5t104 256.5q0 128 -85.5 195t-256.5 67h-272z" />
<glyph unicode="&#xdf;" horiz-adv-x="1052" d="M39 0l205 956q48 225 159 336t271 111q167 0 263.5 -83t96.5 -218q0 -155 -103.5 -245t-314.5 -99q156 -40 247 -133.5t91 -221.5q0 -178 -114 -300.5t-283 -122.5q-163 0 -238 75q-45 48 -45 90q0 20 12.5 36.5t25 23t14.5 2.5q61 -141 237 -141q126 0 209.5 94 t83.5 235q0 203 -274 291q-72 24 -72 68q0 52 37 82q200 0 294.5 63t94.5 199q0 97 -72.5 157t-191.5 60q-124 0 -209.5 -90t-124.5 -277l-201 -948h-98z" />
<glyph unicode="&#xe0;" horiz-adv-x="1159" d="M76 395q0 150 68 285.5t193.5 222t276.5 86.5q137 0 234 -70t131 -176l27 129q12 58 29.5 81t49.5 22q8 0 17 -2.5t14.5 -5.5t5.5 -4l-204 -963h-99l45 205q-68 -111 -168.5 -168t-218.5 -57q-172 0 -286.5 111t-114.5 304zM176 397q0 -152 88.5 -241.5t224.5 -89.5 q153 0 273 109.5t151 256.5l39 178q-24 132 -113 212.5t-233 80.5q-125 0 -225.5 -75.5t-152.5 -190t-52 -240.5zM457 1360q0 20 14 32.5t33 12.5q31 0 88 -51q59 -50 109.5 -106.5t73 -91t18.5 -38.5q-6 -5 -43.5 9t-102 52t-125.5 89q-38 32 -51.5 52t-13.5 40z" />
<glyph unicode="&#xe1;" horiz-adv-x="1159" d="M76 395q0 150 68 285.5t193.5 222t276.5 86.5q137 0 234 -70t131 -176l27 129q12 58 29.5 81t49.5 22q8 0 17 -2.5t14.5 -5.5t5.5 -4l-204 -963h-99l45 205q-68 -111 -168.5 -168t-218.5 -57q-172 0 -286.5 111t-114.5 304zM176 397q0 -152 88.5 -241.5t224.5 -89.5 q153 0 273 109.5t151 256.5l39 178q-24 132 -113 212.5t-233 80.5q-125 0 -225.5 -75.5t-152.5 -190t-52 -240.5zM588 1118q-3 5 30 40t98.5 89t135.5 99q57 40 94 40q19 0 31 -11.5t12 -28.5q0 -20 -19 -40.5t-69 -52.5q-73 -46 -149 -80.5t-119 -47t-45 -7.5z" />
<glyph unicode="&#xe2;" horiz-adv-x="1159" d="M76 395q0 150 68 285.5t193.5 222t276.5 86.5q137 0 234 -70t131 -176l27 129q12 58 29.5 81t49.5 22q8 0 17 -2.5t14.5 -5.5t5.5 -4l-204 -963h-99l45 205q-68 -111 -168.5 -168t-218.5 -57q-172 0 -286.5 111t-114.5 304zM176 397q0 -152 88.5 -241.5t224.5 -89.5 q153 0 273 109.5t151 256.5l39 178q-24 132 -113 212.5t-233 80.5q-125 0 -225.5 -75.5t-152.5 -190t-52 -240.5zM453 1141q0 25 30.5 62.5t104.5 103.5q43 39 83.5 71.5t61.5 47t25 14.5q3 0 17.5 -14t40.5 -46t50 -69q76 -115 76 -152q0 -21 -10.5 -33t-24.5 -12 q-20 0 -39.5 25.5t-62.5 103.5q-40 67 -60 109l-106 -111q-119 -127 -158 -127q-13 0 -20.5 8t-7.5 19z" />
<glyph unicode="&#xe3;" horiz-adv-x="1159" d="M76 395q0 150 68 285.5t193.5 222t276.5 86.5q137 0 234 -70t131 -176l27 129q12 58 29.5 81t49.5 22q8 0 17 -2.5t14.5 -5.5t5.5 -4l-204 -963h-99l45 205q-68 -111 -168.5 -168t-218.5 -57q-172 0 -286.5 111t-114.5 304zM176 397q0 -152 88.5 -241.5t224.5 -89.5 q153 0 273 109.5t151 256.5l39 178q-24 132 -113 212.5t-233 80.5q-125 0 -225.5 -75.5t-152.5 -190t-52 -240.5zM424 1139q18 94 62.5 147t113.5 53q46 0 78.5 -21.5t69.5 -62.5q28 -33 46 -46t40 -13q29 0 48 21t33 65q15 47 48 47q17 0 34 -14q-15 -94 -60 -148.5 t-114 -54.5q-46 0 -79.5 22.5t-67.5 63.5q-30 33 -48 46t-40 13q-30 0 -49 -21.5t-33 -64.5q-8 -25 -18.5 -36t-28.5 -11q-16 0 -35 15z" />
<glyph unicode="&#xe4;" horiz-adv-x="1159" d="M76 395q0 150 68 285.5t193.5 222t276.5 86.5q137 0 234 -70t131 -176l27 129q12 58 29.5 81t49.5 22q8 0 17 -2.5t14.5 -5.5t5.5 -4l-204 -963h-99l45 205q-68 -111 -168.5 -168t-218.5 -57q-172 0 -286.5 111t-114.5 304zM176 397q0 -152 88.5 -241.5t224.5 -89.5 q153 0 273 109.5t151 256.5l39 178q-24 132 -113 212.5t-233 80.5q-125 0 -225.5 -75.5t-152.5 -190t-52 -240.5zM465 1176q0 39 20.5 65.5t57.5 26.5q78 0 78 -60q0 -39 -21.5 -65.5t-58.5 -26.5q-76 0 -76 60zM791 1176q0 39 20 65.5t57 26.5q78 0 78 -60q0 -39 -21 -65.5 t-59 -26.5q-75 0 -75 60z" />
<glyph unicode="&#xe5;" horiz-adv-x="1159" d="M76 395q0 150 68 285.5t193.5 222t276.5 86.5q137 0 234 -70t131 -176l27 129q12 58 29.5 81t49.5 22q8 0 17 -2.5t14.5 -5.5t5.5 -4l-204 -963h-99l45 205q-68 -111 -168.5 -168t-218.5 -57q-172 0 -286.5 111t-114.5 304zM176 397q0 -152 88.5 -241.5t224.5 -89.5 q153 0 273 109.5t151 256.5l39 178q-24 132 -113 212.5t-233 80.5q-125 0 -225.5 -75.5t-152.5 -190t-52 -240.5zM510 1307q0 103 71.5 179.5t174.5 76.5q94 0 150.5 -56t56.5 -137q0 -103 -71.5 -179.5t-174.5 -76.5q-94 0 -150.5 56t-56.5 137zM588 1313q0 -52 36 -90.5 t95 -38.5q70 0 118 54.5t48 125.5q0 53 -36 91t-95 38q-70 0 -118 -54.5t-48 -125.5z" />
<glyph unicode="&#xe6;" horiz-adv-x="1740" d="M27 221q0 122 71 193q76 78 240.5 113.5t443.5 35.5h31l4 19q31 153 -44 236t-238 83q-217 0 -324 -153q-2 -2 -12 4t-20.5 19t-10.5 30q0 31 45 76q112 112 332 112q158 0 255.5 -71.5t104.5 -206.5q76 131 199.5 204.5t277.5 73.5q153 0 242.5 -68.5t89.5 -175.5 q0 -56 -15 -98.5t-51.5 -80t-98 -60t-153 -38.5t-217.5 -15t-292 10q-6 -44 -6 -86q0 -142 82.5 -228t232.5 -86q221 0 338 168l74 -51q-57 -86 -161.5 -143t-254.5 -57q-159 0 -256.5 74t-124.5 200q-58 -129 -174 -201.5t-270 -72.5t-247 65t-93 176zM127 229 q0 -75 70.5 -121.5t183.5 -46.5q138 0 248.5 86t142.5 228l25 110h-56q-257 -6 -381.5 -32t-183.5 -84q-49 -52 -49 -140zM907 545q172 -15 295.5 -8.5t203.5 22t127 46t65 63.5t18 75q0 65 -63 112.5t-175 47.5q-162 0 -290.5 -101t-180.5 -257z" />
<glyph unicode="&#xe7;" horiz-adv-x="1048" d="M74 422q0 147 70 276.5t195 209t273 79.5q199 0 324 -119q40 -40 61 -87t21 -83q0 -27 -18.5 -43.5t-34.5 -16t-21 2.5q-16 112 -102.5 186t-227.5 74q-95 0 -178 -40t-140 -106t-89.5 -151.5t-32.5 -175.5q0 -164 99 -262t259 -98q212 0 326 190l74 -47 q-17 -37 -50 -74.5t-82.5 -74t-122.5 -59.5t-155 -23q-126 0 -226.5 50.5t-161 152.5t-60.5 239zM242 -418q14 20 36 54t69 105t78 118t30 47q3 3 24 -1t42.5 -18.5t21.5 -36.5q0 -33 -35 -71l-221 -228q-9 -10 -30 5t-15 26z" />
<glyph unicode="&#xe8;" horiz-adv-x="1034" d="M70 371q0 126 46.5 240.5t126.5 197t192.5 131.5t238.5 49q156 0 246 -68.5t90 -175.5q0 -54 -16 -97.5t-56 -81t-103.5 -62.5t-161.5 -39t-227 -14q-122 0 -268 14q-8 -39 -8 -88q0 -142 82.5 -228t236.5 -86q220 0 340 168l72 -55q-55 -83 -159.5 -139.5t-256.5 -56.5 q-197 0 -306 108t-109 283zM199 549q127 -17 239 -17q471 0 471 211q0 65 -63 112.5t-178 47.5q-162 0 -289.5 -99.5t-179.5 -254.5zM440 1360q0 20 14 32.5t33 12.5q31 0 88 -51q59 -50 109.5 -106.5t73 -91t18.5 -38.5q-6 -5 -43 9t-101.5 52t-125.5 89q-38 33 -52 52.5 t-14 39.5z" />
<glyph unicode="&#xe9;" horiz-adv-x="1034" d="M70 371q0 126 46.5 240.5t126.5 197t192.5 131.5t238.5 49q156 0 246 -68.5t90 -175.5q0 -54 -16 -97.5t-56 -81t-103.5 -62.5t-161.5 -39t-227 -14q-122 0 -268 14q-8 -39 -8 -88q0 -142 82.5 -228t236.5 -86q220 0 340 168l72 -55q-55 -83 -159.5 -139.5t-256.5 -56.5 q-197 0 -306 108t-109 283zM199 549q127 -17 239 -17q471 0 471 211q0 65 -63 112.5t-178 47.5q-162 0 -289.5 -99.5t-179.5 -254.5zM575 1118q-3 5 30.5 40t99 89t135.5 99q57 40 94 40q19 0 31 -11.5t12 -28.5q0 -20 -19 -40.5t-69 -52.5q-73 -46 -149.5 -80.5t-119.5 -47 t-45 -7.5z" />
<glyph unicode="&#xea;" horiz-adv-x="1034" d="M70 371q0 126 46.5 240.5t126.5 197t192.5 131.5t238.5 49q156 0 246 -68.5t90 -175.5q0 -54 -16 -97.5t-56 -81t-103.5 -62.5t-161.5 -39t-227 -14q-122 0 -268 14q-8 -39 -8 -88q0 -142 82.5 -228t236.5 -86q220 0 340 168l72 -55q-55 -83 -159.5 -139.5t-256.5 -56.5 q-197 0 -306 108t-109 283zM199 549q127 -17 239 -17q471 0 471 211q0 65 -63 112.5t-178 47.5q-162 0 -289.5 -99.5t-179.5 -254.5zM465 1141q0 25 30.5 62.5t104.5 103.5q43 39 83.5 71.5t61.5 47t25 14.5q3 0 17.5 -14t41 -46t50.5 -69q75 -113 75 -152q0 -21 -10 -33 t-24 -12q-20 0 -40.5 26t-62.5 103q-34 57 -59 109l-107 -111q-119 -127 -157 -127q-13 0 -21 8t-8 19z" />
<glyph unicode="&#xeb;" horiz-adv-x="1034" d="M70 371q0 126 46.5 240.5t126.5 197t192.5 131.5t238.5 49q156 0 246 -68.5t90 -175.5q0 -54 -16 -97.5t-56 -81t-103.5 -62.5t-161.5 -39t-227 -14q-122 0 -268 14q-8 -39 -8 -88q0 -142 82.5 -228t236.5 -86q220 0 340 168l72 -55q-55 -83 -159.5 -139.5t-256.5 -56.5 q-197 0 -306 108t-109 283zM199 549q127 -17 239 -17q471 0 471 211q0 65 -63 112.5t-178 47.5q-162 0 -289.5 -99.5t-179.5 -254.5zM475 1176q0 39 20.5 65.5t57.5 26.5q78 0 78 -60q0 -39 -21.5 -65.5t-58.5 -26.5q-76 0 -76 60zM801 1176q0 39 20.5 65.5t57.5 26.5 q77 0 77 -60q0 -39 -20.5 -65.5t-58.5 -26.5q-76 0 -76 60z" />
<glyph unicode="&#xec;" horiz-adv-x="399" d="M49 0l207 969h96l-205 -969h-98zM80 1360q0 20 14 32.5t33 12.5q31 0 88 -51q59 -50 109.5 -106.5t73 -91t18.5 -38.5q-6 -5 -43.5 9t-102 52t-125.5 89q-38 32 -51.5 52t-13.5 40z" />
<glyph unicode="&#xed;" horiz-adv-x="399" d="M49 0l207 969h96l-205 -969h-98zM219 1118q-3 5 30 40t98.5 89t135.5 99q57 40 95 40q19 0 31 -11.5t12 -28.5q0 -20 -19.5 -40t-69.5 -53q-73 -46 -149 -80.5t-119 -47t-45 -7.5z" />
<glyph unicode="&#xee;" horiz-adv-x="399" d="M49 0l207 969h96l-205 -969h-98zM96 1141q0 25 30.5 62.5t104.5 103.5q43 39 83.5 71.5t61.5 47t25 14.5q3 0 17.5 -14t41 -46t50.5 -69q76 -115 76 -152q0 -21 -10.5 -33t-24.5 -12q-20 0 -39.5 25.5t-62.5 103.5q-40 67 -60 109l-106 -111q-119 -127 -158 -127 q-13 0 -21 8t-8 19z" />
<glyph unicode="&#xef;" horiz-adv-x="399" d="M49 0l207 969h96l-205 -969h-98zM109 1176q0 39 20 65.5t57 26.5q78 0 78 -60q0 -39 -21.5 -65.5t-58.5 -26.5q-75 0 -75 60zM434 1176q0 39 20.5 65.5t57.5 26.5q78 0 78 -60q0 -39 -21 -65.5t-59 -26.5q-76 0 -76 60z" />
<glyph unicode="&#xf0;" horiz-adv-x="1101" d="M55 365q0 136 61 249t177.5 180.5t265.5 67.5q137 0 246 -67t151 -154q2 23 2 66q0 278 -200 458l-320 -178q-3 -2 -9.5 2.5t-12.5 17t-6 27.5q0 36 57 66l217 114q-132 93 -326 109q-1 3 -2 21t19.5 38.5t56.5 20.5q67 0 163.5 -35t182.5 -104l260 143q3 2 10 -2.5 t13 -16.5t6 -26q0 -38 -57 -68l-164 -86q209 -209 209 -508q0 -96 -19.5 -193t-63.5 -192.5t-107.5 -169.5t-159.5 -119.5t-211 -45.5q-194 0 -316.5 102.5t-122.5 282.5zM154 362q0 -139 94.5 -219t243.5 -80q96 0 174.5 38t131.5 105t87 150t51 181q-29 88 -136.5 163.5 t-242.5 75.5q-131 0 -223.5 -56t-136 -148t-43.5 -210z" />
<glyph unicode="&#xf1;" d="M37 0l209 969q0 6 20 6q75 0 53 -107l-20 -94q135 215 360 215q152 0 242 -88.5t90 -232.5q0 -21 -2.5 -46t-9.5 -63.5t-11 -58.5t-15.5 -74t-14.5 -68l-78 -358h-98l80 371q49 214 49 280q0 115 -65 180.5t-179 65.5q-124 0 -213 -64.5t-162 -191.5l-137 -641h-98z M416 1139q18 94 62.5 147t113.5 53q46 0 78 -21.5t69 -62.5q28 -33 46 -46t40 -13q30 0 49 21.5t33 64.5q8 24 18.5 35.5t28.5 11.5t35 -14q-15 -94 -60 -148.5t-114 -54.5q-46 0 -79.5 22.5t-67.5 63.5q-30 33 -48 46t-40 13q-30 0 -49 -21.5t-33 -64.5q-8 -25 -18.5 -36 t-28.5 -11q-16 0 -35 15z" />
<glyph unicode="&#xf2;" horiz-adv-x="1132" d="M76 424q0 152 71 281.5t196 206.5t273 77q189 0 316 -125.5t127 -318.5q0 -151 -72 -281t-196.5 -207t-272.5 -77q-190 0 -316 125t-126 319zM174 426q0 -156 99 -258t251 -102q177 0 305.5 140.5t128.5 336.5q0 156 -98 258t-250 102q-116 0 -216.5 -64t-160 -174 t-59.5 -239zM416 1360q0 20 14 32.5t33 12.5q31 0 88 -51q59 -50 109.5 -106.5t73 -91t18.5 -38.5q-6 -5 -43.5 9t-102 52t-125.5 89q-38 32 -51.5 52t-13.5 40z" />
<glyph unicode="&#xf3;" horiz-adv-x="1132" d="M76 424q0 152 71 281.5t196 206.5t273 77q189 0 316 -125.5t127 -318.5q0 -151 -72 -281t-196.5 -207t-272.5 -77q-190 0 -316 125t-126 319zM174 426q0 -156 99 -258t251 -102q177 0 305.5 140.5t128.5 336.5q0 156 -98 258t-250 102q-116 0 -216.5 -64t-160 -174 t-59.5 -239zM555 1118q-3 5 30 40t98.5 89t135.5 99q57 40 94 40q19 0 31 -11.5t12 -28.5q0 -20 -19 -40.5t-69 -52.5q-73 -46 -149 -80.5t-119 -47t-45 -7.5z" />
<glyph unicode="&#xf4;" horiz-adv-x="1132" d="M76 424q0 152 71 281.5t196 206.5t273 77q189 0 316 -125.5t127 -318.5q0 -151 -72 -281t-196.5 -207t-272.5 -77q-190 0 -316 125t-126 319zM174 426q0 -156 99 -258t251 -102q177 0 305.5 140.5t128.5 336.5q0 156 -98 258t-250 102q-116 0 -216.5 -64t-160 -174 t-59.5 -239zM430 1141q0 25 30.5 62.5t104.5 103.5q43 39 83.5 71.5t61.5 47t25 14.5q3 0 17.5 -14t41 -46t50.5 -69q76 -115 76 -152q0 -21 -10.5 -33t-24.5 -12q-20 0 -40.5 26t-62.5 103q-34 57 -59 109l-107 -111q-119 -127 -157 -127q-13 0 -21 8t-8 19z" />
<glyph unicode="&#xf5;" horiz-adv-x="1132" d="M76 424q0 152 71 281.5t196 206.5t273 77q189 0 316 -125.5t127 -318.5q0 -151 -72 -281t-196.5 -207t-272.5 -77q-190 0 -316 125t-126 319zM174 426q0 -156 99 -258t251 -102q177 0 305.5 140.5t128.5 336.5q0 156 -98 258t-250 102q-116 0 -216.5 -64t-160 -174 t-59.5 -239zM401 1139q18 93 63 146.5t114 53.5q46 0 78 -21.5t69 -62.5q28 -33 46 -46t40 -13q30 0 49 21.5t33 64.5q8 24 18.5 35.5t28.5 11.5t35 -14q-15 -94 -60 -148.5t-114 -54.5q-46 0 -80.5 22.5t-67.5 63.5q-30 33 -48 46t-40 13q-30 0 -49 -21.5t-33 -64.5 q-8 -25 -18.5 -36t-28.5 -11q-16 0 -35 15z" />
<glyph unicode="&#xf6;" horiz-adv-x="1132" d="M76 424q0 152 71 281.5t196 206.5t273 77q189 0 316 -125.5t127 -318.5q0 -151 -72 -281t-196.5 -207t-272.5 -77q-190 0 -316 125t-126 319zM174 426q0 -156 99 -258t251 -102q177 0 305.5 140.5t128.5 336.5q0 156 -98 258t-250 102q-116 0 -216.5 -64t-160 -174 t-59.5 -239zM442 1176q0 39 20.5 65.5t57.5 26.5q78 0 78 -60q0 -39 -21.5 -65.5t-58.5 -26.5q-76 0 -76 60zM768 1176q0 39 20.5 65.5t57.5 26.5q78 0 78 -60q0 -39 -21 -65.5t-59 -26.5q-76 0 -76 60z" />
<glyph unicode="&#xf7;" horiz-adv-x="1228" d="M195 541l2 10q6 23 18 32t39 9h764q27 0 35.5 -9.5t3.5 -31.5l-4 -10q-5 -21 -17 -31t-39 -10h-764q-50 0 -38 41zM481 221q0 58 27 82q18 21 57 21q35 0 55.5 -14.5t20.5 -39.5q0 -57 -27 -84q-20 -20 -57 -20q-35 0 -55.5 14.5t-20.5 40.5zM608 823q0 55 27 82 q21 21 57 21q37 0 57.5 -15t20.5 -41q0 -55 -27 -82q-20 -20 -57 -20t-57.5 14.5t-20.5 40.5z" />
<glyph unicode="&#xf8;" horiz-adv-x="1132" d="M-8 0q0 34 39 68l119 104q-74 110 -74 252q0 152 71 281.5t196 206.5t273 77q186 0 314 -125l162 148q3 2 13 -3.5t19 -18t9 -25.5q0 -30 -41 -68l-111 -96q78 -111 78 -256q0 -151 -72 -281t-196.5 -207t-272.5 -77q-189 0 -315 126l-170 -151q-8 -4 -24.5 10.5 t-16.5 34.5zM174 426q0 -106 51 -193l635 566q-96 104 -250 104q-116 0 -216.5 -64t-160 -174t-59.5 -239zM270 172q95 -106 254 -106q177 0 305.5 140.5t128.5 336.5q0 109 -51 194z" />
<glyph unicode="&#xf9;" d="M102 301q0 26 6 65.5t12 70t19 88t19 85.5l75 359h99l-80 -371q-47 -223 -47 -281q0 -115 65 -180t179 -65q123 0 211 64t163 192l138 641h98l-207 -969q0 -6 -23 -6q-34 0 -49 22.5t-4 83.5l21 99q-62 -104 -153.5 -161.5t-207.5 -57.5q-152 0 -243 88.5t-91 232.5z M403 1354q0 20 14.5 32.5t33.5 12.5q31 0 88 -51q59 -50 109.5 -106.5t72.5 -91t18 -38.5q-6 -5 -43 9t-101.5 52t-125.5 89q-38 33 -52 52.5t-14 39.5z" />
<glyph unicode="&#xfa;" d="M102 301q0 26 6 65.5t12 70t19 88t19 85.5l75 359h99l-80 -371q-47 -223 -47 -281q0 -115 65 -180t179 -65q123 0 211 64t163 192l138 641h98l-207 -969q0 -6 -23 -6q-34 0 -49 22.5t-4 83.5l21 99q-62 -104 -153.5 -161.5t-207.5 -57.5q-152 0 -243 88.5t-91 232.5z M549 1112q-3 5 30 40t98.5 88.5t135.5 98.5q58 41 94 41q19 0 31 -12t12 -29q0 -20 -19 -39.5t-69 -52.5q-73 -46 -149 -80.5t-119 -47t-45 -7.5z" />
<glyph unicode="&#xfb;" d="M102 301q0 26 6 65.5t12 70t19 88t19 85.5l75 359h99l-80 -371q-47 -223 -47 -281q0 -115 65 -180t179 -65q123 0 211 64t163 192l138 641h98l-207 -969q0 -6 -23 -6q-34 0 -49 22.5t-4 83.5l21 99q-62 -104 -153.5 -161.5t-207.5 -57.5q-152 0 -243 88.5t-91 232.5z M430 1135q0 25 30.5 61.5t104.5 103.5q43 39 83.5 72t62 47.5t24.5 14.5t17.5 -14t41 -46t50.5 -69q76 -115 76 -152q0 -21 -10.5 -33t-24.5 -12q-20 0 -40.5 26t-62.5 103q-34 57 -59 109l-107 -111q-119 -127 -157 -127q-13 0 -21 8t-8 19z" />
<glyph unicode="&#xfc;" d="M102 301q0 26 6 65.5t12 70t19 88t19 85.5l75 359h99l-80 -371q-47 -223 -47 -281q0 -115 65 -180t179 -65q123 0 211 64t163 192l138 641h98l-207 -969q0 -6 -23 -6q-34 0 -49 22.5t-4 83.5l21 99q-62 -104 -153.5 -161.5t-207.5 -57.5q-152 0 -243 88.5t-91 232.5z M442 1169q0 39 20.5 66t57.5 27q78 0 78 -60q0 -39 -21.5 -65.5t-58.5 -26.5q-76 0 -76 59zM768 1169q0 39 20.5 66t57.5 27q78 0 78 -60q0 -39 -21 -65.5t-59 -26.5q-76 0 -76 59z" />
<glyph unicode="&#xfd;" horiz-adv-x="927" d="M-184 -319q0 15 9 28.5t19 19t13 3.5q18 -23 49.5 -37t58.5 -14q60 0 122.5 52.5t160.5 196.5l82 123q-47 5 -54 66l-79 583q-15 106 -51 151.5t-101 43.5q-1 0 -1.5 8t2 20t9 24t24 20t42.5 8q137 0 172 -283l74 -588l538 863h111l-674 -1059q-123 -188 -199.5 -253 t-171.5 -65q-94 0 -137 46q-18 18 -18 43zM485 1092q-3 5 30.5 40t99 88.5t135.5 98.5q58 41 94 41q19 0 31 -12t12 -29q0 -20 -19 -39.5t-69 -52.5q-73 -46 -149.5 -80.5t-119.5 -47t-45 -7.5z" />
<glyph unicode="&#xfe;" horiz-adv-x="1155" d="M-43 -387l375 1771q0 5 22 5q75 0 56 -107l-111 -508q142 215 375 215q172 0 289.5 -115.5t117.5 -314.5q0 -148 -65.5 -280t-187 -215.5t-269.5 -83.5q-143 0 -241 73.5t-134 182.5l-129 -623h-98zM229 446q-13 -69 4 -137t59 -122t113.5 -87.5t159.5 -33.5q94 0 174 42 t132.5 111.5t82 158t29.5 181.5q0 157 -92.5 250.5t-228.5 93.5q-126 0 -230.5 -74.5t-159.5 -189.5z" />
<glyph unicode="&#xff;" horiz-adv-x="927" d="M-184 -319q0 15 9 28.5t19 19t13 3.5q18 -23 49.5 -37t58.5 -14q60 0 122.5 52.5t160.5 196.5l82 123q-47 5 -54 66l-79 583q-15 106 -51 151.5t-101 43.5q-1 0 -1.5 8t2 20t9 24t24 20t42.5 8q137 0 172 -283l74 -588l538 863h111l-674 -1059q-123 -188 -199.5 -253 t-171.5 -65q-94 0 -137 46q-18 18 -18 43zM346 1176q0 39 20.5 65.5t57.5 26.5q78 0 78 -60q0 -39 -21.5 -65.5t-58.5 -26.5q-76 0 -76 60zM672 1176q0 39 20.5 65.5t57.5 26.5q77 0 77 -60q0 -39 -20.5 -65.5t-58.5 -26.5q-76 0 -76 60z" />
<glyph unicode="&#x152;" horiz-adv-x="2068" d="M127 553q0 167 61 315.5t161 251.5t231.5 163t269.5 60q78 0 149 -18h1151l-10 -51q-3 -22 -18.5 -31.5t-50.5 -9.5h-887q115 -68 179 -188.5t64 -270.5q0 -33 -2 -49h453l-18 -90h-445q-29 -179 -131.5 -322.5t-247.5 -220.5h877l-19 -92h-1054q-72 -16 -135 -16 q-174 0 -306 74t-202 202.5t-70 292.5zM236 559q0 -137 55.5 -246.5t166 -175t257.5 -65.5q115 0 224.5 53t193.5 144t135 222t51 277q0 211 -128.5 349t-350.5 138q-115 0 -224.5 -53t-193.5 -144t-135 -222t-51 -277z" />
<glyph unicode="&#x153;" horiz-adv-x="1896" d="M76 418q0 116 41 221t111.5 182t170 122.5t211.5 45.5q156 0 269.5 -90.5t144.5 -241.5q70 149 209 240.5t305 91.5q153 0 242.5 -68.5t89.5 -175.5q0 -54 -15.5 -97t-53.5 -80.5t-99 -62.5t-155 -39.5t-218 -14.5q-137 0 -285 14q-8 -39 -8 -88q0 -142 82.5 -228 t233.5 -86q221 0 338 168l73 -55q-58 -84 -160.5 -140t-254.5 -56q-155 0 -254.5 77.5t-126.5 208.5q-66 -130 -187.5 -208t-269.5 -78q-186 0 -310 121.5t-124 316.5zM174 422q0 -154 98 -255t246 -101q118 0 217.5 64.5t157 175t57.5 241.5q0 153 -97.5 254.5 t-244.5 101.5q-181 0 -307.5 -140.5t-126.5 -340.5zM1065 547q144 -12 254 -12q129 0 221 17.5t140.5 48t70 65.5t21.5 77q0 65 -64 112.5t-176 47.5q-161 0 -288.5 -100.5t-178.5 -255.5z" />
<glyph unicode="&#x178;" d="M170 1325h111l305 -666l569 666h135l-669 -764l-121 -561h-101l121 571zM494 1513q0 39 20.5 66t56.5 27q78 0 78 -60q0 -39 -21.5 -65.5t-58.5 -26.5q-75 0 -75 59zM819 1513q0 39 20.5 66t57.5 27q78 0 78 -60q0 -39 -21 -65.5t-59 -26.5q-76 0 -76 59z" />
<glyph unicode="&#x2c6;" horiz-adv-x="1024" d="M410 1141q0 25 30.5 62.5t104.5 103.5q43 39 83.5 71.5t61.5 47t25 14.5q3 0 17.5 -14t40.5 -46t50 -69q76 -115 76 -152q0 -21 -10 -32t-25 -11q-20 0 -40 25.5t-62 101.5q-40 67 -60 109l-106 -111q-117 -125 -158 -125q-28 0 -28 25z" />
<glyph unicode="&#x2dc;" horiz-adv-x="1021" d="M381 1139q18 94 63 148t113 54q46 0 79.5 -22.5t68.5 -63.5q28 -33 46.5 -46t41.5 -13q28 0 46.5 21.5t32.5 64.5q15 47 48 47q16 0 34 -14q-16 -94 -60 -147.5t-114 -53.5q-47 0 -80.5 22t-66.5 62q-30 33 -48 46t-40 13q-55 0 -80 -86q-15 -47 -49 -47q-16 0 -35 15z " />
<glyph unicode="&#x2000;" horiz-adv-x="899" />
<glyph unicode="&#x2001;" horiz-adv-x="1798" />
<glyph unicode="&#x2002;" horiz-adv-x="899" />
<glyph unicode="&#x2003;" horiz-adv-x="1798" />
<glyph unicode="&#x2004;" horiz-adv-x="599" />
<glyph unicode="&#x2005;" horiz-adv-x="449" />
<glyph unicode="&#x2006;" horiz-adv-x="299" />
<glyph unicode="&#x2007;" horiz-adv-x="299" />
<glyph unicode="&#x2008;" horiz-adv-x="224" />
<glyph unicode="&#x2009;" horiz-adv-x="359" />
<glyph unicode="&#x200a;" horiz-adv-x="99" />
<glyph unicode="&#x2010;" horiz-adv-x="718" d="M86 463l16 90h545l-18 -90h-543z" />
<glyph unicode="&#x2011;" horiz-adv-x="718" d="M86 463l16 90h545l-18 -90h-543z" />
<glyph unicode="&#x2012;" horiz-adv-x="718" d="M86 463l16 90h545l-18 -90h-543z" />
<glyph unicode="&#x2013;" horiz-adv-x="1026" d="M98 465l19 86h825l-18 -86h-826z" />
<glyph unicode="&#x2014;" horiz-adv-x="1359" d="M98 465l19 86h1159l-19 -86h-1159z" />
<glyph unicode="&#x2018;" horiz-adv-x="391" d="M186 948q0 30 31 72l242 332l45 -33q-14 -27 -37.5 -70.5t-72.5 -136t-81.5 -154t-31.5 -61.5q-5 -1 -26.5 -1t-45 14.5t-23.5 37.5z" />
<glyph unicode="&#x2019;" horiz-adv-x="391" d="M158 926l225 422q5 1 25.5 0.5t43.5 -15t23 -37.5q0 -29 -31 -71l-239 -332z" />
<glyph unicode="&#x201a;" horiz-adv-x="391" d="M-129 -262l225 422q5 1 25.5 1t43.5 -14.5t23 -37.5q0 -29 -28 -72l-242 -332z" />
<glyph unicode="&#x201c;" horiz-adv-x="675" d="M186 950q0 30 31 72l242 332l45 -33q-14 -27 -37.5 -70.5t-72.5 -136t-81.5 -154t-31.5 -61.5q-5 -1 -26.5 -1t-45 14.5t-23.5 37.5zM471 948q0 30 31 72l241 332l45 -33l-225 -422q-4 -1 -24.5 -1t-44 14.5t-23.5 37.5z" />
<glyph unicode="&#x201d;" horiz-adv-x="675" d="M158 926l225 422q5 1 25.5 0.5t43.5 -15t23 -37.5q0 -29 -31 -71l-239 -332zM442 924q14 27 37.5 70.5t73 136t82 154t31.5 61.5q5 1 26 0.5t44.5 -15t23.5 -37.5q0 -29 -31 -71l-242 -332z" />
<glyph unicode="&#x201e;" horiz-adv-x="675" d="M-129 -262l225 422q5 1 25.5 1t43.5 -14.5t23 -37.5q0 -29 -28 -72l-242 -332zM156 -264q14 27 37.5 70.5t72.5 136t81.5 154t31.5 61.5q5 1 26 0.5t44.5 -15t23.5 -37.5q0 -29 -31 -71l-241 -332z" />
<glyph unicode="&#x2022;" horiz-adv-x="614" d="M135 508q0 75 51.5 127.5t124.5 52.5q75 0 126.5 -52.5t51.5 -127.5t-51.5 -127.5t-126.5 -52.5q-73 0 -124.5 52.5t-51.5 127.5z" />
<glyph unicode="&#x2026;" horiz-adv-x="1175" d="M29 45q0 58 24 82q20 20 60 20q35 0 55 -14.5t20 -40.5q0 -56 -26 -82q-20 -20 -58 -20q-75 0 -75 55zM420 45q0 59 26 82q17 20 58 20q36 0 56 -14.5t20 -40.5q0 -55 -27 -82q-20 -20 -57 -20q-36 0 -56 14.5t-20 40.5zM811 45q0 58 27 82q20 20 57 20q76 0 76 -55 q0 -54 -25 -82q-20 -20 -59 -20q-35 0 -55.5 14.5t-20.5 40.5z" />
<glyph unicode="&#x202f;" horiz-adv-x="359" />
<glyph unicode="&#x2039;" horiz-adv-x="618" d="M94 506q1 5 26.5 29t77 66t113.5 87q182 131 232 131q35 0 35 -35q0 -50 -213 -184q-106 -69 -181 -113q85 -74 135 -122q84 -77 110 -107t26 -53q0 -14 -12 -24.5t-29 -10.5q-27 0 -67.5 32.5t-110.5 110.5q-64 71 -104.5 127t-37.5 66z" />
<glyph unicode="&#x203a;" horiz-adv-x="618" d="M47 207q0 47 213 184q36 21 95 59t85 54q-50 41 -133 121q-85 78 -111 108t-26 51q0 14 12 24.5t29 10.5q29 0 69.5 -32t108.5 -109q65 -72 105 -127.5t38 -67.5q-2 -5 -27.5 -28t-78 -65.5t-113.5 -86.5q-97 -71 -150 -102t-81 -31q-17 0 -26 10.5t-9 26.5z" />
<glyph unicode="&#x205f;" horiz-adv-x="449" />
<glyph unicode="&#x20ac;" horiz-adv-x="1271" d="M76 485q0 36 18 54q10 10 37 10h156q10 108 47 237h-144q-45 0 -45 25q0 11 6 27.5t13 23.5q10 10 37 10h159q76 203 187 314q160 160 383 160q187 0 299 -115q33 -32 52 -77t19 -81q0 -27 -17 -44t-32 -18t-18 1q-28 118 -109 183t-206 65q-175 0 -302 -130 q-89 -86 -155 -258h475q43 0 43 -22q0 -38 -18 -53q-8 -11 -37 -11h-492q-31 -107 -43 -237h477q43 0 43 -25q0 -36 -18 -51q-7 -10 -37 -10h-469q5 -179 99.5 -288t252.5 -109q215 0 344 206q2 2 14 -2.5t23.5 -17t11.5 -29.5q0 -45 -67 -112q-55 -57 -143 -94t-181 -37 q-214 0 -333.5 128t-122.5 355h-162q-45 0 -45 22z" />
<glyph unicode="&#x2122;" horiz-adv-x="1337" d="M160 1253v74h514v-74h-215v-553h-82v553h-217zM784 700v625h113l174 -373l176 373h109v-625h-76v523l-166 -353q-3 -12 -11 -17t-32 -5t-32 5t-11 17l-168 351v-521h-76z" />
<glyph unicode="&#xe000;" horiz-adv-x="972" d="M0 0v973h973v-973h-973z" />
</font>
</defs>
</svg>
